<svg xmlns="http://www.w3.org/2000/svg" width="733.052" height="563.317" viewBox="0 0 733.052 563.317">
  <g id="il_mic" transform="translate(-494.106 -181.01)">
    <g id="Group_1826" data-name="Group 1826" transform="translate(494.106 181.01)">
      <g id="Group_1821" data-name="Group 1821">
        <g id="XMLID_1524_" transform="translate(160.203 331.005)">
          <g id="XMLID_169_" transform="translate(0 0)">
            <path id="XMLID_173_" d="M720.852,770.1c-7.1-.237-14.445-4.183-18.076-10.261-3.157-5.289-3.631-12.393-3.789-18.549-.474-22.259,11.13-43.255,25.89-59.121,8.051-8.683,17.444-15.313,26.6-22.733,5.367-4.262,10.735-8.525,16.26-12.629,17.444-13.1,35.441-26.048,54.859-36.073,7.578-3.868,17.286-9.156,26.127-8.288a11,11,0,0,1,6.867,3.71c6.236,6.394,5.683,14.524.552,21.47-.71,1.026.947,2.052,1.737,1.026,6.394-8.762,5.6-20.128-3.789-26.364-5.683-3.789-13.734-1.184-19.575.947-21.628,7.893-41.2,22.338-59.673,35.836-7.262,5.289-14.366,10.735-21.391,16.26-7.341,5.841-15,11.209-21.943,17.444-18.47,16.813-33.783,39.94-34.415,65.672-.158,6.709.316,15,3.236,20.917,3.71,7.5,12.156,12.393,20.523,12.629,1.263.158,1.263-1.815,0-1.894Z" transform="translate(-697.066 -600.358)"/>
          </g>
        </g>
        <g id="XMLID_1517_" transform="translate(150.139 325.26)">
          <g id="XMLID_163_">
            <path id="XMLID_167_" d="M696.143,744.332c-3.157-1.105-6-4.5-7.5-7.578-5.052-10.182-1.5-22.417,1.815-32.521A110.174,110.174,0,0,1,715.8,662a102.689,102.689,0,0,1,17.129-14.366,29.359,29.359,0,0,0,3.552-2.6c3.789-3.157,7.578-6.236,11.445-9.235,14.129-10.972,28.969-21.312,44.913-29.679,12.471-6.551,36.073-18.47,48.307-5.367.868.947,2.289-.474,1.421-1.421-10.735-11.524-29.679-4.578-41.677.71-17.839,7.893-34.178,19.1-49.728,30.863-4.973,3.789-9.867,7.578-14.682,11.6-6,4.973-12.708,9.077-18.391,14.524a112.059,112.059,0,0,0-29.363,46.413c-3.394,10.419-6.788,22.654-2.131,33.231,1.737,3.947,4.973,8.051,9.156,9.551,1.026.474,1.579-1.421.395-1.894Z" transform="translate(-684.316 -593.08)"/>
          </g>
        </g>
        <g id="XMLID_1510_" transform="translate(304.44 166.772)">
          <path id="XMLID_161_" d="M881.1,414.338l6.078,14.208L920.8,406.682,914.647,393.5Z" transform="translate(-880.073 -392.546)"/>
          <g id="XMLID_156_">
            <path id="XMLID_160_" d="M879.958,414.636c2.052,4.736,4.1,9.472,6.078,14.208a.938.938,0,0,0,1.342.316c11.209-7.262,22.417-14.6,33.626-21.865a1.007,1.007,0,0,0,.316-1.342c-2.052-4.42-4.1-8.762-6.157-13.182a.938.938,0,0,0-1.342-.316c-11.208,6.946-22.338,13.892-33.547,20.838-1.105.631-.079,2.368,1.026,1.737,11.209-6.946,22.338-13.892,33.547-20.838-.474-.079-.868-.237-1.342-.316,2.052,4.42,4.1,8.762,6.157,13.182.079-.474.237-.868.316-1.342-11.208,7.262-22.417,14.6-33.626,21.865.474.079.868.237,1.342.316-2.052-4.736-4.1-9.472-6.078-14.208C881.142,412.426,879.484,413.452,879.958,414.636Z" transform="translate(-879.799 -392.292)" fill="#1d1d1b"/>
          </g>
        </g>
        <g id="XMLID_1503_" transform="translate(293.469 190.3)">
          <g id="XMLID_150_">
            <path id="XMLID_154_" d="M866.847,424.073a.987.987,0,0,0,0-1.973.987.987,0,0,0,0,1.973Z" transform="translate(-865.9 -422.1)" fill="#1d1d1b"/>
          </g>
        </g>
        <g id="XMLID_1496_" transform="translate(135.892 1.201)">
          <g id="XMLID_144_">
            <path id="XMLID_148_" d="M667.477,184.717c-.395.079,1.658-.079,2.131-.079a47.741,47.741,0,0,1,6.709.316,102.9,102.9,0,0,1,25.18,6.551c35.757,13.892,65.988,40.887,91.72,68.672,26.364,28.416,49.254,59.989,70.172,92.589.71,1.026,2.368.079,1.737-1.026C833,301.7,795.822,251.968,747.831,215.975c-20.128-15.155-43.808-29.205-69.3-32.757a44.036,44.036,0,0,0-11.6-.474c-1.184.237-.632,2.131.552,1.973Z" transform="translate(-666.266 -182.532)"/>
          </g>
        </g>
        <g id="XMLID_1484_" transform="translate(40.603 54.929)">
          <g id="XMLID_138_">
            <path id="XMLID_142_" d="M547.088,467.982c8.051-3.552,15.076-10.972,18.865-18.786,5.289-10.972,4.815-23.285,1.105-34.573-9.867-30.153-16.181-62.12-16.971-93.852-.553-23.364,2.131-47.518,12.629-68.672.553-1.105-1.105-2.131-1.737-1.026-17.523,35.2-14.76,77.907-7.972,115.479a395.418,395.418,0,0,0,10.182,42.466c3.078,10.1,6.236,19.5,3.947,30.468-2.289,11.287-10.419,22.1-21.154,26.837-1.026.474-.079,2.131,1.1,1.658Z" transform="translate(-545.546 -250.599)"/>
          </g>
        </g>
        <g id="XMLID_1477_" transform="translate(80.85 62.432)">
          <g id="XMLID_132_">
            <path id="XMLID_136_" d="M634.158,447.883c-.868.158-3.394-1.105-4.578-1.973-5.683-4.341-9-11.84-11.682-18.234A172.924,172.924,0,0,1,610,401.944c-7.183-29.758-12.55-60.858-11.287-91.563.71-16.655,3.236-35.283,14.208-48.544.789-.947-.553-2.368-1.421-1.421-9.63,11.682-12.945,27.311-14.287,42.071-1.579,18-.237,36.151,2.131,53.99a447.579,447.579,0,0,0,8.288,44.36A175.071,175.071,0,0,0,616,428.308c2.842,6.867,6.473,14.839,12.629,19.418,1.579,1.184,3.868,2.447,5.92,2.131a1.006,1.006,0,1,0-.395-1.973Z" transform="translate(-596.534 -260.104)"/>
          </g>
        </g>
        <g id="XMLID_1470_" transform="translate(55.981)">
          <g id="XMLID_126_">
            <path id="XMLID_130_" d="M566.427,259.3c19.5-5.6,38.993-12.077,57.463-20.523,4.894-2.289,9.472-5.052,14.129-7.735-.553.316.71-.316.631-.316,2.842-1.026,6-.868,8.919-.553,7.578.947,14.918,3.947,21.707,7.183,13.5,6.315,26.048,14.524,38.125,23.127A180.056,180.056,0,0,1,728,276.827c7.341,6.946,14.445,14.05,21.391,21.391a418.056,418.056,0,0,1,30.863,35.915c8.841,11.761,17.444,24.39,22.338,38.44a.993.993,0,0,0,1.184.71c3.71-.868,8.051-1.263,11.524-2.921,3.789-1.815,7.341-4.578,10.972-6.788,8.683-5.446,17.444-10.814,26.127-16.26a1.007,1.007,0,0,0,.316-1.342A326.491,326.491,0,0,0,835.747,312.9c-13.734-24.075-29.679-47.044-48.307-67.646-20.838-23.049-45.623-43.65-74.75-55.1a128.814,128.814,0,0,0-61.489-8.367c-30.231,3.473-58.805,17.444-77.512,41.914a124.121,124.121,0,0,0-8.525,12.787c.553.316,1.105.631,1.737,1.026,11.524-20.444,37.572-29.047,59.674-26.837,13.024,1.342,25.653,5.762,37.335,11.445,16.339,7.972,30.153,18.786,44.676,29.521a389.249,389.249,0,0,1,32.2,25.969c27,24.706,50.517,53.28,68.593,85.09.631,1.105,2.368.079,1.737-1.026-25.022-44.045-60.147-81.7-101.035-111.454-12.708-9.235-24.706-18.944-38.6-26.443-12-6.473-24.943-11.84-38.44-14.208-17.05-3-34.889-.789-49.57,8.683-7.025,4.578-14.129,10.814-18.313,18.234-.631,1.105,1.105,2.131,1.737,1.026,16.813-29.205,45.623-47.518,78.617-52.885a125.273,125.273,0,0,1,58.411,4.578c29.837,9.63,55.411,29.363,76.8,51.859,19.339,20.286,35.836,43.334,50.044,67.409,4.894,8.209,9.472,16.655,13.813,25.18,1.421,2.763,2.763,5.525,4.1,8.288.553,1.184,1.105,3.552,2.052,4.5a3.848,3.848,0,0,1,.237.553c.079-.474.237-.868.316-1.342-8.525,5.289-16.971,10.577-25.5,15.866-3.71,2.289-7.42,5.131-11.366,7.025-2.763,1.342-7.735,1.973-11.208,2.842l1.184.71c-4.262-12.314-11.366-23.522-18.944-34.02a350.452,350.452,0,0,0-27.153-32.994q-11.958-13.024-24.627-25.338a131.5,131.5,0,0,0-12.55-11.366c-13.655-10.34-27.784-20.286-42.94-28.495-8.209-4.42-16.813-8.525-25.89-10.656-3.947-.947-8.367-1.658-12.393-.789-2.447.474-3.947,1.737-6.157,3.078-12.945,7.814-27.785,12.945-42.071,17.839-8.6,2.921-17.207,5.762-25.89,8.209-1.184.237-.631,2.131.632,1.737Z" transform="translate(-565.027 -181.01)"/>
          </g>
        </g>
        <g id="XMLID_1463_" transform="translate(15.693 251.995)">
          <g id="XMLID_120_">
            <path id="XMLID_124_" d="M581.091,506.922c14.129-4.341,30.31-6.078,44.834-3.315,8.446,1.579,18.313,5.289,23.6,12.471,3.947,5.367,7.1,11.524,10.1,17.365a180.51,180.51,0,0,1,13.5,34.573,126.509,126.509,0,0,1,3.947,21.707c.631,7.5.079,14.682-.553,22.1-.947,11.13-3.473,21.628-9.551,31.258a61.463,61.463,0,0,1-23.759,21.628c-4.5,2.368-9.472,4.42-14.208,6.394-14.682,6.315-31.731,7.5-46.65,1.263-16.181-6.709-26.127-20.6-36.072-34.336-9.63-13.261-18.313-27.548-24.311-42.861-6.078-15.55-10.814-36.388,2.21-49.886,11.919-12.393,25.417-24.39,40.651-32.442a59.055,59.055,0,0,1,16.26-5.92c1.263-.237.71-2.131-.553-1.894-12,2.21-22.812,9.077-32.363,16.339a192.145,192.145,0,0,0-20.838,18.313c-4.736,4.815-9.077,9-11.366,15.55-2.842,8.13-2.289,17.05-.474,25.338,3.947,18.391,13.655,35.52,24,51.07,3,4.5,6.157,8.841,9.393,13.1,5.92,7.893,11.445,15.55,19.339,21.628,15.313,11.761,34.81,14.76,53.2,9.551a85.681,85.681,0,0,0,12.866-5.131c3.631-1.736,7.341-3,10.893-4.894a62.725,62.725,0,0,0,33.152-51.149c.631-9,1.421-17.76.553-26.837-1.421-14.208-5.446-28.021-10.893-41.124a194.368,194.368,0,0,0-13.577-26.837c-3.315-5.446-6.788-9.472-12.55-12.787-16.813-9.63-38.914-7.657-57.069-3.236-1.342.316-2.763.71-4.1,1.105S579.828,507.317,581.091,506.922Z" transform="translate(-513.987 -500.261)"/>
          </g>
        </g>
        <g id="XMLID_1429_" transform="translate(0 254.99)">
          <g id="XMLID_114_">
            <path id="XMLID_118_" d="M582.033,504.091a192.442,192.442,0,0,0-45.466,15.629c-15.866,7.735-36.467,20.444-40.493,39.23-5.289,25.022.553,51.859,11.84,74.355,3.947,7.735,7.893,14.839,14.129,20.838a129.966,129.966,0,0,0,21.707,17.05c11.6,7.183,24.706,12.393,38.362,13.655,17.444,1.658,34.178-3.789,48.465-13.577,1.026-.71.079-2.447-1.026-1.737-12.945,8.841-27.863,14.129-43.65,13.5-12.471-.474-24.627-4.42-35.52-10.34-12.945-6.946-26.837-16.813-34.731-29.6-14.524-23.68-22.891-52.648-18.312-80.512,3-18.312,19.733-30.389,35.046-38.6a188.028,188.028,0,0,1,50.044-18.076.931.931,0,1,0-.395-1.815Z" transform="translate(-494.106 -504.055)"/>
          </g>
        </g>
        <g id="XMLID_1422_" transform="translate(5.594 283.11)">
          <g id="XMLID_108_">
            <path id="XMLID_112_" d="M517.222,539.854c-4.183,3.236-7.262,8.209-9.551,12.787-6.473,13.182-7.42,28.495-5.762,42.94,1.421,11.919,4.026,23.364,9.867,33.862a177.53,177.53,0,0,0,23.206,32.994c12.156,13.419,27.548,25.259,45.939,28.1,1.263.158,1.815-1.737.553-1.894-29.758-4.578-51.464-31.81-65.751-56.279-1.894-3.236-3.71-6.473-5.367-9.788-2.6-5.21-3.631-11.366-4.815-17.05-3.157-15.629-3.789-32.6,2.052-47.755a47.4,47.4,0,0,1,7.025-12.471,30,30,0,0,1,2.6-2.921c.158-.158,1.263-1.105.947-.868,1.1-.711.079-2.368-.947-1.658Z" transform="translate(-501.193 -539.68)"/>
          </g>
        </g>
        <g id="XMLID_1413_" transform="translate(182.954 177.033)">
          <g id="XMLID_102_">
            <path id="XMLID_106_" d="M726.055,730.5a76.446,76.446,0,0,0,21.391,20.444c13.261,8.525,31.652,12.945,46.729,6.473,7.262-3.078,14.129-7.972,20.523-12.393a221.521,221.521,0,0,0,38.6-33.783,199.225,199.225,0,0,0,19.339-25.18,169.219,169.219,0,0,0,8.525-14.682c2.21-4.341,3.868-9.077,6.236-13.261,2.368-4.262,5.289-8.209,7.735-12.55a239.107,239.107,0,0,0,26.837-82.406c6.473-46.886-1.184-94.562-19.575-138.054-2.763-6.551-5.762-13.024-9-19.339a.938.938,0,0,0-1.342-.316c-8.446,5.525-16.971,11.051-25.417,16.576-3.868,2.526-7.735,5.6-11.84,7.735-2.6,1.342-7.657,1.5-11.209,2.052-.71.079-.789.947-.553,1.421,6.394,14.129,11.84,28.732,16.813,43.413,8.446,24.864,16.655,51.938,15.866,78.46-.316,9.788-2.052,20.917-9.314,28.179-4.578,4.578-11.761,6-17.6,8.446-28.89,12.235-58.884,28.416-79.249,52.806-17.6,21-33.941,45.781-41.124,72.382a82.255,82.255,0,0,0-2.447,13.024c-.158,1.263,1.815,1.263,1.973,0,3.315-29.363,21.312-56.043,38.914-78.854,20.444-26.522,50.754-43.887,81.064-56.99,4.1-1.815,8.288-3.473,12.55-5.052a17.338,17.338,0,0,0,5.367-2.763c7.341-5.92,10.182-15.392,11.287-24.39,1.421-12.314-.079-24.943-2.289-37.1a339.539,339.539,0,0,0-10.34-40.335c-3.631-11.366-7.657-22.654-12.077-33.783-1.5-3.868-3.078-7.657-4.657-11.524-.789-1.894-1.421-4.578-2.684-6.157-.158-.237-.237-.631-.395-.868-.158.474-.395.947-.553,1.421,3.552-.553,8.051-.474,11.287-1.973,4.026-1.815,7.893-5.131,11.6-7.578,8.683-5.683,17.365-11.287,26.048-16.971-.474-.079-.868-.237-1.342-.316,22.022,43.808,33.7,92.589,29.916,141.685A240.181,240.181,0,0,1,897.1,637.52a156.208,156.208,0,0,1-10.34,18c-1.973,2.921-3.078,6.157-4.578,9.314a180.975,180.975,0,0,1-16.892,28.416,209.832,209.832,0,0,1-68.119,60.3c-24.232,13.261-52.885-2.684-67.961-22.417-.474-.631-.868-1.184-1.342-1.815C727.082,728.451,725.345,729.477,726.055,730.5Z" transform="translate(-725.888 -405.292)"/>
          </g>
        </g>
        <g id="XMLID_1406_" transform="translate(241.296 405.66)">
          <path id="XMLID_100_" d="M841.63,791.369s-39.861,41.6-40.729,10.656c0,0,5.683-43.571,41.6-69.619,0,0,51.07-43.966,61.963-34.652,0,0,3.868,10.34-19.733,42.15C884.727,739.826,869.256,770.452,841.63,791.369Z" transform="translate(-800.033 -695.258)"/>
          <g id="XMLID_95_">
            <path id="XMLID_99_" d="M840.688,790.417c-5.446,5.683-33.31,32.994-38.283,16.734-1.894-6.157.789-13.577,2.842-19.97a111.823,111.823,0,0,1,21.47-39.309c6.473-7.578,14.445-13.655,22.18-19.891a306.687,306.687,0,0,1,27.784-20.444,104.415,104.415,0,0,1,14.524-8.051c2.6-1.105,9-3.947,11.761-1.737,2.6,2.052-1.658,11.761-2.763,14.366-3.789,8.762-9.077,16.813-14.682,24.469-2.289,3.157-4.026,6.551-6,9.788C869.341,763.027,856.474,778.34,841,790.259c-1.026.789,0,2.447,1.026,1.737,14.761-11.287,27.074-25.574,37.178-41.2,2.21-3.394,4.026-7.025,6.157-10.5,4.736-7.656,10.34-14.6,14.445-22.654,2.289-4.578,4.5-9.472,5.367-14.524.237-1.579.868-4.1.158-5.683-2.842-6.157-16.1.789-19.575,2.6-11.445,5.92-21.943,13.813-32.126,21.707-7.578,5.92-15.629,11.919-22.5,18.628-11.84,11.524-20.523,26.048-26.127,41.519-2.447,6.788-6,15.313-5.052,22.733,2.921,24.075,33.547-4.026,40.651-11.13l1.579-1.579C842.977,790.891,841.556,789.47,840.688,790.417Z" transform="translate(-799.801 -694.938)" fill="#1d1d1b"/>
          </g>
        </g>
        <g id="XMLID_1378_" transform="translate(334.3 186.403)">
          <g id="XMLID_89_">
            <path id="XMLID_93_" d="M917.764,418.613c8.6,15.55,15.155,32.521,20.68,49.412,11.6,35.2,18.155,72.855,14.05,109.954a161.975,161.975,0,0,1-23.049,67.883c-.71,1.105,1.026,2.052,1.737,1.026,22.18-35.6,27.706-78.144,22.891-119.189-3.789-31.731-13.024-62.91-25.89-92.115-2.684-6-5.446-12.077-8.6-17.839a1.006,1.006,0,1,0-1.815.868Z" transform="translate(-917.628 -417.163)"/>
          </g>
        </g>
        <path id="Path_1195" data-name="Path 1195" d="M659.585,595.374c2.052,21.233-17.6,46.728-38.914,48.781-21.233,2.052-40.966-21.391-43.019-42.624s13.892-44.518,35.125-46.571C634.09,552.829,657.533,574.062,659.585,595.374Z" transform="translate(-511.669 -259.758)" stroke="#1d1d1b" stroke-miterlimit="10" stroke-width="0.5"/>
      </g>
      <g id="Group_1824" data-name="Group 1824" transform="translate(399.121 38.53)">
        <path id="Path_1196" data-name="Path 1196" d="M1233.935,472.5c-.079,1.026-.237,2.052-.395,3.078.316,8.367-.868,16.655-2.052,25.022,26.443,10.893,43.571,28.416,43.571,48.228,0,32.994-47.755,59.831-106.639,59.831s-106.639-26.758-106.639-59.831c0-18.786,15.392-35.52,39.467-46.413-1.026-9.551-1.737-19.1-2.6-28.653-48.228,14.129-81.143,42.466-81.143,75.065,0,46.729,67.567,84.616,150.92,84.616s150.92-37.888,150.92-84.616C1319.341,515.2,1284.452,486.234,1233.935,472.5Z" transform="translate(-1003.489 -280.947)" stroke="#1d1d1b" stroke-miterlimit="10" stroke-width="0.5"/>
        <g id="Group_1822" data-name="Group 1822" transform="translate(2.437 127.833)">
          <g id="XMLID_1602_" transform="translate(1.137)">
            <g id="XMLID_83_">
              <path id="XMLID_87_" d="M1230.676,445.075c3-3.789,7.42-6.63,11.288-9.393,6.788-4.894,13.892-9.393,21-13.813,15.471-9.472,31.573-18.707,48.7-24.785,4.973-1.737,11.682-4.341,17.128-3,2.052.553,2.368.631,1.894,2.526a42.518,42.518,0,0,1-3.078,7.341c-7.5,15.471-16.655,30.231-25.417,44.992-8.209,13.734-15.55,28.021-24.469,41.361-3.473,5.131-7.341,10.1-12.629,13.419-5.446,3.394-11.84,4.973-18.076,6.315-10.893,2.447-22.022,4.894-33.073,6.315-15,1.815-30.152.71-45.229.947-12.472.158-25.1.947-36.467,6.473-9.077,4.341-17.128,10.656-27.627,10.893-23.838.553-40.808-19.418-53.122-37.335-12.471-18.076-22.338-38.046-35.994-55.253a84.741,84.741,0,0,0-9.551-10.34l-.71,1.658c4.815.631,9.551,2.526,14.129,4.1,7.262,2.447,14.524,4.894,21.865,7.262a228.562,228.562,0,0,0,24,6.394c6.157,1.184,12.708,2.21,18.944,1.342,4.736-.71,9.235-2.842,10.577-7.814a.987.987,0,0,0-1.894-.553c-3,11.13-23.048,6-30.547,4.341-14.445-3.236-28.337-8.209-42.387-12.866-4.736-1.579-9.63-3.473-14.682-4.183a1,1,0,0,0-.71,1.658c16.734,15.155,27,36.941,38.993,55.806,10.972,17.286,24.311,37.414,44.518,44.755,10.735,3.868,21.628,3.947,31.889-1.105,4.5-2.21,8.683-4.894,13.182-7.1a60.147,60.147,0,0,1,19.5-5.289c16.1-1.815,32.363-.474,48.544-.947,12.866-.395,25.259-3.078,37.809-5.525,13.419-2.6,26.758-5.21,35.836-16.339,10.419-12.708,17.365-28.179,25.811-42.15,9.314-15.55,18.786-31.021,27.074-47.2a82.174,82.174,0,0,0,3.947-8.446c.552-1.263,1.658-3.473,1.184-4.973-1.105-3.552-7.656-2.842-10.34-2.447-7.262,1.026-14.287,3.947-20.917,6.788-8.92,3.868-17.6,8.446-26.127,13.182-14.524,8.13-29.284,16.813-42.15,27.548a27.658,27.658,0,0,0-4.1,3.947c-.631,1.1.71,2.526,1.5,1.5Z" transform="translate(-1004.277 -391.775)"/>
            </g>
          </g>
          <g id="XMLID_1595_" transform="translate(168.441 114.756)">
            <g id="XMLID_77_">
              <path id="XMLID_81_" d="M1219.364,537.665c-8.13,6,1.105,22.338,10.261,17.365,2.368-1.342,3.315-5.131,3.868-7.578.474-2.131.71-4.578-.474-6.63-2.6-4.657-9.788-3.789-14.129-3.157-1.263.158-.71,2.052.552,1.894,3.315-.474,9-1.421,11.445,1.658,2.21,2.763.395,9-1.579,11.366-4.973,6-16.1-7.972-9-13.261,1.026-.71.079-2.368-.947-1.658Z" transform="translate(-1216.233 -537.158)"/>
            </g>
          </g>
          <g id="XMLID_1588_" transform="translate(165.447 131.533)">
            <path id="XMLID_75_" d="M1221.04,559.6c-.868,11.84-19.339,114.532,7.656,104.192,16.971-6.473,4.026-88.958-.158-101.745" transform="translate(-1212.783 -558.662)"/>
            <g id="XMLID_70_">
              <path id="XMLID_74_" d="M1219.67,559.35c-1.026,12.945-3.552,25.89-4.894,38.835-1.816,17.05-3.789,35.2-.789,52.254.789,4.578,2.21,10.577,6.315,13.419a8.973,8.973,0,0,0,11.208-1.263c4.262-4.262,5.131-11.6,5.683-17.207a169.987,169.987,0,0,0,.079-29.047c-.71-11.13-2.052-22.259-3.789-33.31-1.105-7.183-2.131-14.6-4.341-21.47-.395-1.184-2.289-.71-1.894.553,4.42,13.813,5.762,29.205,7.183,43.492a249.3,249.3,0,0,1,1.421,28.732c-.079,7.42-.316,15.471-3.078,22.417-1.579,4.1-5.6,8.288-10.419,6.078-4.341-1.973-5.6-8.446-6.394-12.629-2.92-15.945-1.105-32.994.552-48.939,1.421-13.971,4.1-27.863,5.21-41.835.079-1.342-1.894-1.342-2.052-.079Z" transform="translate(-1212.44 -558.412)" fill="#1d1d1b"/>
            </g>
          </g>
          <g id="XMLID_1581_" transform="translate(171.361 234.304)">
            <g id="XMLID_64_">
              <path id="XMLID_68_" d="M1232.3,689.55c-.237,36.941,6.552,73.645,3.078,110.586.631-.079,1.263-.158,1.973-.237-7.183-35.836-4.973-73.329-15.471-108.612-.395-1.184-2.289-.71-1.895.552,10.5,35.283,8.288,72.7,15.471,108.612.237,1.184,1.815.789,1.973-.237,3.473-36.941-3.315-73.645-3.078-110.586-.079-1.342-2.052-1.342-2.052-.079Z" transform="translate(-1219.932 -688.612)"/>
            </g>
          </g>
          <g id="XMLID_1560_" transform="translate(0.839 130.811)">
            <g id="XMLID_58_">
              <path id="XMLID_62_" d="M1099.172,572.1a714.91,714.91,0,0,1-94.957,89.826c-.631.474-.237,1.421.474,1.658,23.127,6.867,47.123,3.868,70.8,5.762,12.629.947,25.1,3.71,36.23,9.946a45.172,45.172,0,0,1,16.1,15c8.919,13.34,15.234,28.337,22.812,42.466,6.157,11.524,13.656,25.89,25.811,32.2,8.6,4.5,20.128,2.526,28.416-1.973,8.13-4.42,14.05-11.919,18.549-19.891,10.34-18.47,14.524-39.7,25.338-58.016,4.894-8.288,11.524-15.945,20.681-19.654,11.445-4.657,24.39-2.6,35.757.947a123.5,123.5,0,0,1,12.708,4.815c.632.316,1.816-.237,1.421-1.105-15.234-36.7-47.755-60.463-74.039-88.721a183.861,183.861,0,0,1-21.391-27.39c-.631-1.105-2.368-.079-1.736,1.026,20.523,32.994,53.6,55.016,77.276,85.406a134.84,134.84,0,0,1,18,30.231c.474-.395.947-.71,1.421-1.105-20.917-9.077-46.886-14.839-64.252,4.026-14.129,15.313-19.023,37.256-26.916,55.964-7.814,18.391-20.128,37.02-42.624,35.757-13.813-.71-22.891-16.418-29.047-27-8.209-14.208-14.682-29.363-23.048-43.571-3.157-5.367-6.709-10.893-11.366-15.155-7.42-6.709-17.6-10.893-27.232-13.34-22.891-5.841-46.807-2.289-70.093-4.815a112.973,112.973,0,0,1-19.181-3.789l.474,1.658a704.822,704.822,0,0,0,94.957-89.826c.868-.947-.553-2.289-1.342-1.342Z" transform="translate(-1003.899 -557.499)"/>
            </g>
          </g>
          <g id="XMLID_1553_" transform="translate(246.274 125.94)">
            <path id="XMLID_56_" d="M1323.565,555.7c-.868,32.678,12.077,64.252,5.368,97.325-15.944-.316-16.26-93.536-3.868-100.324" transform="translate(-1315.15 -551.617)"/>
            <g id="XMLID_51_">
              <path id="XMLID_55_" d="M1322.228,555.41c-.395,22.1,5.131,43.65,6.867,65.594a150.069,150.069,0,0,1,.395,15.787,80.465,80.465,0,0,1-.71,8.683c-.158,1.263-.237,4.262-.868,5.525-.316.553,1.026.631-.079.631-2.526-.079-4.42-4.894-5.131-6.709-3.789-9.472-4.657-20.286-5.288-30.389a230.376,230.376,0,0,1,.474-36.151,97.3,97.3,0,0,1,2.763-16.5c.789-2.842,1.816-7.025,4.578-8.683,1.105-.631.079-2.368-1.026-1.737-3.947,2.289-5.209,8.446-6.078,12.471-1.894,8.13-2.526,16.655-2.921,24.943-.789,17.523-.71,36.7,4.578,53.6,1.263,4.1,3.552,10.893,8.84,11.13a1.02,1.02,0,0,0,.947-.71c6.394-32.757-5.92-64.8-5.288-97.561a1.033,1.033,0,0,0-2.052.079Z" transform="translate(-1314.839 -551.328)" fill="#1d1d1b"/>
            </g>
          </g>
          <g id="XMLID_1546_" transform="translate(296.931 2.786)">
            <path id="XMLID_49_" d="M1412.527,404.041c-4.578,40.73-30.231,135.923-14.839,236.484-51.7-47.123,30.863-225.433,12.55-243.825" transform="translate(-1379.309 -395.598)"/>
            <g id="XMLID_44_">
              <path id="XMLID_48_" d="M1411.208,403.747c-2.763,23.917-7.972,47.6-11.6,71.356-5.052,33.389-8.288,67.093-8.13,100.8a440.131,440.131,0,0,0,4.894,64.488l1.658-.947c-11.524-10.656-15.392-26.758-16.576-41.835-1.5-19.5.947-39.23,4.262-58.411,6.552-38.046,18.47-74.908,25.574-112.875,1.184-6.473,2.368-13.1,2.289-19.733,0-3.71-.316-8.13-3-10.972-.868-.947-2.289.474-1.421,1.421,2.447,2.6,2.447,7.025,2.368,10.34a103.885,103.885,0,0,1-2.131,17.839c-3.157,17.286-7.814,34.336-12,51.386-5.052,20.286-9.946,40.651-13.5,61.252-3.315,18.944-5.762,38.362-4.578,57.621,1.026,16.26,4.894,33.862,17.286,45.387a.994.994,0,0,0,1.658-.947c-10.182-67.8-2.052-135.686,9.63-202.7,1.973-11.13,4.025-22.259,5.288-33.547.158-1.184-1.815-1.184-1.973.079Z" transform="translate(-1379.016 -395.304)" fill="#1d1d1b"/>
            </g>
          </g>
          <g id="XMLID_1539_" transform="translate(0 36.69)">
            <path id="XMLID_42_" d="M1004.8,445.478c2.921,33.626,22.259,112.48,6.946,195.044,44.834-37.967-20.523-186.361-4.815-201.122" transform="translate(-1003.174 -438.498)"/>
            <g id="XMLID_37_">
              <path id="XMLID_41_" d="M1003.518,445.237c1.736,19.181,5.446,38.2,7.893,57.306,3.473,27.469,5.525,55.253,4.736,82.959a371.393,371.393,0,0,1-5.6,54.543.994.994,0,0,0,1.658.947c9.393-8.13,13.5-20.286,15.155-32.2,2.131-15.313.947-31.021-1.026-46.255-4.183-31.968-13.1-62.91-18.944-94.562a116.7,116.7,0,0,1-2.289-18.076c-.079-3.078-.237-7.578,2.21-9.946.868-.868-.474-2.289-1.421-1.421-4.815,4.736-2.684,15.155-1.894,20.917,1.894,13.655,5.21,27.153,8.209,40.572,7.262,32.363,15.865,66.146,13.971,99.535-.789,14.366-4.1,30.153-15.471,40.019l1.658.947c10.1-55.174,5.209-110.9-3-165.918-1.421-9.788-3.078-19.5-3.947-29.363-.079-1.263-2.052-1.263-1.894,0Z" transform="translate(-1002.836 -438.257)" fill="#1d1d1b"/>
            </g>
          </g>
        </g>
        <g id="Group_1823" data-name="Group 1823" transform="translate(91.837)">
          <g id="XMLID_1623_" transform="translate(0.239)">
            <g id="XMLID_31_">
              <path id="XMLID_35_" d="M1117.426,360.913c3.868,9.077,11.84,14.761,20.76,18.47,11.445,4.736,24.311,6.946,36.467,8.762a89.638,89.638,0,0,0,40.887-2.921c6.552-2.052,12.945-4.657,19.26-7.341,5.21-2.21,10.656-4.262,15.155-7.893,4.341-3.552,5.683-6.63,6-11.919a159.417,159.417,0,0,0-.474-18.391c-1.184-16.339-3.236-32.678-5.762-48.939-1.816-11.682-3-24.39-7.025-35.678-4.341-12.156-18.865-17.918-30.231-21.154-15.866-4.42-33.389-5.446-49.57-2.131-10.5,2.21-23.206,6.788-27.153,17.76-5.052,13.971-7.893,29.047-10.814,43.65-3.631,18-6.867,36.23-8.13,54.543-.237,3.552-.395,7.183-.395,10.735a.987.987,0,0,0,1.973,0c-.158-16.1,2.6-32.363,5.368-48.149,2.842-16.339,6.157-32.757,10.5-48.781,1.184-4.578,2.289-9.472,4.341-13.734,2.131-4.578,7.262-7.735,11.682-9.867,13.971-6.709,31.1-7.025,46.176-5.21,13.655,1.658,30.231,5.525,40.019,16.023,6.63,7.1,7.341,18.865,8.92,27.942q4.026,23.088,6.552,46.413c1.263,11.919,3.157,24.627,1.815,36.7-.789,7.657-8.762,11.366-15.076,14.129-12.472,5.446-25.417,10.972-39.072,12.787-14.208,1.894-28.574-.947-42.387-3.947-10.025-2.131-20.6-4.894-28.89-11.209a28.752,28.752,0,0,1-9.235-11.761c-.395-1.105-2.131-.079-1.658,1.105Z" transform="translate(-1116.4 -229.823)" fill="#1d1d1b"/>
            </g>
          </g>
          <g id="XMLID_1616_" transform="translate(0 131.241)">
            <path id="XMLID_29_" d="M1117.4,399.1c.631,12.393,1.263,24.706,1.894,37.1.237,3.947.474,8.051,2.368,11.524,2.368,4.262,6.946,6.709,11.366,8.841a153.609,153.609,0,0,0,61.8,14.287c20.365.316,42.861-4.736,54.464-21.391,9.867-14.208,9.314-33.073,6.63-50.2-32.2,22.1-75.144,27.627-111.927,14.524-9.551-3.394-19.023-8.288-25.338-16.181" transform="translate(-1116.372 -396.409)"/>
            <g id="XMLID_24_">
              <path id="XMLID_28_" d="M1116.1,398.782c.474,10.025,1.026,20.049,1.5,30.074.395,7.183-.395,15.866,4.815,21.628,5.131,5.762,13.734,8.525,20.76,11.13a154.341,154.341,0,0,0,26.6,7.341c26.443,4.815,63.541,5.21,80.512-19.97,9.946-14.76,9-33.7,6.394-50.438a.911.911,0,0,0-1.421-.553,125.587,125.587,0,0,1-68.356,21.391,122.7,122.7,0,0,1-35.52-4.657c-11.919-3.394-24.075-8.446-32.126-18.312-.789-.947-2.21.395-1.421,1.421,7.735,9.393,19.181,14.524,30.547,18.076a123.776,123.776,0,0,0,37.256,5.446,126.935,126.935,0,0,0,70.566-21.707c-.474-.158-.947-.395-1.421-.553,2.289,14.682,3.315,30.942-3.631,44.6-6.315,12.471-18.549,19.733-31.731,23.127-14.05,3.631-29.047,3.236-43.334,1.184-15.708-2.21-32.126-6.63-46.1-14.287-4.5-2.447-8.051-5.683-9.235-10.814-1.105-4.736-.947-9.867-1.184-14.682-.474-9.788-.947-19.575-1.5-29.363-.079-1.342-2.052-1.342-1.973-.079Z" transform="translate(-1116.097 -396.091)" fill="#1d1d1b"/>
            </g>
          </g>
          <g id="XMLID_1609_" transform="translate(2.975 173.901)">
            <g id="XMLID_18_">
              <path id="XMLID_22_" d="M1121.866,458.711c-.158,12.235,1.657,24.548,3.236,36.625,2.368,18.234,5.21,36.467,8.13,54.622q8.288,51.149,17.918,102.14l2.368,12.314c.631,3.157,1.263,6.394,3,9.156,3.078,4.973,9.235,7.972,14.366,10.182a63.607,63.607,0,0,0,37.1,4.026,57.749,57.749,0,0,0,18.155-6.63c4.973-2.842,7.578-6.236,8.367-11.919,5.131-35.678,8.84-71.671,12.55-107.586,2.131-20.444,4.1-40.966,5.6-61.489,1.026-14.445,2.21-29.047,1.421-43.492-.079-1.973-.316-3.868-.552-5.841-.158-.947-1.342-.789-1.816-.237-13.34,17.444-35.2,25.732-56.6,26.758-25.5,1.263-50.359-7.1-74.039-15.55-1.184-.395-1.736,1.5-.552,1.894,24.943,8.919,51.228,17.681,78.065,15.392,21-1.815,41.677-10.5,54.7-27.548-.632-.079-1.184-.158-1.816-.237,1.816,11.6.631,23.917-.079,35.6-1.026,18.786-2.763,37.493-4.578,56.2-3.631,37.335-8.051,74.592-12.629,111.769-.395,3-.789,6.078-1.105,9.077-.789,6.078-1.263,11.208-7.025,14.839-12,7.42-27.232,9.63-40.966,7.183a59.233,59.233,0,0,1-18.865-6.709c-6-3.394-9.235-7.341-10.656-14.129-.71-3.394-1.342-6.709-1.973-10.1-6-31.415-11.524-62.91-16.813-94.4-3-18.234-5.92-36.546-8.446-54.859-1.894-13.5-3.789-27.153-4.5-40.808-.079-2.131-.158-4.183-.158-6.315.237-1.184-1.737-1.184-1.815.079Z" transform="translate(-1119.866 -450.137)" fill="#1d1d1b"/>
            </g>
          </g>
          <path id="Path_1197" data-name="Path 1197" d="M1183.3,744.3l4.973,47.676s24.154,12.077,36.388,1.579c0,0,5.367-47.044,5.762-47.2S1198.376,760.481,1183.3,744.3Z" transform="translate(-1130.255 -338.207)" stroke="#1d1d1b" stroke-miterlimit="10" stroke-width="0.5"/>
          <path id="XMLID_14_" d="M1124.168,366.32c-1.421-2.842,10.34-61.331,14.839-83.432a6.2,6.2,0,0,1,8.841-4.262c4.42,2.289,29.442,6.788,70.408,4.578-1.736,19.023-26.364,14.918-27,18,0,0,2.921,59.279,9.472,85.406-30.705,9.63-71.671-13.024-74.829-17.444A13.527,13.527,0,0,1,1124.168,366.32Z" transform="translate(-1117.772 -239.966)" fill="none" stroke="#1d1d1b" stroke-miterlimit="10" stroke-width="0.5"/>
          <path id="Path_1198" data-name="Path 1198" d="M1170.4,250.8l34.967-5.6-14.287,10.419,36.783-3.947" transform="translate(-1127.537 -233.063)" fill="none" stroke="#1d1d1b" stroke-miterlimit="10" stroke-width="0.5"/>
        </g>
        <path id="Path_1199" data-name="Path 1199" d="M1158.287,791.324s21.786,60.621-29.126,61.252c-50.912.552-65.988-58.884-120.452.316,0,0-21.075,20.207,1.421,14.918s31.731-30.863,53.043-17.286,104.587,40.256,116.269-9.709c9.393-40.1-1.579-62.515-1.579-62.515Z" transform="translate(-999.749 -345.37)" stroke="#1d1d1b" stroke-miterlimit="10" stroke-width="0.5"/>
        <g id="XMLID_188_" transform="translate(112.678 205.603)">
          <line id="XMLID_182_" x2="12.55" y2="3.078" fill="none" stroke="#1d1d1b" stroke-miterlimit="10" stroke-width="0.5"/>
          <line id="XMLID_183_" x2="15.234" y2="3.078" transform="translate(0 7.104)" fill="none" stroke="#1d1d1b" stroke-miterlimit="10" stroke-width="0.5"/>
          <line id="XMLID_184_" x2="13.892" y2="2.21" transform="translate(1.342 14.287)" fill="none" stroke="#1d1d1b" stroke-miterlimit="10" stroke-width="0.5"/>
          <line id="XMLID_185_" x2="8.841" transform="translate(1.342 22.101)" fill="none" stroke="#1d1d1b" stroke-miterlimit="10" stroke-width="0.5"/>
          <line id="XMLID_186_" x2="17.129" y2="1.026" transform="translate(5.762 30.705)" fill="none" stroke="#1d1d1b" stroke-miterlimit="10" stroke-width="0.5"/>
          <line id="XMLID_187_" x2="8.604" y2="0.079" transform="translate(5.762 38.125)" fill="none" stroke="#1d1d1b" stroke-miterlimit="10" stroke-width="0.5"/>
          <line id="XMLID_189_" x2="6.157" y2="1.421" transform="translate(8.209 46.492)" fill="none" stroke="#1d1d1b" stroke-miterlimit="10" stroke-width="0.5"/>
        </g>
      </g>
      <g id="Group_1825" data-name="Group 1825" transform="translate(282.813 4.965)">
        <line id="Line_1" data-name="Line 1" x1="7.972" y2="83.275" transform="translate(46.413 29.916)" fill="none" stroke="#000" stroke-miterlimit="10" stroke-width="2"/>
        <line id="Line_2" data-name="Line 2" x1="8.446" y2="124.241" transform="translate(72.776 17.918)" fill="none" stroke="#000" stroke-miterlimit="10" stroke-width="2"/>
        <line id="Line_3" data-name="Line 3" x1="9.156" y2="141.212" transform="translate(58.963 4.815)" fill="none" stroke="#000" stroke-miterlimit="10" stroke-width="2"/>
        <line id="Line_4" data-name="Line 4" x1="9.156" y2="141.212" transform="translate(87.379 4.815)" fill="none" stroke="#000" stroke-miterlimit="10" stroke-width="2"/>
        <line id="Line_5" data-name="Line 5" x1="7.972" y2="83.354" transform="translate(101.113 36.467)" fill="none" stroke="#000" stroke-miterlimit="10" stroke-width="2"/>
        <line id="Line_6" data-name="Line 6" x1="6.078" y2="70.251" transform="translate(128.661 47.597)" fill="none" stroke="#000" stroke-miterlimit="10" stroke-width="2"/>
        <line id="Line_7" data-name="Line 7" x1="9.156" y2="104.587" transform="translate(113.664 21.786)" fill="none" stroke="#000" stroke-miterlimit="10" stroke-width="2"/>
        <line id="Line_8" data-name="Line 8" x1="9.156" y2="141.212" transform="translate(142.159 11.366)" fill="none" stroke="#000" stroke-miterlimit="10" stroke-width="2"/>
        <line id="Line_9" data-name="Line 9" x1="8.051" y2="83.354" transform="translate(155.814 43.019)" fill="none" stroke="#000" stroke-miterlimit="10" stroke-width="2"/>
        <line id="Line_10" data-name="Line 10" x1="8.367" y2="124.241" transform="translate(182.257 31.021)" fill="none" stroke="#000" stroke-miterlimit="10" stroke-width="2"/>
        <line id="Line_11" data-name="Line 11" x1="9.156" y2="141.212" transform="translate(168.365 17.918)" fill="none" stroke="#000" stroke-miterlimit="10" stroke-width="2"/>
        <line id="Line_12" data-name="Line 12" x1="9.156" y2="141.212" transform="translate(196.86 17.918)" fill="none" stroke="#000" stroke-miterlimit="10" stroke-width="2"/>
        <line id="Line_13" data-name="Line 13" x1="4.499" y2="39.94" transform="translate(0 14.918)" fill="none" stroke="#000" stroke-miterlimit="10" stroke-width="2"/>
        <line id="Line_14" data-name="Line 14" x1="7.972" y2="84.064" transform="translate(24.864 9.788)" fill="none" stroke="#000" stroke-miterlimit="10" stroke-width="2"/>
        <line id="Line_15" data-name="Line 15" x1="3.236" y2="67.33" transform="translate(13.892 1.894)" fill="none" stroke="#000" stroke-miterlimit="10" stroke-width="2"/>
        <line id="Line_16" data-name="Line 16" x1="8.762" y2="95.43" transform="translate(39.467)" fill="none" stroke="#000" stroke-miterlimit="10" stroke-width="2"/>
      </g>
      <g id="XMLID_190_" transform="translate(316.912 216.585)">
        <line id="XMLID_197_" x2="12.866" y2="0.789" fill="none" stroke="#1d1d1b" stroke-miterlimit="10" stroke-width="0.5"/>
        <line id="XMLID_196_" x2="15.55" y2="0.316" transform="translate(1.263 6.946)" fill="none" stroke="#1d1d1b" stroke-miterlimit="10" stroke-width="0.5"/>
        <line id="XMLID_195_" y1="0.316" x2="14.05" transform="translate(3.868 13.498)" fill="none" stroke="#1d1d1b" stroke-miterlimit="10" stroke-width="0.5"/>
        <line id="XMLID_194_" y1="1.579" x2="8.762" transform="translate(5.289 19.891)" fill="none" stroke="#1d1d1b" stroke-miterlimit="10" stroke-width="0.5"/>
        <line id="XMLID_193_" y1="2.052" x2="17.05" transform="translate(11.209 27.153)" fill="none" stroke="#1d1d1b" stroke-miterlimit="10" stroke-width="0.5"/>
        <line id="XMLID_192_" y1="1.421" x2="8.446" transform="translate(12.471 34.967)" fill="none" stroke="#1d1d1b" stroke-miterlimit="10" stroke-width="0.5"/>
        <line id="XMLID_191_" x2="6.315" y2="0.316" transform="translate(16.339 44.282)" fill="none" stroke="#1d1d1b" stroke-miterlimit="10" stroke-width="0.5"/>
      </g>
    </g>
    <path id="XMLID_1_" d="M619.668,442.078s-38.914.789-44.755-80.433c-5.762-81.222,13.419-92.668,15-93.22s17.523-7.025,17.523-7.025S566.23,304.655,619.668,442.078Z" transform="translate(-16.797 -16.936)" stroke="#1d1d1b" stroke-miterlimit="10" stroke-width="0.5"/>
    <path id="XMLID_2_" d="M895.952,640.3s-4.973,10.261,8.525,21.865c-28.337-.158-52.727,14.761-80.591,32.442-6.709,4.262-3.552-11.682,1.894-17.444C835.8,666.506,856.012,653.561,895.952,640.3Z" transform="translate(-68.673 -96.757)" stroke="#1d1d1b" stroke-miterlimit="10" stroke-width="0.5"/>
    <line id="XMLID_3_" x1="30.468" y1="28.021" transform="translate(564.036 380.782)" fill="none" stroke="#fff" stroke-miterlimit="10" stroke-width="1"/>
    <line id="XMLID_4_" x1="33.152" y1="32.284" transform="translate(559.3 356.234)" fill="none" stroke="#fff" stroke-miterlimit="10" stroke-width="1"/>
    <line id="XMLID_5_" x1="25.18" y1="24.311" transform="translate(557.09 334.764)" fill="none" stroke="#fff" stroke-miterlimit="10" stroke-width="1"/>
    <line id="XMLID_6_" x1="22.18" y1="18.944" transform="translate(557.09 319.372)" fill="none" stroke="#fff" stroke-miterlimit="10" stroke-width="1"/>
    <line id="XMLID_7_" x1="20.286" y1="22.891" transform="translate(557.642 299.165)" fill="none" stroke="#fff" stroke-miterlimit="10" stroke-width="1"/>
    <line id="XMLID_8_" x1="16.576" y1="20.128" transform="translate(559.3 283.694)" fill="none" stroke="#fff" stroke-miterlimit="10" stroke-width="1"/>
    <line id="XMLID_9_" x1="13.734" y1="17.997" transform="translate(562.615 268.697)" fill="none" stroke="#fff" stroke-miterlimit="10" stroke-width="1"/>
    <line id="XMLID_10_" x1="11.682" y1="12.945" transform="translate(567.588 264.119)" fill="none" stroke="#fff" stroke-miterlimit="10" stroke-width="1"/>
    <line id="XMLID_11_" x1="10.261" y1="13.498" transform="translate(569.719 255.199)" fill="none" stroke="#fff" stroke-miterlimit="10" stroke-width="1"/>
    <line id="XMLID_12_" x1="4.341" y1="9.551" transform="translate(577.928 249.832)" fill="none" stroke="#fff" stroke-miterlimit="10" stroke-width="1"/>
    <line id="XMLID_13_" x1="2.605" y1="5.92" transform="translate(582.27 247.859)" fill="none" stroke="#fff" stroke-miterlimit="10" stroke-width="1"/>
    <line id="XMLID_15_" y1="4.578" x2="9.867" transform="translate(1007.483 264.119)" fill="none" stroke="#1d1d1b" stroke-miterlimit="10" stroke-width="0.5"/>
    <line id="XMLID_16_" y1="11.682" x2="32.205" transform="translate(1005.904 266.013)" fill="none" stroke="#1d1d1b" stroke-miterlimit="10" stroke-width="0.5"/>
    <line id="XMLID_174_" y1="17.997" x2="55.253" transform="translate(1005.904 268.697)" fill="none" stroke="#1d1d1b" stroke-miterlimit="10" stroke-width="0.5"/>
    <line id="XMLID_175_" y1="13.892" x2="49.728" transform="translate(1001.405 293.719)" fill="none" stroke="#1d1d1b" stroke-miterlimit="10" stroke-width="0.5"/>
    <line id="XMLID_176_" y1="13.34" x2="45.387" transform="translate(1005.904 283.694)" fill="none" stroke="#1d1d1b" stroke-miterlimit="10" stroke-width="0.5"/>
    <line id="XMLID_177_" y1="13.577" x2="55.806" transform="translate(998.406 305.796)" fill="none" stroke="#1d1d1b" stroke-miterlimit="10" stroke-width="0.5"/>
    <line id="XMLID_178_" y1="13.971" x2="57.779" transform="translate(998.406 319.372)" fill="none" stroke="#1d1d1b" stroke-miterlimit="10" stroke-width="0.5"/>
    <line id="XMLID_179_" y1="9.867" x2="59.752" transform="translate(998.406 334.764)" fill="none" stroke="#1d1d1b" stroke-miterlimit="10" stroke-width="0.5"/>
    <line id="XMLID_180_" y1="5.92" x2="43.808" transform="translate(1017.35 348.735)" fill="none" stroke="#1d1d1b" stroke-miterlimit="10" stroke-width="0.5"/>
    <line id="XMLID_181_" y1="2.763" x2="24.233" transform="translate(1038.109 360.97)" fill="none" stroke="#1d1d1b" stroke-miterlimit="10" stroke-width="0.5"/>
  </g>
</svg>
