<svg xmlns="http://www.w3.org/2000/svg" width="14.256" height="37.24" viewBox="0 0 14.256 37.24">
  <g id="cof" transform="translate(-2.4 -2.2)">
    <path id="Path_3" data-name="Path 3" d="M5.324,9.008a4.143,4.143,0,0,1,4.2-4.021,4.143,4.143,0,0,1,4.2,4.021V32.632a4.143,4.143,0,0,1-4.2,4.021,4.143,4.143,0,0,1-4.2-4.021ZM2.4,32.632A6.987,6.987,0,0,0,9.528,39.44a6.987,6.987,0,0,0,7.128-6.808V9.008A6.987,6.987,0,0,0,9.528,2.2,6.987,6.987,0,0,0,2.4,9.008Z" transform="translate(0)" fill="#fdc000"/>
    <path id="Path_4" data-name="Path 4" d="M29.9,32.4h.046a1.083,1.083,0,0,1,1.1,1.1V55.041a1.083,1.083,0,0,1-1.1,1.1H29.9a1.083,1.083,0,0,1-1.1-1.1V33.5A1.083,1.083,0,0,1,29.9,32.4Z" transform="translate(-20.368 -23.3)" fill="#fdc000" fill-rule="evenodd"/>
  </g>
</svg>
