<svg xmlns="http://www.w3.org/2000/svg" width="503.269" height="416.857" viewBox="0 0 503.269 416.857">
  <g id="dl_1" transform="translate(-5.674 -11.283)">
    <path id="XMLID_572_" d="M316.407,56A184.707,184.707,0,1,0,501.115,240.707C501.115,138.683,418.326,56,316.407,56Zm0,316.277A131.676,131.676,0,1,1,448.083,240.6,131.714,131.714,0,0,1,316.407,372.277Z" transform="translate(7.828 2.726)" fill="#fdc000"/>
    <g id="XMLID_563_" transform="translate(6.962 12.571)">
      <rect id="XMLID_571_" width="296.191" height="296.191" stroke-width="2" fill="none" stroke="#b2b2b2" stroke-miterlimit="10" transform="translate(0 104.289) rotate(-20.615)"/>
      <rect id="XMLID_570_" width="296.191" height="296.191" stroke-width="2" fill="none" stroke="#b2b2b2" stroke-miterlimit="10" transform="translate(5.295 107.024) rotate(-20.615)"/>
      <rect id="XMLID_569_" width="296.191" height="296.191" stroke-width="2" fill="none" stroke="#b2b2b2" stroke-miterlimit="10" transform="translate(10.826 110.118) rotate(-20.615)"/>
      <rect id="XMLID_568_" width="296.191" height="296.191" stroke-width="2" fill="none" stroke="#b2b2b2" stroke-miterlimit="10" transform="translate(16.561 112.653) rotate(-20.615)"/>
      <rect id="XMLID_567_" width="296.191" height="296.191" stroke-width="2" fill="none" stroke="#b2b2b2" stroke-miterlimit="10" transform="translate(21.662 114.572) rotate(-20.615)"/>
      <rect id="XMLID_566_" width="296.191" height="296.191" stroke-width="2" fill="none" stroke="#b2b2b2" stroke-miterlimit="10" transform="translate(26.977 116.823) rotate(-20.615)"/>
      <rect id="XMLID_565_" width="296.191" height="296.191" stroke-width="2" fill="none" stroke="#b2b2b2" stroke-miterlimit="10" transform="translate(32.714 119.147) rotate(-20.615)"/>
      <rect id="XMLID_564_" width="296.191" height="296.191" stroke-width="2" fill="none" stroke="#b2b2b2" stroke-miterlimit="10" transform="translate(38.055 121.066) rotate(-20.615)"/>
    </g>
  </g>
</svg>
