<svg id="il_dron" xmlns="http://www.w3.org/2000/svg" width="995" height="440.988" viewBox="0 0 995 440.988">
  <g id="XMLID_1913_" transform="translate(0 0)">
    <g id="XMLID_585_">
      <path id="XMLID_594_" d="M28.991,104.2c.826.354-.118-.354.59-.944,1.652-1.534,4.718-2.6,6.842-3.539a219.236,219.236,0,0,1,20.525-8.257A221.789,221.789,0,0,1,100.594,81.08c13.92-1.887,30.08-4.011,43.882-1.062,1.3.236,3.657,1.534,4.836,1.416,3.185-.472,1.533-.59,2.477-2.359,1.18-2.241,1.415-4.954,2.713-7.2a21.45,21.45,0,0,1,11.56-9.791h0c.708,1.416,4.483,3.067,5.662,4.247a35.231,35.231,0,0,1,3.421,3.775c1.3,1.651,2.123,3.893,3.421,5.544.236,1.651,1.416,2.359,3.3,2.123A42.653,42.653,0,0,1,186,76.244a193.19,193.19,0,0,1,32.322-8.965,185.959,185.959,0,0,1,68.064.354.412.412,0,0,1,.118.236c.59,4.011.118,5.9-3.185,8.493a82.328,82.328,0,0,1-31.5,15.217c-22.767,5.662-46.6,3.3-69.48-.118,0-.826.118-1.651.118-2.477.826,6.37.118,13.212,1.18,19.464.826,4.6,3.657,5.544,7.2,7.786,1.887,1.18,6.252,2.831,7.314,4.836,1.062,1.769.354,5.072.354,6.96.118,8.021,0,15.925-.236,23.946,0-.59-.118-1.3-.118-1.887,25.362-1.416,50.606-3.893,75.85-6.016,23.946-2.123,48.129-2.005,71.6-7.2,0,.472-.118.944-.118,1.416,0-4.836-.826-9.909-.236-14.745.472-4.247,2.6-4.836,6.842-4.954,0,.472-.118.944-.118,1.416,0-6.252,0-12.5.118-18.756,0-3.893-1.062-9.437,0-13.094.59-2.005,0-1.416,2.359-2.949,4.6-2.949,9.791-5.308,14.509-8.021,0,.59-.118,1.3-.118,1.887a188.3,188.3,0,0,1,.236-21.587c0,.826.118,1.651.118,2.477-30.08,6.016-68.418,6.96-94.842-11.324-2.949-2.005-8.139-5.072-9.2-8.729-.354-1.3-.236-4.483.944-5.544.944-.826,5.662-.708,7.078-.826,4.247-.472,8.611-.826,12.976-1.062a202.857,202.857,0,0,1,28.075.59,231.735,231.735,0,0,1,23.828,3.421c4.365.944,8.729,1.887,12.976,3.067,5.072,1.3,10.145,3.657,15.217,4.6,2.949.59,3.3,1.18,5.19-1.062.944-1.062,1.416-2.713,2.241-3.893a43.851,43.851,0,0,1,4.836-5.662c.708-.708,2.713-3.3,3.775-3.539,1.416-.236,4.365,2.359,5.426,3.185,4.483,3.421,5.9,7.314,8.729,11.914,2.477,3.893,6.37,2.005,10.5,1.534a137.909,137.909,0,0,1,13.92-.944c17.812-.472,35.625,2.005,52.965,5.662a146.727,146.727,0,0,1,24.3,7.078,72.848,72.848,0,0,1,11.678,6.016c.826.472,2.477,1.887,3.3,2.005,2.123.354,6.252-1.534,8.493-1.887a100.436,100.436,0,0,1,29.727-.118,90.183,90.183,0,0,1,13.8,3.185c1.651.472,13.094,3.893,12.858,5.78,0,0,0-.472.118-.472a229.187,229.187,0,0,1,52.965,6.488c4.247,1.062,8.375,2.241,12.622,3.421,3.893,1.18,8.493,3.657,12.386,4.129,4.365.59,5.308-3.657,7.786-6.606a63.6,63.6,0,0,1,8.257-7.668v2.949c0-.118-.118-.354-.118-.472a24.408,24.408,0,0,1,0-2.949c.236.236.354.354.472.236h0c1.3,2.005,5.072,3.657,6.724,5.426a34.739,34.739,0,0,1,3.657,4.836c1.533,2.477,1.887,6.134,5.19,6.724,2.713.472,6.96-1.18,9.791-1.534,13.8-2.123,27.839-3.421,41.877-2.6a105.31,105.31,0,0,1,38.338,9.437c2.477,1.18,26.424,12.15,24.772,15.689h0c3.067,2.123-1.651,8.847-3.067,10.027-3.539,2.949-8.493,3.775-12.858,4.365a166.848,166.848,0,0,1-20.172,2.005,152.949,152.949,0,0,1-79.271-19.818c0-.708.118-1.534.118-2.241.236,4.011,0,8.375.708,12.268.708,4.011,4.247,6.96,7.9,8.729,3.3,1.534,7.55,1.062,11.088,1.18l11.678.354c16.751.472,33.619.944,50.488,1.062,33.265.354,66.649.118,99.914.236,0,.472-.118.944-.118,1.416,0-5.544.118-11.206.236-16.751.118-5.19-.472-11.678.708-16.633A7.7,7.7,0,0,1,873.6,91.7c4.011-3.3,8.375-6.252,12.74-9.319,0,.59-.118,1.3-.118,1.887-.236-4.718-.236-9.437-.118-14.155,0,.59.118,1.3.118,1.887a204.014,204.014,0,0,1-60.279,18.992c-16.515,2.359-34.8,4.483-51.078-.59-4.482-1.416-13.448-4.129-14.391-9.2-.708-3.775,1.534-5.308,4.6-7.432,7.668-5.426,17.223-8.375,26.188-11.206a206.776,206.776,0,0,1,32.558-7.55A227.356,227.356,0,0,1,858.5,52.769c5.426.118,10.853.354,16.161.826,2.713.236,5.426.472,8.139.826,4.6.472,5.78,0,7.55-3.893a33.149,33.149,0,0,1,4.954-7.078c1.18-1.416,4.129-5.662,6.016-6.134,2.005-.472,6.016,3.893,7.432,5.426,2.6,2.831,3.657,7.668,7.9,6.488,4.365-1.18,8.847-4.247,13.212-5.9A141.139,141.139,0,0,1,945.44,38.26a142.672,142.672,0,0,1,29.137-4.483,132.316,132.316,0,0,1,30.552,2.005,137.352,137.352,0,0,1,14.156,3.3c2.831.826,3.657.472,4.247,2.713,1.062,3.893-2.005,6.724-4.6,8.965-7.785,6.724-18.284,9.791-28.075,12.5a192.659,192.659,0,0,1-73.372,5.544c0-.708.118-1.534.118-2.241.118,1.651.236,3.3.236,4.954a9.469,9.469,0,0,1-.118,3.657c0-1.062-.118-2.123-.118-3.3,0-.472.236-2.831.354-1.18.118,3.067.236,6.134.354,9.083.236,5.308,1.887,6.606,6.016,9.437,2.359,1.534,7.078,3.067,8.375,5.426.354.708.118,2.6.118,3.185.118,3.3,0,6.724,0,10.027V130.27c0-.472-.118-.944-.118-1.416,1.887-1.18,9.673-.354,11.325,1.18,2.241,2.005,2.005,7.668,2.241,10.381.708,8.139.236,16.043-3.657,23.357h0c-20.525.354-41.051.354-61.458,0-4.6-.118-9.319-.118-13.92-.236-5.072-.118-11.324-1.3-16.043.118-4.011,1.18-8.139,3.775-12.032,5.426-4.718,2.005-9.437,4.011-14.273,5.78C787.607,189.015,747.971,190.9,709.4,199.4a310.508,310.508,0,0,0-31.024,8.847c-6.842,2.359-15.1,4.483-18.756,11.206h0a35.736,35.736,0,0,1-11.324-4.836c-.826-.59-6.488-6.016-6.606-6.016-.59.236-2.6,12.622-3.3,14.273-6.252,15.335-21.587,11.8-34.917,10.145-16.515-2.005-33.5-1.651-50.134-1.062a393.527,393.527,0,0,0-51.314,4.954h0c-.708-2.477-.472-5.072-.708-7.668-.708-6.016-2.005-12.032-3.185-18.048-1.3-6.724-2.713-13.094-2.241-19.936,0,.708.118,1.533.118,2.241-6.724,1.062-11.442,5.544-16.751,9.437h0c-.944-1.534-1.18-3.421-2.123-5.072-1.18-2.123-2.831-3.893-4.011-6.016s-2.005-4.365-3.067-6.606c-.354-.708-3.185-7.432-1.533-5.072,1.3,1.887,7.432,23.946,7.668,23.946.118,0,.118.472.118.472a20,20,0,0,1-.118,5.308c0,.118,0,.118-.118.236-12.032-.236-23.71,2.005-35.035,5.544-10.97,3.421-21.233,8.493-32.086,11.678a10.151,10.151,0,0,1-.118-1.887c0-.472-1.062-3.893-.354-5.308.944-1.769,4.011-1.887,5.9-2.123a31.482,31.482,0,0,0,11.206-3.3,115.4,115.4,0,0,0,11.088-6.724c3.3-2.241,6.488-5.072,10.381-6.134,6.842-1.887,15.689.118,22.531,1.062v2.949c-6.37-6.488-12.268-13.094-19.7-18.4a98.152,98.152,0,0,0-23.475-12.032c-4.129-1.534-8.257-2.949-12.268-4.6-2.241-.944-8.847-2.6-10.027-4.836-.826-1.534-.472-4.483.354-5.9v2.949c-6.37-3.3-12.74-6.724-19.582-8.965-6.842-2.359-14.038-3.067-21.233-3.421-4.365-.236-9.083-.236-13.094-2.241a8.228,8.228,0,0,1-3.775-3.185c-.354-.472-.472-1.416-.826-1.769-.118-.354-.118-.708-.236-1.062-1.533.236-2.949.472-4.483.708v-2.949c5.072,10.853,18.284,8.611,28.075,10.027,9.909,1.534,20.761,2.6,26.777,11.8,3.067,4.6,4.129,11.088,3.893,16.633-.118,2.241,0,2.005-1.651,2.713-2.359.944-7.9,0-10.5,0H377.452c-54.263,0-108.525,2.713-162.67,1.18-15.1-.472-30.2-.59-45.18-.944s-29.962-.236-44.826,2.241a.412.412,0,0,1-.118-.236v-.118a13.708,13.708,0,0,1,.118-2.6v.118c.118.708-.236,2.359-.118,2.713a35.212,35.212,0,0,1-1.416-16.043c.944-7.55,6.252-11.678,12.622-15.1,0,.59-.118,1.3-.118,1.887-.118-9.673-.354-19.346-.118-29.137,0,.59.118,1.3.118,1.887h0c.118-.118-.236-2.477,0-2.949-.354.59-.236-2.359.118-2.949.826-1.416,3.893-2.713,5.19-3.539,3.421-2.359,6.96-4.483,10.5-6.724,0,.708-.118,1.534-.118,2.241-.354-7.2-.944-14.391-.708-21.587,0,.59.118,1.3.118,1.887-8.611,8.847-21.351,13.33-32.676,17.34a144.325,144.325,0,0,1-38.1,8.021,112.051,112.051,0,0,1-37.04-3.893c-3.3-.944-12.268-2.713-13.8-5.662-.354-.708-.118-4.247.118-2.713,0-.354.118-3.185.236-2.123.118.59,0,1.18.118,1.651,0,.236-.118.472,0,.708.708,1.651-.826-.236.708.944,1.652,1.18,6.488,2.123,8.729,2.949a85.473,85.473,0,0,0,8.965,2.6,109.784,109.784,0,0,0,36.214,2.241,148.519,148.519,0,0,0,34.917-8.021c11.089-3.893,23.357-8.375,31.732-16.987,0,0,.118,1.769.118,1.887-.118,6.488.354,12.858.708,19.346,0,.354.236,2.005-.118,2.241-3.185,2.005-6.37,4.011-9.555,6.134-1.18.826-5.9,3.539-6.016,3.775-.472.826.354,2.359-.118,3.3v-2.949h0s.118,1.769.118,1.887c-.236,9.2,0,18.4.118,27.485,0,.236.118,1.651-.118,1.887a34.687,34.687,0,0,0-7.314,4.954c-6.488,6.016-5.426,14.627-3.893,23a13.707,13.707,0,0,1,.118-2.6c-.236-1.18,32.793-2.477,35.743-2.359,12.032.118,23.946.472,35.979.708,24.064.354,48.011,1.416,71.957.826,24.3-.59,48.718-1.062,73.019-1.416,12.386-.118,24.772-.236,37.04-.236,6.134,0,12.386.118,18.52.118,1.887,0,1.769-.236,2.359-.826,1.769-1.416-1.533-9.673-2.949-12.032-6.37-10.5-20.054-11.8-31.142-12.976-8.965-.944-19.582,0-24.064-9.673-.118-.236-.354-2.831,0-2.949a19.7,19.7,0,0,0,4.483-.708.412.412,0,0,1,.118.236c1.769,9.673,17.1,7.9,24.182,8.611,12.5,1.18,23.357,6.252,34.327,11.914.354.236.236,2.6,0,2.949-.472.708,32.912,13.92,35.861,15.453,11.678,6.134,20.172,15.217,29.373,24.418a8.23,8.23,0,0,1,0,2.949c-6.134-.826-12.976-2.005-19.228-1.534-6.724.59-11.8,5.544-17.222,9.083-5.662,3.657-10.97,6.724-17.694,7.55-1.416.236-3.3.118-4.483.826-5.78,3.067-.59.708-1.652,2.359a14.222,14.222,0,0,0,0,2.241c0-.59-.118-1.3-.118-1.887,10.97-3.185,21.233-8.257,32.086-11.678a118.345,118.345,0,0,1,35.153-5.544.412.412,0,0,1-.118-.236c-1.416-9.083-5.308-17.93-8.611-26.424-.236-.708.236-2.6.118-2.831,1.887,3.067,3.185,6.488,4.836,9.673,1.769,3.421,4.6,6.37,6.134,9.909,1.062,2.477.59,2.831,2.949,1.062,1.416-1.062,2.831-2.241,4.247-3.3a22.379,22.379,0,0,1,10.381-4.6c.236,0,.118,2.005.118,2.241-.59,10.145,3.421,21,4.836,30.906.354,2.713.354,5.544.944,8.139-.59,2.005-.236,2.713,1.18,2.005,1.062-.236,2.241-.354,3.3-.59,2.241-.354,4.483-.59,6.606-.944a425.221,425.221,0,0,1,50.37-3.539,334.532,334.532,0,0,1,49.78,2.713c6.842.944,14.509,1.3,20.054-3.657,5.426-4.954,7.785-13.8,8.139-20.879l.118-.708c3.893,3.185,7.314,6.488,12.032,8.493,6.134,2.6,6.488-.59,11.088-3.539,7.786-5.072,18.4-7.55,27.249-10.145,23.828-6.96,48.718-9.909,73.137-13.92,24.89-4.011,48.836-10.027,72.075-20.054,4.719-2.005,10.027-5.662,14.981-6.724,2.713-.59,6.488.118,9.319.236,3.893.118,7.785.118,11.56.236,12.74.236,25.48.354,38.338.354,7.314,0,14.745,0,22.059-.118,2.713,0,7.9.826,9.909-1.18,1.652-1.651,2.005-5.426,2.477-7.55.59-3.185,1.652-16.869-2.241-19.7-1.533-1.062-9.083-1.769-10.617-.708a5.748,5.748,0,0,1-.118-1.416V110.452c0-3.421.708-7.9,0-11.206-.708-3.067-1.77-2.831-4.837-4.718-2.713-1.651-7.9-4.011-9.319-6.724-.826-1.534-.354-5.308-.354-7.078a26.984,26.984,0,0,1-.118-4.365c0-7.785.236-1.769.236-.236,0,.472-.236,2.831-.354,1.18-.118-3.067-.236-6.134-.472-9.2,0-.118-.118-2.241.118-2.241a192.5,192.5,0,0,0,60.987-2.477,150.783,150.783,0,0,0,27.6-8.021,53.19,53.19,0,0,0,10.853-5.78c1.416-1.062,6.96-4.836,6.252-6.606-.118-.472-9.2-2.241-10.97-2.6a135.432,135.432,0,0,0-42.82-3.185,146.351,146.351,0,0,0-55.56,16.515h0a30.458,30.458,0,0,0-7.55-10.145c-.708-.59-3.657-3.421-4.6-3.3-.472.118-.59.472-1.18.826-2.359,1.18-4.718,4.718-6.252,6.606a32.67,32.67,0,0,0-5.78,10.5h0c-37.63-5.072-75.85-1.887-111.356,12.268a54.936,54.936,0,0,0-9.909,4.836,38.717,38.717,0,0,0-4.483,3.185c-2.359,2.005-1.769,2.123.59,3.775a49.554,49.554,0,0,0,20.525,7.432c14.509,2.241,29.609.472,44-1.769A202.142,202.142,0,0,0,886.7,69.166a10.156,10.156,0,0,1,.118,1.887c-.118,3.775,1.062,8.847.118,12.622-.118.472.118,1.062,0,1.416-1.3,2.6-6.37,4.954-8.729,6.724-1.651,1.18-4.011,2.6-5.308,4.129-3.067,3.539-2.359,9.555-2.477,13.8-.236,6.842-.236,13.8-.354,20.643,0,.118,0,1.534-.118,1.416-35.271,0-70.541.236-105.812-.236-17.222-.236-34.445-.708-51.549-1.18-4.365-.118-9.909.708-14.038-.354-2.831-.708-6.252-3.657-8.139-5.662-2.005-2.005-1.533-1.3-1.651-4.365-.236-4.483-.472-8.847-.826-13.33,0-.118.118-2.241.118-2.241a152.466,152.466,0,0,0,60.4,19.228,149.31,149.31,0,0,0,33.265-.59c7.2-.944,17.694-1.416,21.351-8.847-.118.118-.118-.118-.118-.118-.826-4.483-7.314-6.606-10.735-8.729-4.483-2.6-8.965-5.072-13.684-7.314a100.593,100.593,0,0,0-28.547-8.375c-21.233-2.949-42.7,0-63.582,3.657h0a30.052,30.052,0,0,0-13.92-17.576V72.822c0,.118.118.354.118.472.118.472.354,2.477,0,2.949-5.19,4.483-10.145,8.965-12.858,15.335h0a246.224,246.224,0,0,0-39.753-11.324c-6.37-1.18-12.858-2.123-19.346-2.831-2.123-.236-21.823-1.534-21.823-1.534,0-.118,0,.472-.118.472a91.674,91.674,0,0,0-45.769-9.437A79.409,79.409,0,0,0,519.95,68.34c-3.893.708-5.544,2.123-8.847,0a85.718,85.718,0,0,0-19.7-9.2c-29.373-9.673-63.11-13.212-93.662-7.786h0a29.761,29.761,0,0,0-6.134-11.8c-1.651-1.769-5.78-5.9-8.257-6.134-1.651-.118-3.657,2.6-4.836,3.775-3.185,3.421-6.134,7.078-7.432,11.56h0A225.742,225.742,0,0,0,312.573,35.9a218.349,218.349,0,0,0-29.137-.236c-4.718.354-9.319.708-14.038,1.416-4.011.59-3.185,1.534,0,4.365,11.678,10.381,27.013,15.217,42.23,17.458a168.321,168.321,0,0,0,58.038-1.887c.236,0,.118,2.359.118,2.477a165.852,165.852,0,0,0-.236,18.756c0,.236.118,1.651-.118,1.887-3.3,1.887-6.606,3.775-9.909,5.544-1.533.826-3.067,1.534-4.6,2.477-2.831,1.651-2.005,2.949-2.005,6.016,0,8.611-.236,17.223-.118,25.716,0,.118,0,1.416-.118,1.416-1.062,0-2.949-.118-3.893.354-2.477,1.18-2.359,4.954-2.359,7.55-.118,2.949.118,5.9.118,8.847,0,.118.118,1.416-.118,1.416-23.592,5.19-47.775,5.072-71.6,7.2-25.244,2.241-50.488,4.6-75.85,6.016-.236,0-.118-1.769-.118-1.887.236-6.96.354-13.92.236-20.761,0-2.123-.118-4.365-.118-6.488-1.18-.826-2.359-1.651-3.657-2.477-2.359-1.534-4.836-2.949-7.314-4.483-3.421-2.241-3.657-1.651-3.775-5.426-.236-6.842-.236-13.566-1.062-20.407,0-.236-.118-2.6.118-2.477,33.383,5.072,71.013,7.55,99.442-13.92,1.18-.944,5.426-2.713,4.483-4.836.236.59-6.96-.354-7.432-.472-2.477-.354-5.072-.708-7.55-1.062a185.663,185.663,0,0,0-30.316-.826,190.055,190.055,0,0,0-60.869,14.155h0c-2.123-5.308-8.493-17.222-15.335-15.807-8.021,1.651-11.914,12.5-13.212,19.346,0,.118,0,.118-.118.236-9.673-4.011-20.171-3.3-30.434-2.949a213.719,213.719,0,0,0-32.322,3.775A208.526,208.526,0,0,0,60.133,93.7c-4.6,1.534-9.319,3.3-13.8,5.19-1.887.826-15.453,5.426-15.571,7.432l-.118,1.062c-.118-.118-.236-.118-.472-.236C28.4,106.914,29.109,104.319,28.991,104.2Z" transform="translate(-28.947 -29.987)"/>
      <path id="XMLID_593_" d="M357.753,115.024c4.129,0,8.257,0,12.5.118,1.534,0,4.247.59,5.662.118,1.18-.472,3.893-3.067,4.836-3.893,5.308-4.836,3.185-15.1,3.775-21.941,0,.708.118,1.534.118,2.241a193.984,193.984,0,0,1-44.472,4.954V93.672c5.78,7.2,11.088,14.745,17.576,21.351.59.59-.354,2.6,0,2.949-6.488-6.606-11.914-14.273-17.576-21.469a6.21,6.21,0,0,1,0-2.949A194.72,194.72,0,0,0,384.649,88.6a13.544,13.544,0,0,1,.118,2.241c-.472,5.426-.472,10.853-.59,16.279,0,1.3.354,3.185-.236,4.365-.708,1.3-3.657,3.067-4.836,4.011-2.241,1.769-2.831,2.123-5.426,2.6-4.954.826-10.853-.118-15.925-.118A6.233,6.233,0,0,1,357.753,115.024Z" transform="translate(243.308 -19.459)"/>
      <path id="XMLID_592_" d="M485.436,73.409c2.359,1.534,4.719,3.067,7.2,4.483,1.651.944,6.37,2.713,7.314,4.365.472.826.236,1.416.472,2.241.59,3.067-.118,7.2-.236,10.145q-.177,10.086-.354,20.172c0-.472-.118-.944-.118-1.416a15.307,15.307,0,0,1,10.5.236c4.247,1.416,6.488,1.651,10.853.826,2.123-.354,4.719.118,6.842-.354,3.3-.708,3.421-2.241,4.955-4.6a86.442,86.442,0,0,1,5.308-7.55c9.2-11.442,21.351-19.7,33.855-27.013v2.949a138.312,138.312,0,0,1-45.18-2.359c-13.566-3.067-29.137-6.488-41.169-13.566,0-.59.118-1.3.118-1.887.118,5.072.118,10.145-.118,15.217a4.887,4.887,0,0,1-.236-1.887h0c-.236.118.59,2.6,0,2.949h-.118s-.118-1.769-.118-1.887c.236-4.6.236-9.083.118-13.684l.118-1.887c12.032,7.2,27.6,10.617,41.169,13.566a138.649,138.649,0,0,0,45.18,2.359c.118,0,.354,2.713,0,2.949-16.869,9.791-32.676,21.587-41.759,39.281h0a39,39,0,0,0-9.083.118c-2.713.472-4.6,1.18-7.314.59-5.426-1.18-8.375-3.421-14.038-1.651a5.745,5.745,0,0,1-.118-1.416c.118-7.786.236-15.453.472-23.239,0-1.534.59-4.011.118-5.426-.59-1.651-2.123-2.241-3.775-3.185-3.657-2.241-7.314-4.365-10.853-6.724C484.846,76,485.672,73.527,485.436,73.409Z" transform="translate(-115.226 -24.794)"/>
    </g>
  </g>
  <g id="XMLID_1899_" transform="translate(365.933 49.205)">
    <g id="XMLID_565_" transform="translate(0)">
      <path id="XMLID_569_" d="M562.953,83.024c-2.477-3.067-5.308-5.9-8.021-8.729-.236-.236-.118-1.062-.118-1.3,0-.118.236-1.3.236-1.3a71.238,71.238,0,0,0,8.257,8.611c.354.236.236,1.416.236,1.769-.236.118-.354,1.3-.59.944Z" transform="translate(-554.784 -71.7)"/>
    </g>
  </g>
  <g id="XMLID_1843_" transform="translate(361.167 49.879)">
    <g id="XMLID_559_" transform="translate(0)">
      <path id="XMLID_563_" d="M566.58,82.686c-1.416-2.713-3.185-5.19-4.6-7.786a2.593,2.593,0,0,1-.118-1.651c0-.118.236-1.18.354-.944,1.534,2.477,3.067,5.072,4.6,7.432a3.092,3.092,0,0,1,.236,1.769c-.118.354-.354,1.534-.472,1.18Z" transform="translate(-561.784 -72.271)"/>
    </g>
  </g>
  <g id="XMLID_1744_" transform="translate(345.419 48.791)">
    <g id="XMLID_553_" transform="translate(0)">
      <path id="XMLID_557_" d="M580.491,74.24a71.38,71.38,0,0,0-7.2,8.611c-.118.236-.236-.944-.236-1.062,0-.472-.118-1.416.236-1.769,2.241-2.949,4.836-5.662,7.078-8.611.236-.354.354.944.354,1.062a2.287,2.287,0,0,1-.236,1.769Z" transform="translate(-573.04 -71.348)"/>
    </g>
  </g>
  <g id="XMLID_1362_" transform="translate(328.604 49.073)">
    <g id="XMLID_547_" transform="translate(0)">
      <path id="XMLID_551_" d="M595.822,74.433a91.467,91.467,0,0,0-14.981,8.021c.118-.118-.59-2.477.118-2.949,4.836-2.949,10.145-4.836,14.863-7.9.236-.236.826,2.477,0,2.831Z" transform="translate(-580.64 -71.588)"/>
    </g>
  </g>
  <g id="XMLID_1361_" transform="translate(328.582 57.345)">
    <g id="XMLID_541_" transform="translate(0)">
      <path id="XMLID_545_" d="M600.465,81.9c-14.981-.708-30.2-.236-45.18-.236-.472,0-.472-3.067.118-3.067,14.981.354,30.316,1.062,45.18.354.472,0,.354,2.949-.118,2.949Z" transform="translate(-554.945 -78.6)"/>
    </g>
  </g>
  <g id="XMLID_1360_" transform="translate(354.153 4.524)">
    <g id="XMLID_535_" transform="translate(0)">
      <path id="XMLID_539_" d="M571.9,34.74c.118,12.858.236,25.716.472,38.456,0,1.062-.59,2.831-.59.708-.118-12.858-.236-25.716-.472-38.456-.118-.944.59-2.713.59-.708Z" transform="translate(-571.3 -33.822)"/>
    </g>
  </g>
  <g id="XMLID_1359_" transform="translate(349.36 44.426)">
    <g id="XMLID_529_" transform="translate(0)">
      <path id="XMLID_533_" d="M577,68.889l-5.662,4.247V72.074a30.9,30.9,0,0,1,3.3.118,2.422,2.422,0,0,1,0,1.3,31.086,31.086,0,0,1-3.3-.236c-.118,0-.118-1.062,0-1.062,1.887-1.534,3.657-2.949,5.544-4.483.236-.354.472.944.118,1.18Z" transform="translate(-571.247 -67.648)"/>
    </g>
  </g>
  <g id="XMLID_1358_" transform="translate(136.467 76.638)">
    <g id="XMLID_523_" transform="translate(0)">
      <path id="XMLID_527_" d="M752.506,95.008c.708.826,1.769,1.416,2.6,2.241.826.708,1.651,1.18,2.359,1.887.236.236.118,1.062.118,1.3,0,.118-.118,1.3-.118,1.3-.944-.59-1.651-1.3-2.6-2.005a20.865,20.865,0,0,0-2.6-1.887c-.472-.236-.236-1.3-.236-1.651.118,0,.236-1.534.472-1.18Z" transform="translate(-751.975 -94.955)"/>
    </g>
  </g>
  <g id="XMLID_1357_" transform="translate(122.017 80.583)">
    <g id="XMLID_517_" transform="translate(0)">
      <path id="XMLID_521_" d="M771.7,101.249c-6.606-.236-13.212,0-19.7.354-.118,0-.236-3.067.118-3.067,6.606-.118,13.212.118,19.7-.236.354,0,.354,2.949-.118,2.949Z" transform="translate(-751.886 -98.3)"/>
    </g>
  </g>
  <g id="XMLID_1356_" transform="translate(136.497 35.991)">
    <g id="XMLID_511_" transform="translate(0)">
      <path id="XMLID_515_" d="M756.754,61.444c.118,12.976.118,25.952-.118,38.928,0,1.062-.354,2.123-.354.354-.236-12.976-.118-25.952-.118-38.928,0-1.062.59-2.123.59-.354Z" transform="translate(-756.134 -60.498)"/>
    </g>
  </g>
  <g id="XMLID_1355_" transform="translate(113.174 91.082)">
    <g id="XMLID_505_" transform="translate(0)">
      <path id="XMLID_509_" d="M783.675,110.621c-16.4.708-32.322,1.3-48.6-.354-.59,0-.354-3.067.118-3.067,16.043,1.651,32.675,2.477,48.6.472.236,0,.354,2.949-.118,2.949Z" transform="translate(-734.725 -107.2)"/>
    </g>
  </g>
  <g id="XMLID_1354_" transform="translate(148.324 82.707)">
    <g id="XMLID_499_" transform="translate(0)">
      <path id="XMLID_503_" d="M748.352,111.9c-4.365-3.3-9.673-5.426-13.566-9.437-.354-.354.236-2.359,0-2.359,4.836,2.359,8.611,7.078,13.684,8.847.826.354.118,3.067-.118,2.949Z" transform="translate(-734.67 -100.1)"/>
    </g>
  </g>
  <g id="XMLID_1353_" transform="translate(140.001 83.297)">
    <g id="XMLID_493_" transform="translate(0)">
      <path id="XMLID_497_" d="M754.471,112.632c-.826-1.651-2.713-3.185-3.893-4.483-1.416-1.651-2.831-3.3-4.247-4.836-.59-.59.472-2.359.118-2.713,1.3,1.534,2.713,2.949,4.011,4.483.708.826,1.416,1.534,2.123,2.359.472.59,1.416,2.123,2.241,2.477.472.118.236,1.416.236,1.651-.118-.118-.472,1.416-.59,1.062Z" transform="translate(-746.15 -100.6)"/>
    </g>
  </g>
  <g id="XMLID_1352_" transform="translate(123.531 82.528)">
    <g id="XMLID_487_" transform="translate(0)">
      <path id="XMLID_491_" d="M768.509,102.84a21.284,21.284,0,0,0-3.185,4.6c-.944,1.534-2.005,3.067-3.067,4.483-.236.354-.354-.944-.354-1.062a3.093,3.093,0,0,1,.236-1.769c2.123-2.949,4.365-6.016,6.252-9.083.236-.354.354.944.354,1.062,0,.472.118,1.416-.236,1.769Z" transform="translate(-761.884 -99.948)"/>
    </g>
  </g>
  <g id="XMLID_1351_" transform="translate(115.682 83.169)">
    <g id="XMLID_481_" transform="translate(0)">
      <path id="XMLID_485_" d="M775.821,101.8a92.713,92.713,0,0,1-10.027,9.2c.118-.118-.236-1.3,0-1.416a66.446,66.446,0,0,0,10.027-9.083,2.253,2.253,0,0,1,0,1.3Z" transform="translate(-765.711 -100.492)"/>
    </g>
  </g>
  <path id="XMLID_1350_" d="M353.9,248.4c.472,1.416,1.769,2.949,2.477,4.247,1.18,2.005,2.477,4.129,3.775,6.134.236.236-.118,1.18-.118,1.3-1.3-2.123-2.6-4.129-3.893-6.252L354.368,251c-.118-.236-.472-1.062-.708-1.18-.354-.236.118-1.652.236-1.416Z" transform="translate(251.884 9.241)"/>
  <path id="XMLID_1349_" d="M362.24,248.4c1.651,3.421,3.421,6.842,5.19,10.263a4.035,4.035,0,0,1-.118,1.3c-1.769-3.421-3.421-6.96-5.308-10.263-.118-.354.118-1.534.236-1.3Z" transform="translate(234.693 9.24)"/>
  <path id="XMLID_1348_" d="M369.422,248.5c1.887,3.421,3.893,6.724,5.78,10.145a4.035,4.035,0,0,1-.118,1.3,105.268,105.268,0,0,0-5.78-10.027c-.354-.354.118-1.3.118-1.416Z" transform="translate(218.428 9.263)"/>
  <path id="XMLID_1347_" d="M376.971,248.3c1.887,3.539,4.011,6.842,5.78,10.5a3.287,3.287,0,0,1-.118,1.18c-2.005-3.421-3.775-6.96-5.78-10.263-.236-.354.118-1.416.118-1.416Z" transform="translate(201.914 9.227)"/>
  <path id="XMLID_1346_" d="M383.63,248.9c1.651,3.3,3.421,6.488,5.072,9.673.236.354-.118,1.3-.118,1.416-1.651-3.185-3.3-6.488-5.072-9.673a2.37,2.37,0,0,1,.118-1.416Z" transform="translate(188.059 9.335)"/>
  <path id="XMLID_1345_" d="M390.7,248.9a65.053,65.053,0,0,0,5.78,10.027c.236.236-.118,1.18-.118,1.3a106.3,106.3,0,0,1-5.9-10.027c-.118-.354.118-1.534.236-1.3Z" transform="translate(172.025 9.33)"/>
  <path id="XMLID_1344_" d="M398.608,250.951h0c-.354-.236-.236-1.18-.118-1.416a644.793,644.793,0,0,0,.236-.236c.944.354,1.769,2.949,2.241,3.775.944,1.769,2.005,3.657,2.949,5.426a3.288,3.288,0,0,1-.118,1.18c-.826-1.534-1.769-3.185-2.6-4.718-.354-.708-.826-1.534-1.18-2.241-.118-.118-1.3-2.123-1.3-2.005v-1.3h.118c.236.236-.118,1.534-.236,1.534Z" transform="translate(155.269 9.407)"/>
  <path id="XMLID_1343_" d="M406.081,249c1.769,3.3,3.775,6.488,5.544,9.791.236.354-.118,1.3-.118,1.416-1.77-3.3-3.539-6.724-5.544-9.791-.354-.354.118-1.3.118-1.416Z" transform="translate(138.713 9.353)"/>
  <g id="XMLID_1342_" transform="translate(499.466 293.594)">
    <path id="XMLID_476_" d="M442.191,279.14a7.928,7.928,0,0,1,7.2,1.651,6.708,6.708,0,0,1,1.887,6.96,8.817,8.817,0,0,1-1.769,2.831A10.436,10.436,0,0,1,442.191,294a8.025,8.025,0,0,1-6.842-3.893,4.748,4.748,0,0,1-.59-2.831,6.886,6.886,0,0,1,.944-2.6c1.651-3.185,4.719-6.134,8.257-5.78" transform="translate(-434.729 -278.875)"/>
  </g>
  <g id="XMLID_1341_" transform="translate(493.034 260.476)">
    <path id="XMLID_462_" d="M449.016,250.8c4.483.944,8.021,5.426,9.319,9.791,2.005,6.37-1.651,13.919-7.785,16.751-6.016,2.831-13.094.826-17.812-3.893-1.062-1.062-3.539-8.611-2.6-11.088a21.165,21.165,0,0,1,2.359-4.6,16.4,16.4,0,0,1,18.52-6.016" transform="translate(-429.932 -250.8)"/>
  </g>
  <path id="XMLID_1339_" d="M420.309,324.608c-.118-2.831-.236-5.662-.118-8.611a2.2,2.2,0,0,1,.472-1.533c6.724-.826,13.33-.118,20.054-.354.236,0-.236,7.786,0,10.971,0,.236-.118.944-.118.944,0,.236-13.566-.236-20.172-.118C420.073,325.905,420.309,324.608,420.309,324.608Z" transform="translate(92.753 21.037)"/>
  <path id="XMLID_1337_" d="M443.563,316.447a6.442,6.442,0,0,1,.118-2.123s11.442-.236,18.756-.118c0,0,.354-.236.354.472.118,3.185.354,10.853.118,10.853a162.29,162.29,0,0,1-18.756,0c-.118,0-.236-.826-.118-1.3C443.917,321.637,443.563,316.447,443.563,316.447Z" transform="translate(42.957 21.058)"/>
  <path id="XMLID_1334_" d="M371.386,276.913a33.753,33.753,0,0,1,46.477,6.016.9.9,0,0,1,.236.472c6.016,10.145,8.493,26.542,2.477,37.158-7.432,12.976-22.413,22.531-37.63,20.172C352.748,336.13,349.091,293.192,371.386,276.913Zm25.952,56.74a39.133,39.133,0,0,0,18.4-12.268c3.657-4.247,6.134-8.139,6.252-14.037,0-6.488-1.062-12.74-4.365-18.4,0,.118.118.236.118.354-8.847-10.735-22.531-15.217-36.1-11.088a35.5,35.5,0,0,0-17.458,12.032,34.772,34.772,0,0,0-4.954,8.611c-2.477,6.488-.472,13.8,2.359,19.936C367.729,332.12,383.536,337.782,397.337,333.653Z" transform="translate(183.907 13.171)"/>
  <path id="XMLID_1331_" d="M368.81,294.464c3.421-6.842,10.145-12.976,17.812-14.509,8.375-1.769,17.458,3.3,22.413,9.909a.116.116,0,0,0,.118.118v-.118c4.954,7.314,3.657,18.756.59,26.542-2.477,6.37-11.088,11.206-17.576,12.268-5.662.826-11.914-1.18-16.515-4.718C367.394,317.82,364.209,303.783,368.81,294.464Zm6.252,25.48c6.488,5.544,15.925,7.078,23.592,3.067,4.483-2.359,9.2-5.308,10.97-10.145,2.241-6.016,2.949-14.038-.826-19.582v-.118c-7.55-8.493-19.11-12.976-29.491-6.606-4.483,2.713-9.791,7.55-11.206,12.858C366.215,306.614,369.518,315.225,375.062,319.943Z" transform="translate(184.123 14.849)"/>
  <path id="XMLID_1328_" d="M371.078,299.849a13.361,13.361,0,0,1,6.488-10.263,19.836,19.836,0,0,1,10.263-3.185,22.556,22.556,0,0,1,13.566,4.483,10.417,10.417,0,0,1,2.949,3.067c.826,1.416,1.769,5.9,1.887,7.432.236,7.314-4.247,11.914-10.381,16.043a11.084,11.084,0,0,1-3.775,1.769,14.012,14.012,0,0,1-6.252-.236c-3.185-.708-6.37-1.651-8.729-3.775a14.232,14.232,0,0,1-2.477-2.831A18.586,18.586,0,0,1,371.078,299.849Zm8.847-3.421c.944,2.713,3.185,5.544,6.252,3.539,1.062-.59,1.769-3.067.59-3.775a2.164,2.164,0,0,0-1.18-.826c-.708-.236-1.416-.236-2.123-.472-.944-.354-1.3-1.18-2.123-1.534C379.335,292.417,379.689,295.6,379.925,296.428Z" transform="translate(185.276 16.07)"/>
  <path id="XMLID_1325_" d="M570.959,400.545c2.241-13.684,12.858-22.059,26.07-23.239,1.416-2.949,2.713-5.9,4.129-8.729,1.769-3.185,4.011-6.016,6.016-9.083h0a.116.116,0,0,1,.118-.118c30.67-16.279,54.735-42.938,79.625-66.531,13.448-12.74,26.777-25.48,40.343-38.22,6.488-6.134,12.858-12.15,19.346-18.284,3.421-3.185,6.724-6.37,10.145-9.555,2.713-2.477,8.729-6.724,8.847-7.078.236-.354.354.944.354,1.887.118.826-12.386,17.34-19.11,24.3l-23,24.064c-13.566,14.391-26.9,28.9-39.4,44.236,2.477-1.534,7.9-4.247,8.021-4.365,0,0,.354,1.18-.118,1.651-25.126,26.07-50.252,54.263-69.952,84.7,3.067,8.847,1.534,19.346-4.482,26.659-8.847,10.97-27.013,13.566-38.456,5.19C571.077,422.014,569.307,410.1,570.959,400.545Zm15.571,16.4s.472-2.6.118-2.831c-4.836-3.893-7.078-10.263-3.657-15.925a23.39,23.39,0,0,1,7.668-7.9c1.062-.236,2.005-.472,3.067-.708.59-.118-.826-3.3-.708-3.3a23.579,23.579,0,0,0-2.477,1.18c-6.606,2.123-11.8,7.2-12.5,14.509C577.447,408.449,580.16,414.583,586.53,416.942Z" transform="translate(-409.661 4.081)"/>
  <path id="XMLID_1322_" d="M503.413,363.558c7.314-26.07,19.464-49.426,30.2-74.08,8.375-19.346,15.807-37.866,24.654-56.976,5.78-12.5,10.381-30.2,20.054-40.225h0l.118-.118c2.005-2.359,4.365-2.005,6.606-.472a21.066,21.066,0,0,1,4.011,4.954c1.887,3.3.708,9.437.472,13.094-.472,6.842-2.949,12.386-5.78,18.4Q572.421,252.2,561.8,276.619c-2.949,6.96-6.134,13.8-8.493,21-3.657,10.853-4.482,22.177-11.206,31.85-3.775,5.308-8.139,7.786-13.684,10.97-2.713,1.533-4.954,3.539-7.785,4.718-3.421,1.416-7.432,2.6-9.319,6.016-1.533,2.713-1.769,3.657,1.533,5.544a12.545,12.545,0,0,0,5.072,1.416c1.887,0,3.3-1.062,5.072-1.3,3.539-.472,3.185,1.416,5.78,3.067,3.185,2.123,3.775-.118,4.836-2.713,2.713-6.37,6.488-12.5,9.673-18.756s6.134-12.74,9.791-18.874c4.954-12.386,12.032-26.424,17.222-38.81.236-.472-1.534,2.713-1.769,3.3-4.955,12.032-10.027,25.126-14.863,37.276,0,.118,0,.236-.118.236v.118c-6.016,14.745-11.914,29.609-18.048,44.354,8.611,6.016,10.852,18.166,8.965,28.075-3.067,16.043-18.4,23.239-33.619,21.469-13.33-1.534-23.71-10.381-24.3-24.182C485.954,379.365,492.56,368.984,503.413,363.558Zm13.448,40.461c19.11,4.483,24.654-23.946,10.617-32.44-.354-.354-1.887,2.005-1.3,2.241a6.687,6.687,0,0,1,1.534.944c4.718,4.954,4.365,13.92,0,19.228-2.6,3.185-6.252,5.308-9.791,7.314C517.686,401.188,516.507,403.9,516.861,404.019Z" transform="translate(-134.855 -1.162)"/>
  <path id="XMLID_1316_" d="M150.032,252.772c.354-4.365,1.534-7.668,6.134-8.729,5.544-1.18,11.442-1.062,16.987-1.18,9.909-.236,19.818-.236,29.727-.236,4.129,0,8.257,0,12.268.118v-2.477c1.651.826,3.421,1.533,5.072,2.359-.236-.118.472-2.713.118-2.949-1.769-.826-3.421-1.534-5.19-2.359,0-1.534-.118-3.185-.118-4.718a44.691,44.691,0,0,1,4.954,2.123c-.236-.118.354-2.005,0-2.123a42.739,42.739,0,0,0-5.072-2.831c0-1.769-.118-3.539-.118-5.308,1.533.826,3.185,1.651,4.718,2.6,0,0,.118-1.18.118-1.3a4.779,4.779,0,0,0,0-1.3c-1.651-1.062-3.3-2.005-4.836-3.067,0-1.533,0-3.067-.118-4.6,2.123.708,4.247,1.416,6.37,2.241-.118-.118.354-2.005,0-2.241-2.123-1.062-4.365-2.005-6.488-2.949v-2.713c0-.118,0-1.887.236-1.887,4.365.708,9.437,1.062,13.684,2.6,3.775,1.416,6.016,5.072,8.493,8.021,6.488,7.668,12.622,15.571,19.11,23.239,5.19,0,10.381,0,15.571-.118a65.97,65.97,0,0,1-3.067-23.946c.118-2.123-.118-4.247,1.18-5.9,2.949-3.3,9.673-3.421,13.566-2.831,11.088,1.651,22.059,9.083,31.732,14.273,9.319,4.954,18.52,10.263,27.485,15.689a613.571,613.571,0,0,1,104.515,79.978c17.812,16.869,50.134,53.437,50.252,53.319,11.914-.944-3.893-18.284-7.2-22.413-5.19-6.724-10.381-13.448-15.807-20.172-10.617-13.33-21.705-26.188-33.619-38.456a286.571,286.571,0,0,0-39.635-34.091c-13.684-9.555-29.373-15.925-42.7-25.716-12.15-8.847-20.761-21.351-18.048-36.686h0a851.257,851.257,0,0,1,99.324,78.445c30.552,28.193,58.981,58.863,83.4,92.6,12.74.708,23.121,9.2,24.89,22.177,1.416,10.263-2.241,21.469-10.735,27.839-11.678,8.729-29.137,6.134-37.63-5.662a28.768,28.768,0,0,1-3.421-26.188c-51.667-58.509-111.12-112.418-179.3-151.11-8.611-4.836-17.812-11.088-27.131-14.273-4.247-1.416-11.8.59-15.807,3.421,1.887,6.488,3.657,12.976,5.78,19.346.826,0,1.651.118,2.477.118h1.416a.116.116,0,0,1,.118.118c5.78.236,11.678.472,17.458.708,5.072.236,15.335-1.3,19.582,2.123,2.949,2.359,2.359,7.314,2.359,10.617.118,8.257.118,16.515.118,24.772,0,16.4-.236,32.911-.59,49.308-.236,7.9-.118,15.925-.708,23.828-.236,3.893-.944,7.432-3.3,10.5.826,2.477,1.416,6.252,2.123,8.729,1.18,4.247,2.477,8.493,3.775,12.74,0,.118.118.354.118.472,8.847,3.3,16.987,9.2,19.582,18.638,1.887,6.842.354,14.273-2.831,20.525-4.719,9.555-14.627,16.869-25.716,15.1-9.909-1.534-20.29-10.145-22.885-20.054a18.66,18.66,0,0,1-.354-3.3c-.59-8.847.118-19.818,7.9-24.772-1.3-9.319-4.129-18.874-6.842-27.839-22.413,1.887-45.062,1.651-67.474,1.769-13.212.118-26.306.118-39.517,0-8.611-.118-20.761,1.416-28.783-2.241-7.078-3.185-7.2-9.909-7.2-16.633-.118-11.324-.118-22.531-.118-33.855,0-11.206-.118-22.413-.118-33.619C150.15,271.292,149.324,261.855,150.032,252.772Zm365.683,158.9c3.185.354,12.5,1.18,10.735-4.483-1.062-3.067-5.19-1.769-7.786-2.6-7.9-2.477-12.622-11.088-8.021-19.11.472-.708-.118-2.831-.118-2.831-.118.118-.118.236-.236.354-2.123.118-4.836,7.314-5.19,8.847a19.952,19.952,0,0,0-.708,6.488C504.508,405.3,508.519,410.841,515.715,411.667ZM319.426,381a88.41,88.41,0,0,0-6.606-17.93v-.236H312.7c0-.118-.118-.236-.118-.354a.913.913,0,0,1-.118.354,36.793,36.793,0,0,1-10.145.708c-.236,0-.118,2.477-.118,2.713.944,3.775,3.657,6.724,6.252,9.437,2.477,2.6,6.842,7.9,10.735,7.9C319.661,383.592,319.426,381.233,319.426,381Zm-21.233,38.22c2.005,9.319,12.976,13.212,21.469,12.15.354,0,.354-2.831.118-2.831a23.618,23.618,0,0,1-9.2-3.893,21.432,21.432,0,0,1-5.662-6.488c-2.241-4.011-.826-13.684-.59-13.8.59-.354.118-2.949-.118-2.831C299.018,405.3,296.895,412.847,298.192,419.217ZM177.4,272.707c.118,20.054.236,40.225.236,60.279,0,6.016-1.062,13.212.708,18.992,1.651,5.426,6.606,7.2,11.8,7.55,18.992,1.416,38.338.826,57.448.826,18.52,0,37.512.472,56.032-1.18h.118c9.791.118,12.858-6.724,12.976-15.453.236-16.161-.118-32.322.354-48.365.236-7.786.354-15.571.472-23.357,0-4.6,1.18-11.088-.354-15.571-1.769-5.072-8.611-4.011-12.858-4.129-6.252-.236-12.386-.472-18.638-.708l-.118-.118h-1.062a11.443,11.443,0,0,1-2.005-.118c-.118,0-.118,0-.118.118-22.531.708-45.179-.118-67.592-.118-8.139,0-16.279,0-24.418.354-3.893.236-9.673-.354-11.8,3.657C175.866,260.085,177.4,267.635,177.4,272.707Z" transform="translate(304.285 -0.199)"/>
  <g id="XMLID_1315_" transform="translate(749.104 32.451)">
    <path id="XMLID_475_" d="M252.142,58.7c-17.93,11.088-39.517,14.273-60.515,16.279-12.622,1.18-25.952,1.769-37.276-4.011-.59,3.775,4.011,6.016,7.786,6.724,30.552,5.78,61.93-4.6,89.769-18.4" transform="translate(-154.115 -57.281)"/>
    <g id="XMLID_470_" transform="translate(0)">
      <path id="XMLID_474_" d="M252.059,60.332c-14.391,8.493-30.906,12.386-47.3,14.745S169.84,80.031,154.269,72.6c.118-.59.118-1.18.236-1.887,0,7.2,16.751,6.96,21.233,7.2a113.927,113.927,0,0,0,26.07-2.123c17.458-3.3,34.091-10.027,50.016-17.93-.236.118.472,2.831-.118,3.185-18.166,8.847-37.276,16.4-57.33,18.992a105.658,105.658,0,0,1-29.255-.118c-5.308-.826-11.088-2.123-11.088-8.375a10.324,10.324,0,0,1,.236-1.887c15.1,7.2,32.44,4.718,48.482,2.949,17.34-2.005,34.209-5.9,49.19-15.1.354-.118.708,2.477.118,2.831Z" transform="translate(-154.033 -57.497)"/>
    </g>
  </g>
  <g id="XMLID_1314_" transform="translate(901.035 11.233)">
    <path id="XMLID_468_" d="M46.413,57.565c11.56-5.308,23.239-10.5,35.625-13.684S107.4,39.517,119.9,42.23c-2.831,1.887-6.488,2.005-9.909,2.241a198.291,198.291,0,0,0-64.289,15.1,3.17,3.17,0,0,1,3.657-3.185" transform="translate(-45.7 -39.293)"/>
    <g id="XMLID_463_" transform="translate(0.005)">
      <path id="XMLID_467_" d="M46.345,56.249c23-10.617,47.657-20.643,73.373-15.217.354.118.236,2.713-.118,2.949-4.954,2.713-10.735,2.241-16.279,2.713a191.028,191.028,0,0,0-20.054,2.949A199.505,199.505,0,0,0,45.519,61.2V58.49c.354-2.123,1.18-3.3,3.657-3.3.118,0,.118,2.713-.118,2.713-2.005.236-3.067.708-3.539,3.067V58.254A199.842,199.842,0,0,1,83.267,46.576a171.445,171.445,0,0,1,18.992-2.831c5.78-.59,12.15,0,17.34-2.831a24.654,24.654,0,0,1-.118,2.949c-25.716-5.308-50.37,4.6-73.373,15.217.118.118-.472-2.477.236-2.831Z" transform="translate(-45.519 -39.51)"/>
    </g>
  </g>
  <g id="XMLID_1313_" transform="translate(905.127 118.415)">
    <path id="XMLID_461_" d="M101.685,131.109a3.894,3.894,0,0,1,3.539,1.18,3.981,3.981,0,0,1-.826,5.9c-2.005,1.062-4.954-.236-5.19-2.6-.236-2.241,2.477-4.365,4.483-3.421" transform="translate(-99.166 -130.249)"/>
    <g id="XMLID_456_" transform="translate(0)">
      <path id="XMLID_460_" d="M101.594,130.405c6.252-.708,5.9,9.673.59,8.847-5.19-.826-3.3-9.555,1.416-7.668.236.118-.118,1.3,0,1.3a3.583,3.583,0,0,0-4.011,1.533c-1.062,1.651,1.062,3.067,2.477,3.421a3.145,3.145,0,0,0,3.657-2.005c.944-2.6-2.123-4.247-4.247-3.893,0,0-.118-1.416.118-1.534Z" transform="translate(-99.075 -130.371)"/>
    </g>
  </g>
  <g id="XMLID_1312_" transform="translate(820.053 118.173)">
    <path id="XMLID_454_" d="M174.17,131.515a3.125,3.125,0,0,1,4.011,1.534,3.92,3.92,0,0,1-1.3,4.365,4.946,4.946,0,0,1-4.6.708,3.342,3.342,0,0,1-2.005-1.3c-1.3-1.534-.59-4.247,1.062-5.308a5.928,5.928,0,0,1,5.78,0" transform="translate(-169.387 -130.059)"/>
    <g id="XMLID_449_" transform="translate(0)">
      <path id="XMLID_453_" d="M174.265,130.8c2.831-.944,4.6,1.416,4.365,4.011-.236,3.185-3.185,4.954-6.252,4.011-2.477-.708-3.3-3.067-2.713-5.426.944-3.421,4.718-3.893,7.55-2.477.354.118,0,1.416,0,1.416-1.651-.708-3.539-1.18-5.19-.354a3.566,3.566,0,0,0-2.005,2.123c-.59,1.769.944,2.949,2.359,3.421,1.651.472,4.129.118,5.19-1.416a3.159,3.159,0,0,0,.118-3.067,3.7,3.7,0,0,0-1.3-.944,2.41,2.41,0,0,0-2.359.118c.118.118-.236-1.18.236-1.415Z" transform="translate(-169.482 -130.166)"/>
    </g>
  </g>
  <g id="XMLID_1311_" transform="translate(700.386 131.369)">
    <path id="XMLID_447_" d="M294.928,143.523a225.512,225.512,0,0,0-89.179,7.668,42.531,42.531,0,0,0-9.319,3.657,23.28,23.28,0,0,0-8.729,8.847c36.332-4.011,74.434-4.011,106.756-20.879" transform="translate(-187.582 -141.225)"/>
    <g id="XMLID_442_">
      <path id="XMLID_446_" d="M294.838,144.358a219.372,219.372,0,0,0-56.976.59,226.065,226.065,0,0,0-27.957,5.78c-9.083,2.477-17.1,5.308-22.295,13.684v-1.3c35.979-3.893,73.962-4.129,106.874-21.115-.118.118.236,1.533,0,1.769-33.147,16.751-70.659,16.633-106.756,20.643a2.412,2.412,0,0,1,0-1.3c4.718-7.786,11.8-10.735,20.172-13.212a255.224,255.224,0,0,1,27.839-6.134,235.931,235.931,0,0,1,59.1-1.062c.354.236.236,1.651,0,1.651Z" transform="translate(-187.611 -141.353)"/>
    </g>
  </g>
  <g id="XMLID_1310_" transform="translate(630.587 188.991)">
    <g id="XMLID_436_" transform="translate(0)">
      <path id="XMLID_440_" d="M339.879,198.693c-4.6-2.713-9.437-5.19-14.273-7.432-.236-.118.118-1.062,0-1.062,4.718,2.477,9.673,4.483,14.273,7.078.472.236,0,1.416,0,1.416Z" transform="translate(-325.522 -190.2)"/>
    </g>
  </g>
  <g id="XMLID_1309_" transform="translate(712.654 101.463)">
    <g id="XMLID_430_" transform="translate(0)">
      <path id="XMLID_434_" d="M265.5,118.831c-.118-.472-.354-1.062-.472-1.534,0-.236.118-1.3.118-1.3,1.18,1.534,2.477,3.185,3.657,4.718.236.236-.118.944,0,1.062-1.3-1.534-2.477-2.949-3.775-4.483,0-.472.118-.826.118-1.3.118.472.354.944.472,1.534a1.292,1.292,0,0,1,0,.944c.118.236,0,.708-.118.354Z" transform="translate(-265.029 -116)"/>
    </g>
  </g>
  <g id="XMLID_1308_" transform="translate(704.013 101.801)">
    <g id="XMLID_424_" transform="translate(0)">
      <path id="XMLID_428_" d="M272.565,116.3A37.544,37.544,0,0,0,276.1,120.2c.118.118.118.708.118.826s-.118.59-.236.472c-.59-.708-1.18-1.3-1.769-2.005-.59-.59-1.18-1.3-1.769-1.887-.236-.118-.118-.708-.118-.944.118.118.118-.472.236-.354Z" transform="translate(-272.3 -116.287)"/>
    </g>
  </g>
  <g id="XMLID_1307_" transform="translate(695.514 102.163)">
    <g id="XMLID_418_" transform="translate(0)">
      <path id="XMLID_422_" d="M279.771,116.6a14.35,14.35,0,0,1,2.005,1.769,23.9,23.9,0,0,1,1.534,2.123,2.6,2.6,0,0,1,.118.944c0,.118-.118.59-.236.354a7.865,7.865,0,0,0-3.539-3.775c-.354-.236,0-1.534.118-1.416Z" transform="translate(-279.5 -116.594)"/>
    </g>
  </g>
  <g id="XMLID_1306_" transform="translate(684.629 100.991)">
    <g id="XMLID_412_" transform="translate(0)">
      <path id="XMLID_416_" d="M292.546,121.262c-1.416-1.534-2.831-2.949-4.247-4.483-.236-.236.236-1.062,0-1.18,1.416,1.416,2.831,2.831,4.365,4.247.236.354-.118,1.533-.118,1.416Z" transform="translate(-288.231 -115.6)"/>
    </g>
  </g>
  <g id="XMLID_1305_" transform="translate(677.182 101.109)">
    <g id="XMLID_406_" transform="translate(0)">
      <path id="XMLID_410_" d="M298.65,121.244a23.2,23.2,0,0,0-3.067-4.483c-.236-.236.118-.944,0-1.062a17.6,17.6,0,0,1,3.185,4.129,2.3,2.3,0,0,1,.118.944s-.118.59-.236.472Z" transform="translate(-295.5 -115.7)"/>
    </g>
  </g>
  <g id="XMLID_1304_" transform="translate(671.29 65.72)">
    <path id="XMLID_404_" d="M316.479,100.691c-14.509,5.426-30.67,5.072-45.769,1.769S241.337,92.788,227.3,86.3c1.651,4.011,5.78,6.37,9.673,8.139a154.271,154.271,0,0,0,38.692,12.386c14.037,2.6,29.844,2.713,41.287-6.016" transform="translate(-227.222 -85.592)"/>
    <g id="XMLID_399_" transform="translate(0)">
      <path id="XMLID_403_" d="M316.3,101.507c-31.024,9.909-60.869-1.3-89.062-14.391a5.742,5.742,0,0,1,.118-1.416c3.539,6.96,12.622,9.673,19.464,12.386a164.188,164.188,0,0,0,24.654,7.314c15.1,3.185,32.2,4.483,45.415-5.072.118-.118.354,1.3,0,1.534-13.33,9.437-30.2,8.375-45.533,5.19A151.137,151.137,0,0,1,244.7,98.912c-6.37-2.6-14.273-5.19-17.576-11.678-.118-.118-.118-1.534.118-1.416,27.131,12.622,59.217,25.834,89.062,14.391.118-.118.354,1.18,0,1.3Z" transform="translate(-227.042 -85.7)"/>
    </g>
  </g>
  <g id="XMLID_1303_" transform="translate(870.577 12.509)">
    <g id="XMLID_393_" transform="translate(0)">
      <path id="XMLID_397_" d="M128.448,62.425a27.191,27.191,0,0,1-9.791-1.769c-.236-.118-.236-1.3,0-1.416,2.005-1.651,4.6-1.887,6.606-3.067,3.421-2.241.236-6.606-1.769-9.083-.708-.826-1.534-1.651-2.359-2.477-.472-.354-.826-.826-1.3-1.18-2.005-2.6-3.067-2.477-3.3.236-1.534,2.831-.826,7.55-.944,10.735-.118,9.437-1.3,21.587,5.78,28.783,4.6,4.6,10.853,8.257,16.4,11.442a6.728,6.728,0,0,1-.118,1.534c-3.421-4.718-8.375-9.555-8.965-15.571-.59-6.134,0-12.74.118-18.992,0-.472.236-1.534.236-.354,0,5.308-.354,10.735-.118,15.925.354,7.2,4.954,11.8,8.965,17.458a5.765,5.765,0,0,1-.118,1.534,138.969,138.969,0,0,1-14.038-9.437c-2.949-2.359-6.252-4.129-6.96-7.9-1.534-8.729-1.651-17.694-1.534-26.659,0-2.477-1.651-13.33,3.3-11.324,2.949,1.3,6.488,6.252,7.9,8.965a15.167,15.167,0,0,1,1.416,6.842c0,.118,0,.708-.118.708a13.9,13.9,0,0,0-8.965,3.185V59.122a23.6,23.6,0,0,0,9.791,1.769c.118.118.118,1.533-.118,1.533Z" transform="translate(-114.972 -40.592)"/>
    </g>
  </g>
  <g id="XMLID_1302_" transform="translate(862.083 57.07)">
    <g id="XMLID_387_" transform="translate(0)">
      <path id="XMLID_391_" d="M141.974,80.765a19.485,19.485,0,0,1-3.185,7.55c-.118.118-.118-.826-.118-.944,0-.472-.118-1.18.118-1.534A24.381,24.381,0,0,0,141.5,79c.118-.472.118-.944.472-.354.354.472.118,1.651,0,2.123Z" transform="translate(-138.642 -78.367)"/>
    </g>
  </g>
  <g id="XMLID_1301_" transform="translate(851.984 56.841)">
    <g id="XMLID_381_" transform="translate(0)">
      <path id="XMLID_385_" d="M151.317,80.918c-1.651.59-3.3,2.123-4.719,3.3a57.293,57.293,0,0,0-4.836,4.483c.354-.354-.472-2.241.118-2.713a45.949,45.949,0,0,1,4.247-4.011c1.651-1.416,3.657-2.359,5.308-3.775,0-.354.708,2.359-.118,2.713Z" transform="translate(-141.661 -78.173)"/>
    </g>
  </g>
  <g id="XMLID_1300_" transform="translate(858.302 54.16)">
    <g id="XMLID_375_" transform="translate(0)">
      <path id="XMLID_379_" d="M147.054,80.5c-5.544-.59-10.971-1.18-16.515-1.769-.354,0,0-2.831.118-2.831a60,60,0,0,0,16.515,1.651c.354,0,.354,3.067-.118,2.949Z" transform="translate(-130.386 -75.9)"/>
    </g>
  </g>
  <g id="XMLID_1299_" transform="translate(871.785 57.161)">
    <g id="XMLID_369_" transform="translate(0)">
      <path id="XMLID_373_" d="M134.008,88.537c-2.005-2.6-4.365-4.954-6.488-7.314-.354-.354-.236-1.3-.118-1.769,0-.118.118-1.3.354-.944a93.965,93.965,0,0,0,6.488,7.2c.354.354.236,1.416.236,1.769,0,.118-.236,1.3-.472,1.062Z" transform="translate(-127.284 -78.444)"/>
    </g>
  </g>
  <g id="XMLID_1298_" transform="translate(848.418 65.956)">
    <g id="XMLID_363_" transform="translate(0)">
      <path id="XMLID_367_" d="M160.369,88.849a488.7,488.7,0,0,1-49.19,0,5.3,5.3,0,0,1,.118-2.713,402.593,402.593,0,0,0,49.19-.236c.354,0,.472,2.949-.118,2.949Z" transform="translate(-111.05 -85.9)"/>
    </g>
  </g>
  <g id="XMLID_1297_" transform="translate(899.894 76.101)">
    <g id="XMLID_357_" transform="translate(0)">
      <path id="XMLID_361_" d="M108.438,97.567v.472c0-.354-.118-3.421.59-3.539.708,0,.59,2.359.59,2.831,0,6.252.118,12.5.236,18.756,0,.944-.59,5.662-.708,2.241-.236-6.724-.472-13.448-.826-20.29.354-.472.826-.944,1.18-1.416a19.169,19.169,0,0,1-.354,4.483c-.236,1.18-.236,1.769-.944.826-.472-.826,0-3.421.236-4.365Z" transform="translate(-108 -94.5)"/>
    </g>
  </g>
  <g id="XMLID_1296_" transform="translate(894.252 76.924)">
    <g id="XMLID_351_" transform="translate(0)">
      <path id="XMLID_355_" d="M114.566,98.739a122.854,122.854,0,0,0-.472,17.458,10.213,10.213,0,0,1-.236,3.775c-.236.708-.354.708-.472-.236a166.7,166.7,0,0,1-.118-21.705c0-.59,0-2.831.826-2.831.708-.118.472,3.3.472,3.539Z" transform="translate(-112.968 -95.197)"/>
    </g>
  </g>
  <g id="XMLID_1295_" transform="translate(885.58 77.023)">
    <g id="XMLID_345_" transform="translate(0)">
      <path id="XMLID_349_" d="M121.7,97.191c0,6.37.118,12.858.236,19.228,0,.944-.59,5.662-.708,2.241-.236-6.606-.472-13.33-.826-19.936-.118-2.123,1.3-5.662,1.3-1.534Z" transform="translate(-120.4 -95.281)"/>
    </g>
  </g>
  <g id="XMLID_1294_" transform="translate(880.249 76.337)">
    <g id="XMLID_339_" transform="translate(0)">
      <path id="XMLID_343_" d="M126.238,97.649a149.731,149.731,0,0,0,.118,17.812c0,.944.354,3.067-.236,3.775-.354.472-.354.944-.472-.236-.59-7.078-.826-14.273-.708-21.351,0-.354,0-2.949.708-2.949s.59,2.713.59,2.949Z" transform="translate(-124.911 -94.7)"/>
    </g>
  </g>
  <g id="XMLID_1293_" transform="translate(863.992 77.023)">
    <g id="XMLID_333_" transform="translate(0)">
      <path id="XMLID_337_" d="M139.805,97.191c.118,6.134.354,12.268.472,18.52,0,2.005-1.18,5.544-1.3,1.534-.118-6.134-.236-12.268-.472-18.52-.118-2.123,1.18-5.662,1.3-1.534Z" transform="translate(-138.5 -95.281)"/>
    </g>
  </g>
  <g id="XMLID_1292_" transform="translate(858.177 76.337)">
    <g id="XMLID_327_" transform="translate(0)">
      <path id="XMLID_331_" d="M144.832,97.649a141.831,141.831,0,0,0,.354,17.34c.118,1.18-.944,6.488-1.18,2.949-.472-6.842-.59-13.566-.472-20.29,0-.354,0-2.949.708-2.949s.59,2.713.59,2.949Z" transform="translate(-143.492 -94.7)"/>
    </g>
  </g>
  <g id="XMLID_1291_" transform="translate(844.182 76.573)">
    <g id="XMLID_321_" transform="translate(0)">
      <path id="XMLID_325_" d="M157.051,97.967c-.354,6.842-.59,13.566-.944,20.407-.118,3.421-.708,1.416-.708-.826.118-6.606.236-13.094.354-19.7,0-.354,0-2.949.708-2.949.59.118.59,2.831.59,3.067Z" transform="translate(-155.4 -94.9)"/>
    </g>
  </g>
  <g id="XMLID_1290_" transform="translate(851.696 76.559)">
    <g id="XMLID_315_" transform="translate(0)">
      <path id="XMLID_319_" d="M150.606,96.79a117.806,117.806,0,0,1-1.18,22.295c-.118,1.062-.236.708-.472,0-.354-.944,0-2.713.118-3.657a69.218,69.218,0,0,0,.354-16.4c-.236-1.887,1.062-6.842,1.18-2.241Z" transform="translate(-148.801 -94.888)"/>
    </g>
  </g>
  <path id="XMLID_1283_" d="M280.377,155.086a13.432,13.432,0,0,1,10.735-10.971c8.257-1.534,17.1-1.18,25.6-1.416h.118c1.416,0,11.8.708,15.571.826,2.949.118,7.668-.354,9.673,2.123,1.416,1.769,1.3,4.718.708,6.842-1.769,5.78-10.145,8.375-14.745,11.324a58.78,58.78,0,0,1-25.008,8.729c-3.539.472-9.083,2.005-12.268,0-2.831-1.769-4.836-6.37-6.724-9.083C282.028,160.748,279.669,158.625,280.377,155.086Zm55.56.59c.118-.826.354-3.067-.354-3.657-2.6-2.123-4.718-5.072-6.842-7.55-.472-.59-.826,1.651-.826,1.887-.118.826-.354,2.713.354,3.421,2.359,2.6,4.954,4.954,6.842,7.786C335.583,158.271,335.937,155.912,335.937,155.676Zm-8.257,5.544c.354.59.826-1.769.826-2.005.118-.944.354-2.949-.354-3.657-1.769-1.769-3.067-4.011-4.719-5.9A60.275,60.275,0,0,0,318.125,144c.118.118-.354,2.477-.354,2.831,0,.59-.236,2.359.118,2.831C321.545,153.2,325.438,156.973,327.68,161.22Zm-10.263,4.247c1.769-3.3.118-6.134-2.005-8.493-3.657-4.247-7.432-8.375-10.853-12.74a23.1,23.1,0,0,1-.354,2.359,8.946,8.946,0,0,0,.118,3.067c.236.59.826,1.3.826.944,1.887,2.123,3.657,4.365,5.426,6.606,1.769,2.123,4.483,4.6,5.9,7.078C316.591,164.759,316.827,166.646,317.417,165.467Zm-8.611,4.011c.354.59.826-1.769.826-2.005.118-.826.354-3.067-.354-3.657-2.6-2.241-4.718-5.662-6.842-8.493-2.241-2.949-4.718-5.662-6.842-8.729.118.236-.354,2.359-.354,2.831,0,.59-.236,2.359.236,2.831,2.359,2.6,4.483,5.662,6.724,8.493C304.323,163.7,307.036,166.41,308.806,169.477Zm-23.121-12.622c3.775,5.072,9.2,9.2,12.5,14.627.354.59.826-1.769.826-2.005.118-.708.354-3.067-.354-3.657-2.359-1.769-4.011-4.6-6.016-6.724-2.241-2.477-4.365-5.308-6.96-7.55.118,0-.354,2.359-.354,2.6C285.449,154.85,285.213,156.266,285.685,156.855Z" transform="translate(355.366 -9.741)"/>
  <g id="XMLID_1282_" transform="translate(772.057 101.733)">
    <path id="XMLID_313_" d="M218.211,119.2a130.034,130.034,0,0,1-.118,23.474,4.1,4.1,0,0,1-3.893-2.005,13.727,13.727,0,0,1-1.534-4.365c-1.18-6.016-1.534-12.5,1.416-17.93a3.1,3.1,0,0,1,1.887-1.769c1.3-.236,2.477,1.062,2.713,2.359s0,2.713.236,4.011" transform="translate(-211.673 -116.167)"/>
    <g id="XMLID_308_" transform="translate(0)">
      <path id="XMLID_312_" d="M218.256,118.908a149.009,149.009,0,0,1-.118,24.064s0,.59-.118.59c-7.078-.59-6.724-12.976-6.134-18.284.236-2.241,1.062-7.9,3.539-8.847,3.775-1.3,3.421,4.011,3.657,6.252,0,.236-.118,1.651-.118,1.062-.118-1.887-.708-6.606-2.949-6.134-4.718.826-3.421,18.52-3.775,15.1.236,2.005.354,4.247,1.416,6.134,1.18,2.123,2.241,4.129,4.483,1.887.944-.944.354-5.426.354-6.724.118-4.836-.118-9.555-.472-14.391,0-.236.236-1.534.236-.708Z" transform="translate(-211.6 -116.229)"/>
    </g>
  </g>
  <g id="XMLID_1281_" transform="translate(746.037 102.126)">
    <path id="XMLID_306_" d="M240.078,119.552c.472,8.257.826,16.515,1.062,24.654-2.123.708-4.011-1.416-5.072-3.3a24.873,24.873,0,0,1,.472-22.531,2.839,2.839,0,0,1,.708-.944,2.069,2.069,0,0,1,2.477.708,7,7,0,0,1,.59,2.713c0,2.123.118,4.365.118,6.488" transform="translate(-233.59 -116.441)"/>
    <g id="XMLID_301_" transform="translate(0)">
      <path id="XMLID_305_" d="M240.106,119.438c.472,8.257.826,16.515,1.062,24.654a2.6,2.6,0,0,1-.118.944c-7.55.826-8.021-14.038-7.314-19.11.354-2.123,1.651-10.027,4.719-9.319,2.949.708,1.769,9.083,1.887,10.617,0,.236-.118,1.3-.118.472-.118-2.713.354-12.5-3.775-8.729a19.845,19.845,0,0,0-1.887,4.6c-.118,4.011-.118,8.021-.236,12.032.236.944,2.241,8.021,4.836,7.9,2.713-.118,1.3-8.257,1.3-10.381-.236-4.483-.354-8.965-.708-13.33,0-.472.354-1.3.354-.354Z" transform="translate(-233.5 -116.562)"/>
    </g>
  </g>
  <g id="XMLID_1280_" transform="translate(566.735 49.991)">
    <path id="XMLID_299_" d="M401.43,86.458c-14.509-6.842-32.676-9.437-48.718-9.555-4.718,0-10.027,0-13.212-3.539,20.172-2.005,43.056,3.3,60.515,12.268" transform="translate(-339.5 -72.263)"/>
    <g id="XMLID_294_" transform="translate(0.029)">
      <path id="XMLID_298_" d="M401.232,87.387c-10.381-4.836-21.469-7.432-32.793-8.729-5.308-.59-10.5-.826-15.807-.944-4.836-.118-9.437,0-13.212-3.539a2.412,2.412,0,0,1,0-1.3c20.643-2.241,42.23,3.067,60.515,12.268.236.118-.118,1.3,0,1.3A118.034,118.034,0,0,0,339.42,74.058v-1.3c3.421,3.185,7.9,3.421,12.5,3.539,5.544.118,11.088.354,16.633.944,11.324,1.3,22.413,3.775,32.794,8.493.236.236-.118,1.651-.118,1.651Z" transform="translate(-339.331 -72.366)"/>
    </g>
  </g>
  <g id="XMLID_1279_" transform="translate(660.102 97.8)">
    <g id="XMLID_288_" transform="translate(0)">
      <path id="XMLID_292_" d="M312.781,114.316a.221.221,0,0,0-.354,0c-.236,0-.236-1.416,0-1.416a.221.221,0,0,0,.354,0c.236-.118.236,1.534,0,1.416Z" transform="translate(-312.25 -112.895)"/>
    </g>
  </g>
  <g id="XMLID_1278_" transform="translate(652.543 90.138)">
    <g id="XMLID_282_" transform="translate(0)">
      <path id="XMLID_286_" d="M320.419,115.483a63.472,63.472,0,0,1-8.021-7.9c-.236-.236.236-1.062,0-1.18a62.553,62.553,0,0,0,8.021,7.786c.236.236-.118,1.18,0,1.3Z" transform="translate(-312.33 -106.4)"/>
    </g>
  </g>
  <g id="XMLID_1277_" transform="translate(647.943 91.908)">
    <g id="XMLID_276_" transform="translate(0)">
      <path id="XMLID_280_" d="M323.825,115.568a66.315,66.315,0,0,0-5.19-6.252c-.236-.236.236-1.18,0-1.416,1.651,2.005,3.3,4.365,5.19,6.252.354.354,0,1.416,0,1.416Z" transform="translate(-318.567 -107.9)"/>
    </g>
  </g>
  <g id="XMLID_1276_" transform="translate(632.469 91.829)">
    <g id="XMLID_270_" transform="translate(0)">
      <path id="XMLID_274_" d="M337.7,108.974c-.59,4.6-5.19,7.314-9.437,4.954a2.01,2.01,0,0,1,0-1.18,26.948,26.948,0,0,1,5.426-4.247c-.118.118.236.944,0,1.062a23.349,23.349,0,0,0-5.308,4.247v-1.18a6.21,6.21,0,0,0,9.2-4.6c0-.708.236.708.118.944Z" transform="translate(-328.172 -107.834)"/>
    </g>
  </g>
  <g id="XMLID_1275_" transform="translate(626.709 91.436)">
    <g id="XMLID_264_" transform="translate(0)">
      <path id="XMLID_268_" d="M342.122,109.034a29.533,29.533,0,0,1-6.724,5.426c-.118.118-.354-1.18,0-1.416a27.181,27.181,0,0,0,6.724-5.544c0,.118.236,1.3,0,1.534Z" transform="translate(-335.211 -107.5)"/>
    </g>
  </g>
  <g id="XMLID_1274_" transform="translate(636.834 86.599)">
    <g id="XMLID_258_" transform="translate(0)">
      <path id="XMLID_262_" d="M334.827,108.236c-5.19-.236-10.381-.236-15.689-.236a2.413,2.413,0,0,1,0-1.3,61.129,61.129,0,0,1,6.842-3.3c-.118,0,.236,1.18,0,1.3a61.663,61.663,0,0,0-6.842,3.421v-1.3c5.19,0,10.381.118,15.689,0,.236,0,.236,1.416,0,1.416Z" transform="translate(-319.05 -103.4)"/>
    </g>
  </g>
  <g id="XMLID_1273_" transform="translate(778.595 110.959)">
    <g id="XMLID_252_" transform="translate(0)">
      <path id="XMLID_256_" d="M216.872,127.648a254.729,254.729,0,0,0-31.5-.826,20.881,20.881,0,0,1,.118-2.713c10.5-.118,21-.118,31.5.59.472,0,.236,2.949-.118,2.949Z" transform="translate(-185.376 -124.05)"/>
    </g>
  </g>
  <g id="XMLID_1272_" transform="translate(752.761 111.294)">
    <g id="XMLID_246_" transform="translate(0)">
      <path id="XMLID_250_" d="M236.914,127.361c-6.37-.236-12.858-.354-19.228-.236a19.109,19.109,0,0,1,.118-2.6c6.37-.236,12.858-.236,19.228-.118.354,0,.354,2.949-.118,2.949Z" transform="translate(-217.686 -124.334)"/>
    </g>
  </g>
  <g id="XMLID_1271_" transform="translate(595.68 111.372)">
    <g id="XMLID_240_" transform="translate(0)">
      <path id="XMLID_244_" d="M390.081,128.057q-67.239-1.946-134.477-.118c-1.887,0-14.391-.944-13.094,2.477.354.944,3.657,1.651,4.365,2.005a40.671,40.671,0,0,1,6.37,3.3c6.37,4.129,12.5,10.381,15.217,17.576a17.663,17.663,0,0,1,.472,11.56c-1.3,3.421-4.365,5.662-6.606,8.493a29.844,29.844,0,0,0-6.488,18.638c0,.944-.354,2.831-.354.826-.118-6.842,1.062-13.33,4.719-19.228,3.539-5.78,10.5-9.083,8.139-17.223-1.3-4.365-4.954-8.729-8.139-11.8a42.072,42.072,0,0,0-11.678-8.257c-2.6-1.18-6.606-1.887-7.668-4.954-1.18-3.539,1.18-5.426,4.365-5.78,11.56-1.18,23.475-.59,35.035-.826,12.5-.236,24.89-.354,37.394-.354q36.273,0,72.429.944c.236-.236.236,2.713,0,2.713Z" transform="translate(-240.55 -124.4)"/>
    </g>
  </g>
  <g id="XMLID_1270_" transform="translate(473.258 129.066)">
    <g id="XMLID_234_" transform="translate(0)">
      <path id="XMLID_238_" d="M474.506,142.231c-3.657,4.718-7.432,9.555-11.206,14.155-1.887,2.359-3.893,4.6-5.78,6.96-3.067,3.539-4.6,4.954-4.6,10.145.118,12.5,1.769,25.244,2.6,37.748,0,.354-.236,3.185-.236,2.123-.59-8.139-1.18-16.4-1.769-24.536-.472-6.488-2.123-13.92-1.18-20.29.59-3.893,4.129-6.842,6.606-9.673,5.308-6.37,10.617-12.74,15.571-19.464-.118,0,.472,2.123,0,2.831Z" transform="translate(-452.042 -139.4)"/>
    </g>
  </g>
  <g id="XMLID_1269_" transform="translate(476.323 181.192)">
    <g id="XMLID_228_">
      <path id="XMLID_232_" d="M488.734,184.428c-.472,6.842-4.129,13.094-10.5,16.043-5.662,2.6-12.032,1.18-18.048.708-6.96-.708-13.919-1.062-20.879-1.18-27.6-.472-55.088,2.6-82.456,5.662,0,0-.118-1.416,0-1.416,23.592-2.6,47.185-5.308,70.9-5.662a310.937,310.937,0,0,1,34.8,1.416c4.954.472,10.145,1.416,14.981-.59a17.868,17.868,0,0,0,10.97-15.335c0-1.062.236-.118.236.354Z" transform="translate(-356.8 -183.589)"/>
    </g>
  </g>
  <path id="XMLID_1263_" d="M467.932,152.887c1.651-4.365,6.37-10.5,10.735-12.15,3.421-1.3,20.29-3.3,23.239,1.416,5.308,5.308-5.19,16.161-8.257,19.7a64.432,64.432,0,0,1-8.139,7.9c-1.416,1.18-4.954,5.072-6.842,4.954-2.005-.118-2.949-4.129-3.539-5.426-1.769-3.657-4.6-6.252-6.488-9.791A7.287,7.287,0,0,1,467.932,152.887Zm20.761-7.314s0-.236-.118-.236c-.944,0-1.416.826-2.123,1.416-.826.826-1.769,1.651-2.6,2.359-1.887,1.651-3.775,3.185-5.78,4.719-.236.236.118,1.18,0,1.416,1.769-1.3,3.539-2.713,5.308-4.129.944-.826,1.769-1.534,2.713-2.359C486.1,148.64,488.811,146.163,488.693,145.573Zm-9.083,20.407c6.488-5.426,12.622-11.206,18.874-17.1.236-.236,0-1.416,0-1.416a213.676,213.676,0,0,1-18.756,16.987C479.256,164.683,479.728,165.863,479.61,165.981Zm-1.769-4.954a179.649,179.649,0,0,0,16.043-13.8c.236-.236,0-1.416,0-1.416a147.859,147.859,0,0,1-15.925,13.92C477.6,159.846,478.076,160.908,477.84,161.026Zm-.708-12.15c2.123-1.416,4.011-3.185,6.016-4.6.354-.236,0-1.416,0-1.416a31.737,31.737,0,0,1-5.9,4.6C476.9,147.7,477.251,148.758,477.133,148.876Z" transform="translate(-25.647 -10.373)"/>
  <g id="XMLID_1262_" transform="translate(452.967 96.154)">
    <g id="XMLID_222_" transform="translate(0)">
      <path id="XMLID_226_" d="M488.712,117.28c-.472-.708-1.18-1.416-1.769-2.123-.472-.708-.944-1.416-1.416-2.241-.118-.118,0-.472,0-.708,0-.118.118-.59.118-.708a11.767,11.767,0,0,0,1.416,2.241,7.727,7.727,0,0,0,1.769,2.123c.236.118.118.59.118.826-.118,0-.118.826-.236.59Z" transform="translate(-485.475 -111.5)"/>
    </g>
  </g>
  <g id="XMLID_1261_" transform="translate(449.038 96.783)">
    <g id="XMLID_216_" transform="translate(0)">
      <path id="XMLID_220_" d="M491.877,117.3a11.509,11.509,0,0,1-2.713-4.011,1.3,1.3,0,0,1,0-.944c0-.118.118-.472.236-.236A10.1,10.1,0,0,0,492.113,116c.236.118.118.708.118.944-.236-.118-.236.472-.354.354Z" transform="translate(-489.075 -112.033)"/>
    </g>
  </g>
  <g id="XMLID_1260_" transform="translate(444.576 96.744)">
    <g id="XMLID_210_" transform="translate(0)">
      <path id="XMLID_214_" d="M495.835,117.9c-.944-1.534-2.005-2.949-3.067-4.483-.236-.354.236-1.18,0-1.416,1.062,1.534,2.005,3.067,3.185,4.483a2.6,2.6,0,0,1,.118.944c-.118,0-.118.59-.236.472Z" transform="translate(-492.7 -112)"/>
    </g>
  </g>
  <g id="XMLID_1259_" transform="translate(439.608 95.447)">
    <g id="XMLID_204_" transform="translate(0)">
      <path id="XMLID_208_" d="M500.277,118.568c-1.416-2.123-2.831-4.247-4.365-6.252-.236-.354.118-1.416.118-1.416,1.416,2.123,2.831,4.247,4.365,6.252.236.354-.118,1.416-.118,1.416Z" transform="translate(-495.831 -110.9)"/>
    </g>
  </g>
  <g id="XMLID_1258_" transform="translate(435.126 95.447)">
    <g id="XMLID_198_" transform="translate(0)">
      <path id="XMLID_202_" d="M504.167,119.275a35.607,35.607,0,0,0-4.954-6.96c-.236-.236.118-1.416.118-1.416,1.769,2.241,3.421,4.483,4.954,6.842a2.655,2.655,0,0,1-.118,1.533Z" transform="translate(-499.131 -110.9)"/>
    </g>
  </g>
  <g id="XMLID_1257_" transform="translate(421.659 95.661)">
    <g id="XMLID_192_" transform="translate(0)">
      <path id="XMLID_196_" d="M513.535,111.457c3.185,9.437,4.011,21.823-3.3,29.726.59-.59-.708-4.011,0-5.072,3.775-5.544,6.96-12.858,2.713-19.346a6.644,6.644,0,0,1-.354-4.011c0-.118.472-2.6.944-1.3Z" transform="translate(-510.015 -111.082)"/>
    </g>
  </g>
  <g id="XMLID_1256_" transform="translate(409.443 95.211)">
    <g id="XMLID_186_" transform="translate(0)">
      <path id="XMLID_190_" d="M522.531,110.7c5.19,8.965,5.662,24.654-2.477,31.968.59-.472-.708-4.011.118-4.954,2.713-3.067,4.6-5.19,4.836-9.437.118-4.129-.472-8.493-2.949-11.914-.944-1.416.59-5.544.472-5.662Z" transform="translate(-519.888 -110.7)"/>
    </g>
  </g>
  <g id="XMLID_1255_" transform="translate(342.178 153.848)">
    <g id="XMLID_180_" transform="translate(0)">
      <path id="XMLID_184_" d="M582.409,164.763a115.93,115.93,0,0,0-.59,12.858c0,.354-.236,3.3-.354,2.477a80.676,80.676,0,0,1-.118-17.694c0-.472.118-2.477.944-1.887.59.708.236,3.539.118,4.247Z" transform="translate(-580.919 -160.409)"/>
    </g>
  </g>
  <g id="XMLID_1254_" transform="translate(332.711 154.396)">
    <g id="XMLID_174_" transform="translate(0)">
      <path id="XMLID_178_" d="M590.6,163.618c-.236,4.6-.236,9.083-.826,13.684-.118.826-.118.944-.354.236-.354-.944,0-2.477,0-3.421a33.169,33.169,0,0,0,0-8.375c-.118-.944-.59-4.011.354-4.718.944-.826.826,2.005.826,2.6Z" transform="translate(-589.196 -160.873)"/>
    </g>
  </g>
  <g id="XMLID_1253_" transform="translate(321.327 154.071)">
    <g id="XMLID_168_" transform="translate(0)">
      <path id="XMLID_172_" d="M600.258,163.314c-.118,3.539.118,7.078-.236,10.617,0,.472-.118,2.123-.826,1.887-.59-.236-.354-3.067-.354-3.421.118-1.416.118-2.831.236-4.129v-1.887c0-.354-.236-2.477,0-.944-.118-.826-.59-4.129.354-4.718.944-.708.826,1.887.826,2.6Z" transform="translate(-598.796 -160.597)"/>
    </g>
  </g>
  <g id="XMLID_1252_" transform="translate(310.405 153.001)">
    <g id="XMLID_162_" transform="translate(0)">
      <path id="XMLID_166_" d="M609.424,163.477c-.236,2.831-.236,5.78-.354,8.611,0,.118,0,2.005-.236,2.005s-.236-1.18-.236-1.416c-.118-2.831,0-5.78-.354-8.611-.118-.708-.354-4.011.59-4.365.826-.236.708,3.3.59,3.775Z" transform="translate(-608.129 -159.69)"/>
    </g>
  </g>
  <g id="XMLID_1251_" transform="translate(379.981 68.194)">
    <g id="XMLID_156_" transform="translate(0)">
      <path id="XMLID_160_" d="M550.394,91.457c-.59,6.488-.472,13.212-.826,19.7-.118,1.416-.354,1.416-.354,0-.118-6.606.354-13.212,0-19.7,0-.354-.118-3.657.708-3.657.826-.118.59,3.185.472,3.657Z" transform="translate(-549.195 -87.797)"/>
    </g>
  </g>
  <g id="XMLID_1250_" transform="translate(374.233 68.09)">
    <g id="XMLID_150_" transform="translate(0)">
      <path id="XMLID_154_" d="M555.218,92.063a54.756,54.756,0,0,0-.826,7.55c-.118,1.18-.118,2.359-.118,3.539a20.677,20.677,0,0,1-.472,5.426c0-.472.354-4.718.472-2.831a4.843,4.843,0,0,0,.118,1.3,10.979,10.979,0,0,1-.118,3.421c-.236.59-.236,1.062-.354,0a152.489,152.489,0,0,1,.354-20.761c0-.472.118-2.477.944-1.887.472.826.118,3.539,0,4.247Z" transform="translate(-553.698 -87.709)"/>
    </g>
  </g>
  <g id="XMLID_1249_" transform="translate(367.961 67.726)">
    <g id="XMLID_144_" transform="translate(0)">
      <path id="XMLID_148_" d="M560.681,90.349c-.236,6.724-.236,13.33-.354,20.054,0,.944-.354,3.775-.472,1.18-.236-6.842-.118-13.684-.354-20.525,0-.354-.118-3.539.59-3.657.708,0,.59,2.477.59,2.949Z" transform="translate(-559.494 -87.4)"/>
    </g>
  </g>
  <g id="XMLID_1248_" transform="translate(361.71 68.194)">
    <g id="XMLID_138_" transform="translate(0)">
      <path id="XMLID_142_" d="M565.953,91.457c-.354,6.37-.118,12.74-.354,19.11,0,.472-.236,2.6-.354.944-.354-6.724,0-13.448-.472-20.054,0-.354-.118-3.657.708-3.657.708-.118.472,3.185.472,3.657Z" transform="translate(-564.768 -87.797)"/>
    </g>
  </g>
  <g id="XMLID_1247_" transform="translate(347.435 68.183)">
    <g id="XMLID_132_" transform="translate(0)">
      <path id="XMLID_136_" d="M578.1,90.633c-.236,6.134-.236,12.268-.354,18.52,0,1.062-.472,4.247-.59,1.416-.118-6.37-.118-12.74-.354-19.11,0-.472-.118-3.421.59-3.657s.708,2.477.708,2.831Z" transform="translate(-576.8 -87.788)"/>
    </g>
  </g>
  <g id="XMLID_1246_" transform="translate(340.601 68.065)">
    <g id="XMLID_126_" transform="translate(0)">
      <path id="XMLID_130_" d="M583.961,91.477c-.354,5.9-.472,11.8-.59,17.694,0,.354,0,2.713-.708,2.713-.59,0-.59-2.477-.59-2.831.236-6.134.59-12.386.472-18.52,0-.236.118-3.067.826-2.831.826.354.59,3.3.59,3.775Z" transform="translate(-582.074 -87.688)"/>
    </g>
  </g>
  <g id="XMLID_1245_" transform="translate(333.516 67.813)">
    <g id="XMLID_120_" transform="translate(0)">
      <path id="XMLID_124_" d="M589.7,90.336c0,5.9.118,11.8.236,17.812,0,.944-.354,5.308-.59,2.123-.354-6.37-.472-12.74-.944-19.11,0-.472-.118-3.421.59-3.657.826-.354.708,2.477.708,2.831Z" transform="translate(-588.4 -87.474)"/>
    </g>
  </g>
  <g id="XMLID_1244_" transform="translate(326.563 67.839)">
    <g id="XMLID_114_" transform="translate(0)">
      <path id="XMLID_118_" d="M595.827,90.332c-.236,6.488-.236,13.094-.354,19.7-.118,3.067-1.18,3.067-1.18,0,.118-6.252.354-12.622.354-18.874,0-.354-.118-3.539.59-3.657s.59,2.359.59,2.831Z" transform="translate(-594.294 -87.497)"/>
    </g>
  </g>
  <g id="XMLID_1243_" transform="translate(165.069 102.824)">
    <g id="XMLID_108_" transform="translate(0)">
      <path id="XMLID_112_" d="M732.413,122.045c-1.18,4.247-1.062,9.2-.59,13.448.118,1.651-.826,6.134-1.062,2.005a120.06,120.06,0,0,1,.708-18.4c.118-.826.118-2.477.944-1.769.826.826.236,3.893,0,4.718Z" transform="translate(-730.639 -117.154)"/>
    </g>
  </g>
  <g id="XMLID_1242_" transform="translate(158.342 103.621)">
    <g id="XMLID_102_" transform="translate(0)">
      <path id="XMLID_106_" d="M738.307,122.159c-.944,5.19-.944,10.381-1.18,15.571,0,.472-.236,2.6-.354.944a167.348,167.348,0,0,1,.472-18.874c0-.708.118-2.359.944-1.887.59.472.118,3.657.118,4.247Z" transform="translate(-736.648 -117.829)"/>
    </g>
  </g>
  <g id="XMLID_1241_" transform="translate(151.571 103.535)">
    <g id="XMLID_96_" transform="translate(0)">
      <path id="XMLID_100_" d="M744.021,122.172c-.708,5.072-.59,10.263-.708,15.453,0,.354-.236,3.3-.354,1.534-.59-6.134-.118-12.386,0-18.52,0-.354.118-3.3.826-2.831s.236,3.539.236,4.365Z" transform="translate(-742.669 -117.757)"/>
    </g>
  </g>
  <g id="XMLID_1240_" transform="translate(145.311 103.294)">
    <g id="XMLID_90_" transform="translate(0)">
      <path id="XMLID_94_" d="M749.477,119.5a128.174,128.174,0,0,1-1.062,18.992c-.118,1.062-.118.826-.354,0a9.757,9.757,0,0,1,.118-4.129,50.224,50.224,0,0,0,.118-12.622c-.118-.59-.236-3.893.354-4.129.826-.354.826,1.062.826,1.887Z" transform="translate(-747.881 -117.553)"/>
    </g>
  </g>
  <g id="XMLID_1239_" transform="translate(129.609 103.626)">
    <g id="XMLID_84_" transform="translate(0)">
      <path id="XMLID_88_" d="M762.75,120.625c-.118,5.9,0,11.914-.59,17.812-.118,1.416-.354.118-.354-.472-.118-5.308.118-10.617-.236-15.807,0-.708-.354-3.775.472-4.247.826-.59.708,2.359.708,2.713Z" transform="translate(-761.495 -117.834)"/>
    </g>
  </g>
  <g id="XMLID_1238_" transform="translate(123.668 102.756)">
    <g id="XMLID_78_" transform="translate(0)">
      <path id="XMLID_82_" d="M767.764,120.757c-.354,5.544-.354,10.971-.472,16.515,0,.354,0,2.831-.708,2.831-.59,0-.59-2.6-.59-2.831.236-5.78.472-11.56.472-17.34,0-.354,0-2.949.826-2.831s.59,3.3.472,3.657Z" transform="translate(-765.995 -117.097)"/>
    </g>
  </g>
  <g id="XMLID_1237_" transform="translate(115.493 103.218)">
    <g id="XMLID_72_" transform="translate(0)">
      <path id="XMLID_76_" d="M774.832,120.333c-.236,5.9-.472,11.8-.944,17.694,0,.472-.118,2.477-.944,1.887-.708-.59-.236-3.3-.236-4.011a102.877,102.877,0,0,0,.708-14.745c0-.472-.118-3.421.59-3.657.944-.236.944,2.477.826,2.831Z" transform="translate(-772.555 -117.488)"/>
    </g>
  </g>
  <g id="XMLID_1236_" transform="translate(109.808 102.535)">
    <g id="XMLID_66_" transform="translate(0)">
      <path id="XMLID_70_" d="M779.333,121.145a78.345,78.345,0,0,0-.472,14.863,11.743,11.743,0,0,1-.118,3.539c-.236.708-.236.708-.354-.236a147.284,147.284,0,0,1-.118-20.408c0-.472.118-2.477.944-1.887.708.59.236,3.3.118,4.129Z" transform="translate(-777.977 -116.909)"/>
    </g>
  </g>
  <path id="XMLID_1234_" d="M670.768,78.564c0-.236,0-.59.118-.59A114.166,114.166,0,0,1,740.6,63.818c.118,0,.118.354.118.708h.236c.236,0,.236,1.416,0,1.416-23.71-.354-48.365,5.308-70.306,14.038C670.768,79.861,670.532,78.8,670.768,78.564Z" transform="translate(-503.1 -24.05)"/>
  <path id="XMLID_1232_" d="M775.8,95.845c34.327,2.6,69.48-1.062,101.684-13.684.708-.354,1.3-.708,2.005-1.062v.236c.118-.118.354-.118.472-.236,0,0,.354,1.3,0,1.416-.708.236-1.3.472-2.005.708-31.5,15.453-67.121,26.306-101.684,14.155v-.118h-.354C775.678,97.261,775.8,95.845,775.8,95.845Z" transform="translate(-766.079 -20.806)"/>
  <g id="XMLID_1231_" transform="translate(102.507 129.206)">
    <g id="XMLID_60_">
      <path id="XMLID_64_" d="M823.653,143.507c-10.617-2.123-21.233-1.062-31.968-.472-10.145.59-20.29,1.062-30.434,1.651-21.115,1.18-42.113,2.123-63.228,3.067-42.112,1.769-84.343,3.185-126.456,4.129-.236,0-.236-2.831.118-2.831,42.112-.826,84.343-2.005,126.456-3.775,21.115-.944,42.113-1.887,63.228-3.067q15.217-.708,30.434-1.769c10.617-.708,21.351-1.769,31.968.236.472,0,.118,2.831-.118,2.831Z" transform="translate(-571.403 -139.519)"/>
    </g>
  </g>
  <g id="XMLID_1217_" transform="translate(479.796 130.625)">
    <path id="XMLID_1225_" d="M359.3,184.142c0,.118,0,.236.118.236,10.381,6.724,21.941,10.971,32.44,17.458,0,0,.354-1.3,0-1.416-10.617-6.134-22.413-10.381-32.44-17.458.118.118-.118.59-.118,1.062.118-6.37,2.477-13.094,3.775-18.756a45.52,45.52,0,0,1,1.416-4.954,5.748,5.748,0,0,0,.354-.826c24.064,12.976,48.365,26.07,71.485,40.7,0,0,.354-1.3,0-1.416-23.71-13.566-47.067-27.485-71.013-40.343a9.752,9.752,0,0,1,.826-1.533c2.359-4.129,6.016-6.488,11.088-2.477,8.965,7.2,17.576,11.914,29.255,12.74,13.33,1.062,26.9-2.831,39.046-8.257,2.123-.944,4.011-2.005,5.9-3.067a2.549,2.549,0,0,0-.118,1.3,194.293,194.293,0,0,0,33.5,19.582c-.472,1.651-.944,3.421-1.3,5.072-.826,4.129-1.18,8.493-3.539,12.032-5.308,8.021-18.048,7.432-26.424,7.314-12.976-.118-25.834-1.651-38.81-1.534a109.262,109.262,0,0,0-17.576,1.416c-6.016,1.062-12.15,3.185-18.284,2.831-8.139-.472-17.34-6.606-19.228-14.863A31.051,31.051,0,0,1,359.3,184.142Zm122.563,3.775c.118,0,.354-1.3,0-1.416a216,216,0,0,1-42.23-24.654c.118.118-.236,1.062,0,1.3A226.329,226.329,0,0,0,481.863,187.916Zm-5.78,8.493c-17.1-9.555-33.855-19.818-50.606-30.08.118.118-.236,1.3,0,1.416,16.987,9.791,33.973,19.7,50.606,30.08C476.083,197.825,476.436,196.528,476.083,196.41Zm-16.515,4.365s.354-1.3,0-1.416c-17.812-10.027-35.153-21-52.611-31.614,0,0-.354,1.18,0,1.416C424.533,179.541,442.346,189.686,459.568,200.774Zm-47.893-1.533s.354-1.3,0-1.416c-16.869-8.257-33.383-16.869-49.78-25.952.472-2.359-.472,1.887-.236,1.18C378.056,182.136,394.807,190.866,411.675,199.241Z" transform="translate(-359.3 -138.634)"/>
    <path id="XMLID_1222_" d="M353.775,157.919a49.771,49.771,0,0,0,10.145-8.611,35.126,35.126,0,0,1,6.96-6.37c0,.118-.236.944,0,1.062,7.314,4.365,14.745,8.847,22.059,13.212,0,0,.354-1.3,0-1.416-7.314-4.247-14.745-8.611-22.059-12.858a13.277,13.277,0,0,1,3.185-1.534.116.116,0,0,1,.118-.118c.236-.118.59-.118.826-.236h.118c7.9-1.651,15.335,3.067,17.576,10.971A25.473,25.473,0,0,1,392.467,165v.944c-.236.354-.354.708-.59,1.062v.118h0a69.267,69.267,0,0,0-4.365,10.617.116.116,0,0,0-.118-.118A187.325,187.325,0,0,1,353.775,157.919Zm36.922,9.2c-9.555-5.072-18.992-10.263-28.429-15.453,0,0-.354,1.18,0,1.416,9.437,5.19,18.874,10.381,28.429,15.453C390.7,168.535,391.051,167.238,390.7,167.12Z" transform="translate(-261.411 -140.722)"/>
    <path id="XMLID_1221_" d="M372.9,142.6Z" transform="translate(-263.431 -140.384)"/>
    <path id="XMLID_1220_" d="M387.488,155.3Z" transform="translate(-295.124 -138.103)"/>
    <path id="XMLID_1219_" d="M359.067,173.416c-.118,0-.118-.118-.236-.118.118-.472.236-.826.354-1.3A2.371,2.371,0,0,1,359.067,173.416Z" transform="translate(-233.201 -135.103)"/>
    <path id="XMLID_1218_" d="M465.7,179.2v0Z" transform="translate(-465.7 -133.81)"/>
  </g>
  <g id="XMLID_1203_" transform="translate(435.837 90.761)">
    <path id="XMLID_1204_" d="M376.365,130.016c.708-2.123,3.067-3.067,6.842-3.657,14.038-2.123,19.228-2.477,33.147-5.426,9.555-2.005,17.694-7.314,26.777-10.735-7.2,10.97-14.863,21.705-23,32.086-.354.472.118,2.241,0,2.359,8.257-10.381,16.043-21.115,23.474-32.2.354-.472.118-1.887,0-2.477a47.4,47.4,0,0,1,10.145-2.6c13.448-1.651,24.418,1.416,35.861,8.139,11.206,6.606,19.582,12.858,33.147,9.673.236-.354,3.3.708,3.3,5.19,0,13.212-8.021,20.29-18.166,27.721-5.662,4.129-13.448,5.78-20.172,7.2a117.06,117.06,0,0,1-24.89,2.241c-7.668-.118-20.054-.59-17.93-11.56.708-3.775-.944-12.15-2.359-16.515s-4.836,4.836-14.391,6.134a53.915,53.915,0,0,1-7.786,0c-9.555-2.477-12.386-7.2-21.233-6.96-8.493.236-12.15,2.6-20.172,4.954-2.477.708-3.657.472-3.893.236C373.888,142.874,374.242,136.5,376.365,130.016ZM504.472,159.27c6.96-8.729,14.863-17.222,20.879-26.659.472-.708-.118-2.713-.118-2.831-5.9,9.555-13.8,18.166-20.761,26.9C504,157.265,504.59,159.152,504.472,159.27Zm-26.07,6.96c9.555-12.976,19.228-26.188,29.962-38.1.59-.59-.118-2.831-.118-2.831-9.909,12.74-20.29,25.126-29.962,38.1C477.813,164.107,478.521,166.112,478.4,166.23Zm-20.761,1.062c10.617-16.279,22.295-32.44,35.743-46.477.59-.59-.118-2.831-.118-2.831-12.74,14.981-25.008,30.08-35.742,46.6C457.052,165.286,457.641,167.292,457.641,167.292Zm-11.678-4.836c10.263-16.751,21.587-33.383,34.917-47.893.59-.59-.118-2.831-.118-2.831-12.5,15.453-24.536,30.906-34.917,48.011C445.491,160.332,445.963,162.337,445.963,162.455Zm-2.831-22.177a165.444,165.444,0,0,1,21.115-29.962c.472-.59-.118-2.831-.118-2.831a183.887,183.887,0,0,0-21.115,30.08C442.542,138.273,443.132,140.16,443.132,140.278Zm-34.091-.59c3.657-5.426,7.078-10.971,10.617-16.4.472-.708-.118-2.713-.118-2.831-3.421,5.662-6.96,11.088-10.617,16.515C408.569,137.565,409.159,139.453,409.041,139.689Zm-15.807-1.416c2.831-3.421,4.719-7.55,7.432-10.97a2.357,2.357,0,0,0,.236-1.769s-.118-1.416-.354-1.062c-2.241,3.893-5.19,7.432-7.432,11.324A8.08,8.08,0,0,0,393.234,138.273Zm-16.987-.59c0,.118.118,1.18.236,1.062,2.005-3.067,4.483-6.016,6.724-8.847.354-.354.236-1.3.236-1.769,0,0-.118-1.416-.354-1.062-2.123,3.067-4.365,6.134-6.724,8.965A3.925,3.925,0,0,0,376.247,137.683Z" transform="translate(-374.4 -106.928)"/>
  </g>
  <g id="XMLID_1202_" transform="translate(642.22 47.26)">
    <g id="XMLID_54_" transform="translate(0)">
      <path id="XMLID_58_" d="M326.986,107.267c.708-11.088,0-22.295-.708-33.383-.118-1.062.826-6.016,1.062-2.713.944,12.268,1.062,24.536.944,36.8-.118,4.247-1.534,2.6-1.3-.708Z" transform="translate(-326.268 -70.051)"/>
    </g>
  </g>
  <path id="XMLID_1199_" d="M367.792,84.28c2.241-4.129,6.488-6.252,10.617-8.139a152.453,152.453,0,0,1,20.172-7.314c13.92-4.011,28.429-6.37,42.938-5.072,11.324,1.062,23.475,7.078,32.44,13.8,7.786,5.9,14.037,13.92,20.289,21.233,6.37,7.432,12.74,14.863,18.4,22.885a.884.884,0,0,1,.118.59c.118.826.118,2.359-.354,2.359H512.3c-7.2-.118-14.391-.118-21.587-.826-2.241-.236-5.308-.236-7.314-1.416-2.6-1.651-4.011-5.426-5.78-7.786-8.847-11.206-21.823-18.756-36.332-16.633-6.724.944-12.15,4.247-18.048,7.55a60.126,60.126,0,0,1-18.52,6.724c-11.324,2.005-26.9,1.416-34.681-8.375C366.023,98.671,364.607,90.3,367.792,84.28ZM385.841,104.1c.354.118,1.651-1.769.944-1.769a6.8,6.8,0,0,1-1.651-.354c-5.308-2.359-6.252-8.375-2.6-12.858a35.41,35.41,0,0,1,8.493-6.842c.354,0,1.18-2.123.708-2.005C372.393,81.095,370.977,101.266,385.841,104.1Z" transform="translate(84.519 -23.986)"/>
  <path id="XMLID_1197_" d="M591.92,38.168h.236V38.05a148.208,148.208,0,0,1,71.6,9.437h.354c.236,0,.118,1.534,0,1.416h-.236c-.118,0-.118,0-.236-.118q-35.92-4.954-71.957-9.437C591.684,39.7,591.8,38.168,591.92,38.168Z" transform="translate(-333.067 -28.716)"/>
  <path id="XMLID_1195_" d="M471.63,51.326a4.188,4.188,0,0,1,.118-.826h0l.118.118c15.453,5.9,31.732,9.2,47.893,12.386,16.4,3.185,33.619,5.544,50.016,1.18.118,0,.354,1.416,0,1.416h-.118c-.708,3.775-10.97,4.718-13.919,5.19-10.381,1.769-21.115,1.18-31.5-.354-17.812-2.6-38.338-6.724-52.611-18.52A.527.527,0,0,1,471.63,51.326Z" transform="translate(-97.056 -26.303)"/>
  <g id="XMLID_1194_" transform="translate(400.31 207.654)">
    <g id="XMLID_48_">
      <path id="XMLID_52_" d="M551.023,210.6a177.462,177.462,0,0,0-28.547-1.533c-8.493.354-17.1,1.18-24.182,6.37-13.92,10.145-16.987,27.013-23,41.995-14.273,35.861-29.137,71.6-43.882,107.346-.236.472-.472-2.005-.236-2.6,7.668-18.4,15.1-36.922,22.649-55.324,7.55-18.52,15.807-36.8,22.649-55.442,5.308-14.391,9.083-29.962,22.531-39.281,6.606-4.6,14.627-5.426,22.531-5.9a155.25,155.25,0,0,1,29.609,1.416c.472.118.236,3.067-.118,2.949Z" transform="translate(-431.076 -206.022)"/>
    </g>
  </g>
  <g id="XMLID_1193_" transform="translate(273.393 207.747)">
    <g id="XMLID_42_" transform="translate(0)">
      <path id="XMLID_46_" d="M664.67,209.167c-18.638-.59-35.861,9.555-50.96,19.582-9.319,6.134-18.284,13.094-27.131,19.936-17.576,13.684-36.45,27.485-51.667,44-9.673,10.5-19.936,20.289-29.727,30.67-.118.118-.59-2.241-.118-2.831,15.1-16.043,30.2-32.322,46.949-46.713,19.228-16.4,39.046-32.676,60.043-46.831,15.571-10.5,33.265-20.879,52.611-20.879.59.236.472,3.185,0,3.067Z" transform="translate(-504.861 -206.1)"/>
    </g>
  </g>
  <g id="XMLID_1192_" transform="translate(197.414 194.166)">
    <g id="XMLID_36_" transform="translate(0)">
      <path id="XMLID_40_" d="M732.623,197.315a655.313,655.313,0,0,0-54.5,36.568c-17.1,12.622-35.035,26.188-49.544,41.877-7.55,8.139-14.273,16.987-21.705,25.244-6.96,7.668-14.038,15.1-21.115,22.767-12.74,13.684-25.6,27.6-35.389,43.646.236-.354-.59-2.713,0-3.657,9.909-15.807,22.649-29.491,35.389-43.056,14.745-15.571,28.311-32.322,42.82-48.011s32.322-29.137,49.544-41.759c17.694-12.976,36.214-24.3,54.5-36.332.118-.236.59,2.359,0,2.713Z" transform="translate(-550.154 -194.587)"/>
    </g>
  </g>
  <g id="XMLID_1191_" transform="translate(296.282 174.245)">
    <g id="XMLID_30_" transform="translate(0)">
      <path id="XMLID_34_" d="M633.678,197.164c-28.075-4.365-55.914-10.263-83.4-17.223-.236,0,.118-2.241,0-2.241,27.485,6.724,55.324,12.386,83.4,16.515.59.118.354,2.949,0,2.949Z" transform="translate(-550.195 -177.7)"/>
    </g>
  </g>
  <g id="XMLID_1190_" transform="translate(95.361 151.007)">
    <g id="XMLID_24_" transform="translate(0)">
      <path id="XMLID_28_" d="M806.245,168.263c-18.048.472-36.214.354-54.263-.826-14.627-.944-30.2-1.887-44.118-6.724-.354-.118.236-2.6.118-2.713,13.92,4.836,29.49,5.9,44.118,6.842a438.372,438.372,0,0,0,54.263.472c.354,0,.472,2.949-.118,2.949Z" transform="translate(-707.75 -158)"/>
    </g>
  </g>
  <g id="XMLID_1162_" transform="translate(192.558 155.858)">
    <g id="XMLID_18_" transform="translate(0)">
      <path id="XMLID_22_" d="M725.031,182.387C710.639,171.771,693.063,168,675.6,166.462c-18.992-1.651-38.1-2.123-56.976.708.118,0-.118-2.949.118-2.949,19.464-2.949,39.281-2.477,58.863-.59,16.987,1.651,33.737,5.662,47.657,15.925.472.354,0,3.067-.236,2.831Z" transform="translate(-618.629 -162.112)"/>
    </g>
  </g>
  <g id="XMLID_1161_" transform="translate(192.186 157.963)">
    <g id="XMLID_12_" transform="translate(0)">
      <path id="XMLID_16_" d="M725.335,182.185c-18.992,2.005-37.748.354-56.5-2.949-9.555-1.651-18.992-3.539-28.547-5.308-7.314-1.3-14.391-2.831-20.643-7.2-.59-.354,0-2.949.236-2.831,7.2,4.954,15.571,6.134,23.946,7.668,9.083,1.651,18.166,3.539,27.249,5.19,18.048,3.067,36.214,4.954,54.381,2.477.236,0,.472,2.949-.118,2.949Z" transform="translate(-619.386 -163.897)"/>
    </g>
  </g>
</svg>
