<svg xmlns="http://www.w3.org/2000/svg" width="710.438" height="907.133" viewBox="0 0 710.438 907.133">
  <g id="bg_1" transform="translate(1)">
    <path id="XMLID_62_" d="M297,110.8S588.5-82.4,656.6,158.6,912.8,340,891.3,554.6s-230.9,496.6-376,347.8S297,763,297,763Z" transform="translate(-292.548 -37.519)" fill="#fdc000"/>
    <g id="XMLID_47_" transform="translate(0 37.299)">
      <path id="XMLID_8_" d="M184.549,120.6s383.1-178.4,449.5,56.9,293,192.5,254.6,396-303.8,457.3-467,304.3-237.1-166.2-237.1-166.2Z" transform="translate(-184.549 -55.818)" fill="none" stroke="#b2b2b2" stroke-miterlimit="10" stroke-width="2"/>
      <path id="XMLID_16_" d="M193.608,123.3s382.3-176.8,446.9,56.2,285.9,190.3,248.2,391.9-297,453.1-456.3,301.7-238.8-164.7-238.8-164.7Z" transform="translate(-193.608 -55.818)" fill="none" stroke="#b2b2b2" stroke-miterlimit="10" stroke-width="2"/>
      <path id="XMLID_15_" d="M202.589,125.9s381.5-175.2,444.3,55.5,278.8,188.2,241.9,387.9-290.3,449-445.5,299.2-240.7-163.3-240.7-163.3Z" transform="translate(-202.589 -55.818)" fill="none" stroke="#b2b2b2" stroke-miterlimit="10" stroke-width="2"/>
      <path id="XMLID_14_" d="M211.646,128.6s380.6-173.6,441.7,54.8,271.7,186.1,235.5,383.8-283.5,444.8-434.8,296.6S211.646,702,211.646,702Z" transform="translate(-211.646 -55.818)" fill="none" stroke="#b2b2b2" stroke-miterlimit="10" stroke-width="2"/>
      <path id="XMLID_13_" d="M220.606,131.2s379.8-172,439.1,54,264.7,184,229.2,379.8-276.8,440.7-424.1,294.1-244.2-160.2-244.2-160.2Z" transform="translate(-220.606 -55.818)" fill="none" stroke="#b2b2b2" stroke-miterlimit="10" stroke-width="2"/>
      <path id="XMLID_12_" d="M229.686,133.9s378.9-170.3,436.4,53.3c57.5,223.7,257.6,181.9,222.9,375.7s-270,436.5-413.3,291.6-246-158.9-246-158.9Z" transform="translate(-229.686 -55.818)" fill="none" stroke="#b2b2b2" stroke-miterlimit="10" stroke-width="2"/>
      <path id="XMLID_11_" d="M238.646,136.5s378.1-168.7,433.8,52.6,250.6,179.8,216.6,371.7-263.3,432.4-402.6,289.1-247.8-157.4-247.8-157.4Z" transform="translate(-238.646 -55.818)" fill="none" stroke="#b2b2b2" stroke-miterlimit="10" stroke-width="2"/>
      <path id="XMLID_10_" d="M247.7,139.2S625-27.9,678.9,191.1,922.4,368.8,889.1,558.7,632.6,987,497.3,845.3s-249.6-156-249.6-156Z" transform="translate(-247.704 -55.818)" fill="none" stroke="#b2b2b2" stroke-miterlimit="10" stroke-width="2"/>
      <path id="XMLID_9_" d="M256.682,141.9s376.4-165.5,428.6,51.2,236.4,175.5,203.9,363.5-249.7,424.1-381.1,284-251.4-154.5-251.4-154.5Z" transform="translate(-256.682 -55.818)" fill="none" stroke="#b2b2b2" stroke-miterlimit="10" stroke-width="2"/>
      <path id="XMLID_7_" d="M265.74,144.5s375.6-163.9,426,50.5,229.3,173.4,197.5,359.5-243,419.9-370.4,281.5-253.1-153.1-253.1-153.1Z" transform="translate(-265.74 -55.818)" fill="none" stroke="#b2b2b2" stroke-miterlimit="10" stroke-width="2"/>
    </g>
  </g>
</svg>
