<svg xmlns="http://www.w3.org/2000/svg" width="930.239" height="676.266" viewBox="0 0 930.239 676.266">
  <g id="XMLID_471_" transform="translate(-22.711 -59.623)">
    <path id="XMLID_647_" d="M917.025,348.725q-2.663-2.663-5.53-5.325h0L152.3,452.91c22.462,202.361,100.634,351.264,312.007,313.646C706.062,723.475,1086,515.653,917.025,348.725Z" transform="translate(-40.788 -89.71)" fill="#fdc000"/>
    <g id="XMLID_1_" transform="translate(23.741 60.644)">
      <path id="XMLID_5_" d="M308.93,98.411S60.349,116.845,121.589,355.049,291.521,775,518.528,681.667s554.1-377.208,353.517-504.4S308.93,98.411,308.93,98.411Z" transform="translate(-51.706 -69.767)" fill="none" stroke="#b2b2b2" stroke-miterlimit="10" stroke-width="2"/>
      <path id="XMLID_13_" d="M303.86,94.859S49.748,114.044,111.945,356s174.847,422.951,405.473,328.12,558.882-378.164,355.088-507.4S303.86,94.859,303.86,94.859Z" transform="translate(-48.615 -68.809)" fill="none" stroke="#b2b2b2" stroke-miterlimit="10" stroke-width="2"/>
      <path id="XMLID_12_" d="M298.758,91.219S39.048,111.155,102.2,356.937,281.963,782.824,516.208,686.491s563.593-379.12,356.658-510.34S298.758,91.219,298.758,91.219Z" transform="translate(-45.494 -67.832)" fill="none" stroke="#b2b2b2" stroke-miterlimit="10" stroke-width="2"/>
      <path id="XMLID_11_" d="M293.679,87.558S28.37,108.245,92.547,357.851,277.225,786.741,515.088,688.906,1083.46,308.831,873.316,175.562,293.679,87.558,293.679,87.558Z" transform="translate(-42.395 -66.833)" fill="none" stroke="#b2b2b2" stroke-miterlimit="10" stroke-width="2"/>
      <path id="XMLID_10_" d="M288.585,83.9S17.746,105.4,82.81,358.694,272.473,790.589,513.886,691.251s573.151-381.031,359.8-516.28S288.585,83.9,288.585,83.9Z" transform="translate(-39.28 -65.833)" fill="none" stroke="#b2b2b2" stroke-miterlimit="10" stroke-width="2"/>
      <path id="XMLID_9_" d="M283.405,80.213S6.968,102.47,73.056,359.586s194.578,434.83,439.609,334.059,577.862-381.987,361.369-519.284S283.405,80.213,283.405,80.213Z" transform="translate(-36.149 -64.814)" fill="none" stroke="#b2b2b2" stroke-miterlimit="10" stroke-width="2"/>
      <path id="XMLID_8_" d="M278.333,76.531S-3.634,99.539,63.41,360.478,262.9,798.312,511.622,696.04s582.641-382.875,362.939-522.22S278.333,76.531,278.333,76.531Z" transform="translate(-33.057 -63.794)" fill="none" stroke="#b2b2b2" stroke-miterlimit="10" stroke-width="2"/>
      <path id="XMLID_7_" d="M273.231,72.819S-14.335,96.578,53.665,361.34s204.477,440.77,456.746,337S1097.831,314.5,874.92,173.112,273.231,72.819,273.231,72.819Z" transform="translate(-29.934 -62.744)" fill="none" stroke="#b2b2b2" stroke-miterlimit="10" stroke-width="2"/>
      <path id="XMLID_6_" d="M268.15,69.115S-25.014,93.693,44.01,362.142,253.4,805.916,509.29,700.639,1101.422,315.853,875.37,172.48,268.15,69.115,268.15,69.115Z" transform="translate(-26.834 -61.703)" fill="none" stroke="#b2b2b2" stroke-miterlimit="10" stroke-width="2"/>
      <path id="XMLID_4_" d="M263.078,65.393S-35.616,90.722,34.364,362.995s214.309,446.71,473.814,340,596.91-385.742,367.65-531.164S263.078,65.393,263.078,65.393Z" transform="translate(-23.741 -60.644)" fill="none" stroke="#b2b2b2" stroke-miterlimit="10" stroke-width="2"/>
    </g>
    <path id="XMLID_649_" d="M908.4,253.712C737.167,91.5,380.373,62.411,380.373,62.411S133.566,27.592,142.783,273.375c1.161,30.791,3.209,60.831,6.418,89.847l759.2-109.51Z" transform="translate(-37.688 -0.022)" fill="#fdc000"/>
  </g>
</svg>
