<svg xmlns="http://www.w3.org/2000/svg" width="1920.171" height="1014.512" viewBox="0 0 1920.171 1014.512">
  <g id="bg_4" transform="translate(1.4 -68.046)">
    <path id="XMLID_102_" d="M-1.4,1094.436H1918.136V526.214s-79.915,151.848-301.839,87.247c-299.611-87.247-535.551,41.025-767.684,29.887s-596.253-82.235-551.887-191.2c59.031-144.794,9.56-285.875-119.919-181.92s15.222,146.65-17.171,194.914S-1.4,509.692-1.4,509.692Z" transform="translate(0 -11.877)" fill="#fdc000"/>
    <g id="XMLID_110_" transform="translate(-0.101 194.584)">
      <path id="XMLID_2_" d="M0,564.613c1.392-90.5,63.765-81.864,92.724-87.712,57.175-11.6,17.728-94.858,18.006-126.323.371-34.992,21.162-69.055,63.579-104.047,33.971-28.031,65.9-42.231,94.858-42.231,27.752,0,88.825.65,75.46,101.355-31.465,236.682,46.5,222.759,190.181,263.134,93.281,26.267,211.529,39.447,313.812,44.459,8.91.464,18.1.65,27.381.65,73.975,0,149.249-13.83,228.792-28.4,87.99-16.15,178.857-32.764,277.614-32.764,77.594,0,150.084,10.4,221.646,31.743,33.043,9.839,64.415,14.851,93.466,14.851,50.4,0,93.837-14.665,129.2-43.624,26.081-21.348,91.61-31.836,91.61-31.836" transform="translate(0 -204.3)" fill="none" stroke="#b2b2b2" stroke-miterlimit="10" stroke-width="2"/>
      <path id="XMLID_25_" d="M0,570.318C.65,524,25.246,504.79,47.8,496.807c18.656-6.59,38.148-7.147,51.049-10.581,54.483-14.294,17.728-95.044,17.078-129.664-.743-37.034,17.542-72.954,58.2-107.574,24.318-20.7,48.357-33.785,70.633-39.169a83.3,83.3,0,0,1,26.546-2.042c23.483,2.042,68.684,6.4,71.1,68.406a220.159,220.159,0,0,1-2.692,40.932c-26.174,177,20.42,208.28,104.7,232.227,28.866,8.168,62.93,15.222,101.448,25.524,95.6,25.617,216.077,39.169,322.908,42.232,8.725.278,17.728.371,26.917.186,71.84-1.114,146.743-15.872,225.173-30.815,47.708-9.1,95.972-18.1,144.886-23.761,42.139-4.734,83.906-5.291,127.251-2.6,35.734,2.228,70.448,6.5,105.347,11.6a974.256,974.256,0,0,1,102.1,20.605c3.249.835,6.59,1.671,9.839,2.6,32.671,8.818,63.672,12.716,92.167,11.788a216.822,216.822,0,0,0,44.737-5.755,206.515,206.515,0,0,0,58.567-24.689c7.889-4.826,15.315-10.21,22.647-15.686,26.824-20.141,89.939-25.525,89.939-25.525" transform="translate(0 -204.529)" fill="none" stroke="#b2b2b2" stroke-miterlimit="10" stroke-width="2"/>
      <path id="XMLID_24_" d="M0,576.079C.65,533.29,30.444,514.541,53.741,507.3c19.4-6.033,38.519-7.518,51.327-11.695,51.7-16.8,17.821-95.23,16.15-133.006-1.764-39.076,13.922-76.945,52.813-111.194,24.6-21.626,49.564-34.9,72.582-39.725a71.418,71.418,0,0,1,27.01-.464c23.575,3.991,66.642,12.437,65.528,75.553-.186,12.53-1.671,26.36-4.084,41.953-29.144,179.228,27.474,203.825,117.6,227.215,29.887,7.8,64.971,15.036,104.418,25.06,98.014,25.06,220.625,38.89,332,39.911,8.539.093,17.449,0,26.545-.278,69.705-2.413,144.237-18.006,221.553-33.228,47.522-9.467,95.415-18.563,142.844-23.483,42.046-4.362,82.235-1.764,123.817,3.527,34.342,4.362,67.756,10.674,102.284,16.057,34.435,5.383,67.942,11.973,100.891,19.584,3.249.743,6.59,1.485,9.839,2.228,32.3,7.611,62.837,10.674,90.867,8.818,15.315-1.021,29.887-3.156,43.716-7.147,22.647-6.5,42.046-16.985,56.525-26.174,7.8-4.919,15.129-10.3,22.462-15.315,27.566-18.935,88.268-19.306,88.268-19.306" transform="translate(0 -204.72)" fill="none" stroke="#b2b2b2" stroke-miterlimit="10" stroke-width="2"/>
      <path id="XMLID_10_" d="M0,581.712c.557-39.261,35.641-57.453,59.588-64.043,20.048-5.476,38.89-7.889,51.606-12.809,48.914-19.213,17.914-95.415,15.222-136.347-2.692-41.118,10.21-80.936,47.429-114.814,24.782-22.554,50.863-36.013,74.439-40.375a65.236,65.236,0,0,1,27.381,1.021c23.668,5.94,64.415,18.47,59.867,82.7a429.3,429.3,0,0,1-5.569,42.881c-31.65,181.549,34.621,199.37,130.5,222.3,31,7.425,67.013,14.758,107.389,24.6,100.335,24.5,225.173,36.106,341.193,37.683,8.354.093,17.171-.278,26.081-.743,67.663-3.527,141.823-20.141,217.933-35.641,47.429-9.746,94.951-18.935,140.9-23.2,41.953-3.9,80.565,1.763,120.383,9.653,32.857,6.59,65.064,14.851,99.128,20.42,34.156,5.662,67.292,11.973,99.592,18.563,3.249.65,6.59,1.3,9.839,1.949,31.929,6.5,62,8.539,89.568,5.755,14.943-1.485,29.237-4.084,42.7-8.539,23.019-7.611,41.953-19.491,54.483-27.752,7.7-5.012,14.851-10.4,22.183-15.036,28.309-17.728,86.6-12.994,86.6-12.994" transform="translate(0 -204.877)" fill="none" stroke="#b2b2b2" stroke-miterlimit="10" stroke-width="2"/>
      <path id="XMLID_9_" d="M0,587.323c.464-35.827,40.839-53.462,65.436-59.31C86.226,523,104.79,519.846,117.32,514c46.223-21.441,18.006-95.6,14.294-139.782-3.62-43.16,6.5-85.02,42.046-118.434,25.06-23.575,52.07-37.127,76.3-40.932a60.569,60.569,0,0,1,27.845,2.6c23.761,7.889,62.094,24.5,54.3,89.753-1.671,13.922-4.084,28.4-6.961,43.809-34.528,183.776,41.767,194.914,143.4,217.376,32.022,7.054,69.055,14.572,110.359,24.132,102.655,23.854,229.628,38.8,350.289,35.363,8.168-.186,16.8-.557,25.71-1.207,65.528-4.641,139.317-22.183,214.313-38.055,47.336-10.117,94.394-19.4,138.853-22.926,41.86-3.341,78.8,5.291,116.949,15.872,31.465,8.725,62.28,19.027,96.065,24.875,33.785,5.94,66.549,11.973,98.293,17.542,3.249.557,6.59,1.114,9.839,1.671,31.558,5.383,61.166,6.4,88.176,2.692a192.947,192.947,0,0,0,41.582-9.839c23.39-8.725,41.86-22.09,52.534-29.33,7.611-5.2,14.665-10.488,22-14.665,29.144-16.521,84.927-6.776,84.927-6.776" transform="translate(0 -205.013)" fill="none" stroke="#b2b2b2" stroke-miterlimit="10" stroke-width="2"/>
      <path id="XMLID_8_" d="M0,592.941c.371-32.3,46.037-49.378,71.283-54.576,21.533-4.455,39.725-8.353,52.163-15.129,43.531-23.483,18.1-95.787,13.366-143.123-4.548-45.294,2.784-89.1,36.662-122.054,25.246-24.5,53.277-38.333,78.151-41.489,8.539-1.114,18.563.186,28.309,4.177,23.854,9.746,59.588,30.537,48.729,96.9-2.413,14.572-5.291,29.33-8.446,44.738-37.591,186,48.729,190.552,156.21,212.457,33.043,6.683,71.1,14.294,113.329,23.668,104.975,23.3,234.176,38.89,359.385,33.135,8.075-.371,16.521-.835,25.246-1.671,63.394-5.755,136.9-24.318,210.693-40.468,47.151-10.488,93.837-19.77,136.9-22.647,41.767-2.877,77.13,8.725,113.515,22,30.073,10.952,59.588,23.111,93,29.33,33.507,6.219,65.9,11.973,97.086,16.521,3.249.464,6.59.928,9.839,1.392,31.186,4.362,60.331,4.27,86.876-.278,14.294-2.506,27.938-5.94,40.561-11.231,23.761-9.931,41.675-24.689,50.492-30.815,7.518-5.291,14.386-10.581,21.719-14.294,29.98-15.315,83.256-.464,83.256-.464" transform="translate(0 -205.154)" fill="none" stroke="#b2b2b2" stroke-miterlimit="10" stroke-width="2"/>
      <path id="XMLID_7_" d="M0,598.653c.278-28.773,51.235-45.294,77.13-49.842,22.276-3.9,40.189-8.632,52.534-16.243C170.6,507.136,147.949,436.6,142.1,386.1c-5.476-47.336-1.021-93.188,31.279-125.581,25.432-25.525,54.483-39.447,80.008-42.139,8.539-.835,18.749.928,28.68,5.755,24.039,11.509,57.082,36.477,43.067,103.954-3.156,15.222-6.59,30.351-9.839,45.666C274.829,561.991,371.173,559.949,484.5,581.2c34.064,6.4,73.139,14.108,116.392,23.2,107.3,22.74,238.724,39.169,368.481,30.815,7.889-.464,16.243-1.207,24.875-2.135,61.259-6.776,134.4-26.453,206.981-42.881,47.058-10.767,93.28-20.141,134.862-22.462s75.46,12.252,110.08,28.123c28.587,13.18,56.9,27.288,89.846,33.692,33.228,6.5,65.25,11.88,95.786,15.5,3.249.371,6.59.742,9.839,1.021,30.815,3.249,59.5,2.228,85.577-3.341,13.922-2.97,27.2-6.868,39.54-12.623,24.132-11.138,41.489-27.288,48.45-32.393,7.518-5.383,14.2-10.674,21.533-14.015,30.815-14.015,81.586,5.755,81.586,5.755" transform="translate(0 -205.297)" fill="none" stroke="#b2b2b2" stroke-miterlimit="10" stroke-width="2"/>
      <path id="XMLID_6_" d="M0,604.259c.186-25.246,56.432-41.3,82.978-45.109,22.926-3.341,40.654-8.725,52.813-17.357,38.333-27.2,18.378-96.251,11.416-149.806-6.4-49.378-4.826-97.364,25.8-129.2,25.525-26.546,55.783-40.654,81.864-42.7,8.446-.65,18.935,1.671,29.144,7.332,24.132,13.366,54.483,42.51,37.5,111.1-3.9,15.872-7.8,31.372-11.231,46.594-43.438,190.366,63.022,181.827,182.2,202.433,35.085,6.033,75.181,13.922,119.362,22.833,109.616,22.09,243.272,39.54,377.577,28.587,7.7-.65,15.872-1.485,24.411-2.6,59.124-7.889,131.985-28.495,203.361-45.294,46.872-11.138,92.816-20.42,132.82-22.183,41.489-1.764,73.7,15.779,106.646,34.342,27.2,15.315,54.2,31.465,86.783,38.148,32.95,6.776,64.6,11.788,94.487,14.479,3.249.278,6.59.557,9.839.742,30.444,2.228,58.66.093,84.277-6.4a185.361,185.361,0,0,0,38.426-13.922c24.5-12.437,41.3-30.073,46.5-33.878,7.425-5.569,14.015-10.674,21.348-13.644,31.743-12.623,80.008,11.973,80.008,11.973" transform="translate(0 -205.427)" fill="none" stroke="#b2b2b2" stroke-miterlimit="10" stroke-width="2"/>
      <path id="XMLID_5_" d="M0,609.854c.186-21.719,61.723-37.127,88.825-40.375,23.668-2.692,41.118-8.91,53.091-18.563,35.92-28.959,18.563-96.436,10.488-153.147-7.332-51.42-8.632-101.541,20.42-132.82C198.441,237.289,229.813,223,256.637,221.7c8.353-.464,19.12,2.413,29.608,8.818,24.318,15.129,51.792,48.45,31.929,118.155-4.734,16.614-9,32.3-12.716,47.522C258.679,588.785,375.535,573.842,500.466,593.8c36.2,5.755,77.223,13.644,122.332,22.369,112.029,21.533,247.82,40.1,386.673,26.267,7.518-.742,15.593-1.763,24.039-3.063,57.082-8.91,129.479-30.629,199.741-47.708,46.78-11.509,92.26-20.791,130.871-21.9,41.4-1.207,72.026,19.306,103.212,40.468,25.8,17.542,51.513,35.642,83.72,42.6,32.671,7.054,63.858,11.695,93.281,13.458,3.341.186,6.59.371,9.839.464,30.073,1.114,57.917-1.949,82.885-9.374a184.983,184.983,0,0,0,37.405-15.315c24.782-13.737,41.025-32.857,44.459-35.456,7.333-5.662,13.737-10.767,21.069-13.273,32.579-11.231,78.337,18.285,78.337,18.285" transform="translate(0 -205.546)" fill="none" stroke="#b2b2b2" stroke-miterlimit="10" stroke-width="2"/>
      <path id="XMLID_4_" d="M0,615.549c.093-18.192,66.921-33.135,94.673-35.642,24.411-2.228,41.675-9,53.369-19.677,33.692-30.629,18.842-96.622,9.56-156.488-8.075-53.462-12.53-105.718,15.036-136.44,25.71-28.68,58.2-43.16,85.67-43.9,8.261-.186,19.4,3.063,29.98,10.4,24.5,16.893,49.1,54.3,26.36,125.3-5.569,17.264-10.3,33.321-14.108,48.45-49.75,194.822,77.038,173.567,207.909,192.594,37.219,5.476,79.265,13.458,125.3,21.9,114.35,20.977,252.368,40.746,395.769,24.039,7.333-.835,15.222-2.042,23.575-3.527,54.947-9.839,127.066-32.764,196.121-50.214,46.594-11.788,91.7-21.069,128.829-21.626,41.3-.65,70.355,22.74,99.778,46.594,24.318,19.677,48.821,39.818,80.565,46.965,32.3,7.333,63.208,11.6,91.981,12.437,3.341.093,6.59.186,9.839.186,29.794.186,57.082-3.991,81.586-12.437a182.524,182.524,0,0,0,36.384-16.707c25.06-15.036,40.746-35.641,42.417-36.941,7.333-5.755,13.551-10.767,20.884-12.994,33.507-9.839,76.666,24.5,76.666,24.5" transform="translate(0 -205.671)" fill="none" stroke="#b2b2b2" stroke-miterlimit="10" stroke-width="2"/>
      <path id="XMLID_1_" d="M0,621.148C0,606.39,72.118,592.1,100.52,590.24c155.56-10.117,5.755-244.014,71.933-320.681,25.8-29.794,59.4-44.459,87.526-44.459,26.917,0,88.083,40.468,51.142,144.329-89.289,251.068,58.1,217.19,205.31,237.146,133.284,18.006,325.786,71,533.23,43.16,85.484-11.509,246.706-77.966,342.493-77.966,75.274,0,104.418,87.711,173.845,104.14,32.022,7.611,62.558,11.416,90.682,11.416,48.914,0,91.053-11.324,125.4-33.6a159.115,159.115,0,0,0,40.375-38.519c35.92-39.354,95.694,18.192,95.694,18.192" transform="translate(0 -205.794)" fill="none" stroke="#b2b2b2" stroke-miterlimit="10" stroke-width="2"/>
    </g>
    <g id="XMLID_122_" transform="translate(11.037 325.548)">
      <path id="XMLID_126_" d="M52.746,430.049c-10.767,0-21.533-5.012-29.423-13.83C16.177,408.144,12,397.748,12,387.724c0-10.3,4.548-20.977,12.623-29.144,8.168-8.353,18.842-13.18,29.33-13.18,22,0,41.953,19.677,41.953,41.21C96,408.515,74.558,430.049,52.746,430.049Z" transform="translate(-12 -345.4)" fill="none" stroke="#b2b2b2" stroke-miterlimit="10" stroke-width="2"/>
      <path id="XMLID_129_" d="M53.177,423.924c-9.653,0-19.306-4.548-26.36-12.437A39.277,39.277,0,0,1,16.7,385.962c0-9.282,4.084-18.842,11.324-26.174C35.356,352.27,44.916,348,54.383,348c19.677,0,37.591,17.635,37.591,36.941C91.974,404.711,72.761,423.924,53.177,423.924Z" transform="translate(-12.338 -345.587)" fill="none" stroke="#b2b2b2" stroke-miterlimit="10" stroke-width="2"/>
      <path id="XMLID_128_" d="M53.7,417.906a31.435,31.435,0,0,1-23.3-11.045,34.726,34.726,0,0,1-9-22.554c0-8.168,3.62-16.614,10.024-23.111,6.5-6.59,14.943-10.4,23.3-10.4,17.449,0,33.321,15.593,33.321,32.671C87.949,400.828,70.964,417.906,53.7,417.906Z" transform="translate(-12.675 -345.788)" fill="none" stroke="#b2b2b2" stroke-miterlimit="10" stroke-width="2"/>
      <path id="XMLID_127_" d="M54.131,411.774a27.556,27.556,0,0,1-20.234-9.56,30.3,30.3,0,0,1-7.8-19.677A29.219,29.219,0,0,1,34.825,362.4c5.662-5.755,12.994-9.1,20.234-9.1,15.129,0,28.959,13.551,28.959,28.495C83.925,396.924,69.167,411.774,54.131,411.774Z" transform="translate(-13.013 -345.967)" fill="none" stroke="#b2b2b2" stroke-miterlimit="10" stroke-width="2"/>
      <path id="XMLID_125_" d="M54.554,405.757a23.461,23.461,0,0,1-17.264-8.168,25.646,25.646,0,0,1-6.59-16.707A24.684,24.684,0,0,1,38.125,363.8a24.475,24.475,0,0,1,17.264-7.7c12.9,0,24.6,11.509,24.6,24.225C79.986,393.134,67.362,405.757,54.554,405.757Z" transform="translate(-13.343 -346.169)" fill="none" stroke="#b2b2b2" stroke-miterlimit="10" stroke-width="2"/>
    </g>
    <g id="XMLID_131_" transform="translate(361.261 69.049)">
      <path id="XMLID_135_" d="M544.12,340.027c-49.1-1.392-113.236-23.668-140.71-63.579-14.572-21.162-17.914-44.923-9.653-68.777,24.6-70.54,82.978-140.71,158.066-138.575,74.717,2.135,133.748,64.6,131.614,139.317S618.837,342.162,544.12,340.027Z" transform="translate(-389.329 -69.049)" fill="none" stroke="#b2b2b2" stroke-miterlimit="10" stroke-width="2"/>
      <path id="XMLID_140_" d="M550.41,333.848c-47.708.928-110.916-17.449-139.317-54.483-15.036-19.677-19.306-42.324-12.345-65.621C419.539,144.967,473.187,74.89,546.141,73.5c72.582-1.392,132.635,55.783,133.748,127.623C681.1,272.868,622.993,332.456,550.41,333.848Z" transform="translate(-389.772 -69.367)" fill="none" stroke="#b2b2b2" stroke-miterlimit="10" stroke-width="2"/>
      <path id="XMLID_139_" d="M556.685,327.644C510.277,330.893,448,316.32,418.76,282.257c-15.593-18.1-20.791-39.725-15.036-62.373,17.078-67.106,65.9-137.09,136.719-142.009C610.89,72.956,671.87,124.933,676.325,193.8,680.873,262.58,627.133,322.632,556.685,327.644Z" transform="translate(-390.2 -69.66)" fill="none" stroke="#b2b2b2" stroke-miterlimit="10" stroke-width="2"/>
      <path id="XMLID_138_" d="M562.951,321.3c-45.016,5.569-106.368-5.1-136.533-36.384-16.057-16.614-22.183-37.034-17.728-59.124,13.273-65.436,57.361-135.233,126.137-143.773,68.313-8.446,130.221,38.24,138.018,104.233S631.264,312.858,562.951,321.3Z" transform="translate(-390.618 -69.91)" fill="none" stroke="#b2b2b2" stroke-miterlimit="10" stroke-width="2"/>
      <path id="XMLID_137_" d="M569.2,315.031c-43.624,7.889-104.047,1.114-135.141-27.288-16.521-15.036-23.575-34.435-20.42-55.968C423.11,168.1,462.557,98.4,529.107,86.238c66.271-12.066,129.2,29.423,140.246,92.538S635.474,302.965,569.2,315.031Z" transform="translate(-391.023 -70.134)" fill="none" stroke="#b2b2b2" stroke-miterlimit="10" stroke-width="2"/>
      <path id="XMLID_136_" d="M575.439,308.739c-42.232,10.21-101.727,7.332-133.748-18.192C424.705,277,416.723,258.8,418.58,237.827c5.755-62,40.375-131.614,104.79-147.207,64.136-15.593,127.994,20.7,142.38,80.843C680.043,231.515,639.576,293.146,575.439,308.739Z" transform="translate(-391.411 -70.339)" fill="none" stroke="#b2b2b2" stroke-miterlimit="10" stroke-width="2"/>
      <path id="XMLID_134_" d="M581.657,302.286C540.817,314.909,482.25,315.744,449.3,293.1c-17.542-11.973-26.453-29.144-25.8-49.564,1.949-60.331,31.836-129.757,94.116-148.97,62.094-19.12,126.88,11.881,144.515,69.148S643.658,283.166,581.657,302.286Z" transform="translate(-391.781 -70.476)" fill="none" stroke="#b2b2b2" stroke-miterlimit="10" stroke-width="2"/>
    </g>
    <path id="XMLID_103_" d="M644.81,206.374A107.625,107.625,0,0,1,537.143,314.041c-59.5,0-145.443-34.992-127.53-91.7C429.476,159.78,477.648,98.8,537.143,98.8A107.606,107.606,0,0,1,644.81,206.374Z" transform="translate(-29.353 -2.137)" fill="#fdc000"/>
    <path id="XMLID_98_" d="M70.185,387.611c0,12.345-14.572,27.1-26.917,27.1S19.6,401.255,19.6,389c0-12.345,12.994-25.8,25.339-25.8S70.185,375.266,70.185,387.611Z" transform="translate(-1.509 -21.131)" fill="#fdc000"/>
  </g>
</svg>
