<svg xmlns="http://www.w3.org/2000/svg" width="654.458" height="1004.521" viewBox="0 0 654.458 1004.521">
  <g id="XMLID_468_" transform="translate(1.065 0.994)">
    <g id="XMLID_428_" transform="translate(0 691.783)">
      <path id="XMLID_24_" d="M39.1,798.8s-40,62.3,8.2,93.3,125.3,14,122.2-40.4c-3.1-54.5,31.5-121.2-34.6-121.2S39.1,798.8,39.1,798.8Z" transform="translate(-23.524 -730.5)" fill="none" stroke="#b2b2b2" stroke-miterlimit="10" stroke-width="2"/>
      <path id="XMLID_35_" d="M42.6,795.5s-40.5,63.9,7.3,94.2c47.7,30.3,121.4,14.4,118.5-38.6s31.9-118-32.4-118.2S43.6,793.3,42.6,795.5Z" transform="translate(-23.524 -730.5)" fill="none" stroke="#b2b2b2" stroke-miterlimit="10" stroke-width="2"/>
      <path id="XMLID_34_" d="M46,792.2s-41,65.4,6.3,95,117.5,14.7,114.8-36.7c-2.8-51.5,32.2-114.9-30.3-115.2S48,787.7,46,792.2Z" transform="translate(-23.524 -730.5)" fill="none" stroke="#b2b2b2" stroke-miterlimit="10" stroke-width="2"/>
      <path id="XMLID_33_" d="M49.4,788.9s-41.5,67,5.4,95.8,113.7,15.1,111.1-34.9,32.6-111.7-28.1-112.2S52.5,782.2,49.4,788.9Z" transform="translate(-23.524 -730.5)" fill="none" stroke="#b2b2b2" stroke-miterlimit="10" stroke-width="2"/>
      <path id="XMLID_32_" d="M52.8,785.6s-42,68.6,4.4,96.7,109.8,15.5,107.4-33,33-108.6-25.9-109.2C79.9,739.5,57,776.6,52.8,785.6Z" transform="translate(-23.524 -730.5)" fill="none" stroke="#b2b2b2" stroke-miterlimit="10" stroke-width="2"/>
      <path id="XMLID_31_" d="M56.3,782.3s-42.5,70.1,3.5,97.5c45.9,27.4,105.9,15.8,103.7-31.1-2.2-47,33.3-105.5-23.7-106.2C82.7,741.7,61.4,771.1,56.3,782.3Z" transform="translate(-23.524 -730.5)" fill="none" stroke="#b2b2b2" stroke-miterlimit="10" stroke-width="2"/>
      <path id="XMLID_30_" d="M59.7,779s-42.9,71.7,2.5,98.3,102,16.2,100-29.3,33.7-102.3-21.5-103.2S65.9,765.5,59.7,779Z" transform="translate(-23.524 -730.5)" fill="none" stroke="#b2b2b2" stroke-miterlimit="10" stroke-width="2"/>
      <path id="XMLID_29_" d="M63.1,775.7s-43.4,73.2,1.6,99.2c45,25.9,98.1,16.6,96.4-27.4-1.8-44,34.1-99.2-19.3-100.2S70.3,760,63.1,775.7Z" transform="translate(-23.524 -730.5)" fill="none" stroke="#b2b2b2" stroke-miterlimit="10" stroke-width="2"/>
      <path id="XMLID_28_" d="M66.6,772.4s-43.9,74.8.6,100,94.2,16.9,92.7-25.6c-1.6-42.5,34.5-96-17.1-97.2C91.1,748.4,74.8,754.4,66.6,772.4Z" transform="translate(-23.524 -730.5)" fill="none" stroke="#b2b2b2" stroke-miterlimit="10" stroke-width="2"/>
      <path id="XMLID_27_" d="M70,769.1S25.6,845.5,69.7,870s90.4,17.3,89-23.7,34.8-92.9-15-94.2S79.2,748.8,70,769.1Z" transform="translate(-23.524 -730.5)" fill="none" stroke="#b2b2b2" stroke-miterlimit="10" stroke-width="2"/>
      <path id="XMLID_26_" d="M73.4,765.8s-44.9,77.9-1.3,101.7c43.7,23.8,86.5,17.6,85.3-21.8-1.2-39.5,35.2-89.7-12.8-91.3S83.7,743.3,73.4,765.8Z" transform="translate(-23.524 -730.5)" fill="none" stroke="#b2b2b2" stroke-miterlimit="10" stroke-width="2"/>
      <path id="XMLID_25_" d="M76.9,762.5S31.5,842,74.7,865s82.6,18,81.6-20,35.6-86.6-10.6-88.3S88.2,737.7,76.9,762.5Z" transform="translate(-23.524 -730.5)" fill="none" stroke="#b2b2b2" stroke-miterlimit="10" stroke-width="2"/>
      <path id="XMLID_23_" d="M80.3,759.2s-45.9,81.1-3.1,103.4,78.7,18.4,77.9-18.1,35.9-83.4-8.4-85.3S92.6,732.2,80.3,759.2Z" transform="translate(-23.524 -730.5)" fill="none" stroke="#b2b2b2" stroke-miterlimit="10" stroke-width="2"/>
    </g>
    <path id="XMLID_205_" d="M674.4,250.8s-134.4-116.6-251,0-259.7,56.8-310.1,189,70.8,223.1,116.5,315.4S283.4,951.5,414,962.5l130.6,11s106.8,1.6,129.8-70.8V250.8Z" transform="translate(-23.524 -38.717)" fill="#fdc000"/>
    <path id="XMLID_235_" d="M166.9,765.7S86.6,687,50.4,783s36.2,108.6,58.2,118.1c22,9.4,78.7-23.6,78.7-50.4C187.3,824,184,779.4,166.9,765.7Z" transform="translate(-23.524 -38.717)" fill="#fdc000"/>
    <g id="XMLID_345_" transform="translate(36.273)">
      <path id="XMLID_2_" d="M674.4,858.6S588.7,989.3,480.1,986.1s-192-18.9-217.2-94.4-34.3-210.9-88-288.1-138.4-174.7,0-266,77,27.1,366.6-209.2c0,0,65.9-71,132.9,100.6Z" transform="translate(-59.797 -38.717)" fill="none" stroke="#b2b2b2" stroke-miterlimit="10" stroke-width="2"/>
      <path id="XMLID_22_" d="M674.4,862.9S590.8,992.7,479.7,988.6,286.1,968.3,260.2,888.5,220.5,678.1,169.4,601,36.5,425.1,176.1,334.7,258.4,348.8,539.3,124c5,.2,71.3-65.6,134.9,104.4C674,235.2,674.4,862.9,674.4,862.9Z" transform="translate(-59.797 -38.717)" fill="none" stroke="#b2b2b2" stroke-miterlimit="10" stroke-width="2"/>
      <path id="XMLID_21_" d="M674.4,867.1S592.9,996.1,479.3,991,284.1,969.3,257.6,885.3s-45-209.8-93.6-286.8S36.5,421.5,177.4,332s87.6,1.2,359.7-212.2c10,.4,76.8-60.3,136.9,108.3C673.6,241.4,674.4,867.1,674.4,867.1Z" transform="translate(-59.797 -38.717)" fill="none" stroke="#b2b2b2" stroke-miterlimit="10" stroke-width="2"/>
      <path id="XMLID_20_" d="M674.4,871.4S595,999.6,479,993.5,282.3,970.3,255,882.2s-50.4-209.4-96.4-286.3S36.5,417.8,178.7,329.2s93-11.8,356.3-213.7c15.1.6,82.2-54.9,138.9,112.1C673.2,247.6,674.4,871.4,674.4,871.4Z" transform="translate(-59.796 -38.717)" fill="none" stroke="#b2b2b2" stroke-miterlimit="10" stroke-width="2"/>
      <path id="XMLID_19_" d="M674.4,875.7S597.1,1003.1,478.6,996c-118.5-7-198.3-24.6-226.2-116.9s-55.8-208.9-99.2-285.7S36.5,414.2,180,326.5s98.3-24.7,352.8-215.2c20.1.8,117-56.2,140.9,116C677.4,253.6,674.4,875.7,674.4,875.7Z" transform="translate(-59.797 -38.717)" fill="none" stroke="#b2b2b2" stroke-miterlimit="10" stroke-width="2"/>
      <path id="XMLID_18_" d="M674.4,880s-75.2,126.5-196.2,118.5-199.8-26-228.5-122.6-61.2-208.4-102-285.1S36.5,410.5,181.2,323.7,284.8,286,530.6,107c25.1,1,120.8-50.1,142.9,119.8C677.9,259.8,674.4,880,674.4,880Z" transform="translate(-59.797 -38.717)" fill="none" stroke="#b2b2b2" stroke-miterlimit="10" stroke-width="2"/>
      <path id="XMLID_17_" d="M674.4,884.2s-73.1,125.7-196.6,116.7S276.4,973.5,247.1,872.7,180.5,664.9,142.3,588.2,36.4,406.8,182.5,320.9s108.9-50.6,346-218.2C558.6,104,653,58.6,673.4,226.3,678.2,266,674.4,884.2,674.4,884.2Z" transform="translate(-59.797 -38.717)" fill="none" stroke="#b2b2b2" stroke-miterlimit="10" stroke-width="2"/>
      <path id="XMLID_16_" d="M674.4,888.5s-71,124.9-196.9,114.9-203-28.9-233-133.8-72-207.3-107.6-283.9S36.4,403.1,183.8,318.1,298,254.5,526.3,98.5c35.2,1.5,128.2-38,146.9,127.5C678.5,272.2,674.4,888.5,674.4,888.5Z" transform="translate(-59.796 -38.717)" fill="none" stroke="#b2b2b2" stroke-miterlimit="10" stroke-width="2"/>
      <path id="XMLID_15_" d="M674.4,892.8s-68.9,124.1-197.3,113.1S272.6,975.6,241.9,866.5,164.5,659.7,131.5,583.2,36.4,399.5,185,315.4,304.6,238.9,524.1,94.3C564.3,96,656,62.3,673,225.6,678.6,278.5,674.4,892.8,674.4,892.8Z" transform="translate(-59.796 -38.717)" fill="none" stroke="#b2b2b2" stroke-miterlimit="10" stroke-width="2"/>
      <path id="XMLID_14_" d="M674.4,897.1s-66.8,123.2-197.7,111.3-206.1-31.7-237.5-145S156.5,657,126,580.6s-89.6-184.8,60.2-268S311.2,223.1,521.9,90c45.2,1.9,135.6-26.1,150.9,135.2C678.6,284.7,674.4,897.1,674.4,897.1Z" transform="translate(-59.796 -38.717)" fill="none" stroke="#b2b2b2" stroke-miterlimit="10" stroke-width="2"/>
      <path id="XMLID_13_" d="M674.4,901.3s-64.7,122.4-198.1,109.5S268.7,977.7,236.6,860.1,148.5,654.3,120.6,578,36.4,392.1,187.5,309.8,317.8,207.4,519.8,85.7c50.2,2.1,139.3-20.1,153,139C678.4,291,674.4,901.3,674.4,901.3Z" transform="translate(-59.796 -38.717)" fill="none" stroke="#b2b2b2" stroke-miterlimit="10" stroke-width="2"/>
      <path id="XMLID_12_" d="M674.4,905.6S611.8,1027.2,476,1013.3,266.8,978.8,234,857,140.5,651.7,115.2,575.5,36.4,388.5,188.8,307,324.4,191.6,517.6,81.4c55.2,2.3,143-14.3,155,142.8C678.1,297.2,674.4,905.6,674.4,905.6Z" transform="translate(-59.797 -38.717)" fill="none" stroke="#b2b2b2" stroke-miterlimit="10" stroke-width="2"/>
      <path id="XMLID_11_" d="M674.4,909.9s-60.5,120.8-198.8,105.9c-138.3-14.8-210.8-36-244.2-161.9S132.5,649.1,109.8,573,36.4,384.8,190.1,304.3,331,175.9,515.4,77.2c60.3,2.5,146.7-8.4,157,146.7C677.6,303.5,674.4,909.9,674.4,909.9Z" transform="translate(-59.797 -38.717)" fill="none" stroke="#b2b2b2" stroke-miterlimit="10" stroke-width="2"/>
      <path id="XMLID_10_" d="M674.4,914.1S616,1034,475.2,1018.2,262.9,980.8,228.7,850.7,124.5,646.5,104.3,570.4s-68-189.3,87-268.9S337.6,160.2,513.2,72.9c65.3,2.7,150.4-2.7,159,150.5C677,309.7,674.4,914.1,674.4,914.1Z" transform="translate(-59.796 -38.717)" fill="none" stroke="#b2b2b2" stroke-miterlimit="10" stroke-width="2"/>
      <path id="XMLID_9_" d="M674.4,918.4s-56.3,119.1-199.6,102.3c-143.2-16.8-213.9-38.8-248.7-173.2S116.5,643.9,98.9,567.8,36.3,377.4,192.6,298.7,344.2,144.5,511.1,68.6c70.3,2.9,154.1,3.1,161,154.4C676.2,316,674.4,918.4,674.4,918.4Z" transform="translate(-59.796 -38.717)" fill="none" stroke="#b2b2b2" stroke-miterlimit="10" stroke-width="2"/>
      <path id="XMLID_8_" d="M674.4,922.7S620.2,1041,474.5,1023.2s-215.4-40.3-251-178.8-115-203.2-130-279.1S36.3,373.8,193.9,296s156.9-167.2,315-231.6c75.3,3.1,157.8,8.8,163,158.2C675.3,322.3,674.4,922.7,674.4,922.7Z" transform="translate(-59.797 -38.717)" fill="none" stroke="#b2b2b2" stroke-miterlimit="10" stroke-width="2"/>
      <path id="XMLID_7_" d="M674.4,927s-52.1,117.5-200.3,98.7C325.9,1007,257.1,984,220.9,841.3S100.5,638.6,88.1,562.7,36.3,370.1,195.2,293.2,357.4,113,506.7,60.1c80.4,3.3,161.5,14.4,165,162C674.2,328.5,674.4,927,674.4,927Z" transform="translate(-59.797 -38.717)" fill="none" stroke="#b2b2b2" stroke-miterlimit="10" stroke-width="2"/>
      <path id="XMLID_6_" d="M674.4,931.2s-50,116.6-200.7,96.9S255.1,985,218.2,838.1,92.5,636,82.6,560.2,36.3,366.4,196.4,290.4,364,97.3,504.6,55.9c85.4,3.6,165.2,20,167,165.9C672.9,334.8,674.4,931.2,674.4,931.2Z" transform="translate(-59.797 -38.717)" fill="none" stroke="#b2b2b2" stroke-miterlimit="10" stroke-width="2"/>
      <path id="XMLID_5_" d="M674.4,935.5s-47.9,115.8-201.1,95.1C320.2,1009.9,253.2,986.1,215.6,835S84.5,633.3,77.2,557.6s-40.9-194.9,120.5-270S370.6,81.5,502.4,51.6c90.4,3.8,168.9,25.5,169,169.7C671.4,341,674.4,935.5,674.4,935.5Z" transform="translate(-59.797 -38.717)" fill="none" stroke="#b2b2b2" stroke-miterlimit="10" stroke-width="2"/>
      <path id="XMLID_4_" d="M674.4,939.8s-45.8,115-201.4,93.3S251.3,987.2,213,831.8,76.4,630.7,71.8,555.1c-4.7-75.6-35.5-196,127.2-270.2S377.2,65.9,500.2,47.4c95.4,4,172.6,30.9,171,173.6C669.8,347.2,674.4,939.8,674.4,939.8Z" transform="translate(-59.797 -38.717)" fill="none" stroke="#b2b2b2" stroke-miterlimit="10" stroke-width="2"/>
      <path id="XMLID_3_" d="M674.4,944s-43.7,114.2-201.8,91.5c-158.1-22.6-223.2-47.4-262.2-206.9S68.4,628.1,66.3,552.5C64.2,477,36.2,355.4,200.2,282.1S383.8,50.1,498,43.1c100.4,4.2,176.3,36.3,173,177.4C667.9,353.4,674.4,944,674.4,944Z" transform="translate(-59.797 -38.717)" fill="none" stroke="#b2b2b2" stroke-miterlimit="10" stroke-width="2"/>
      <path id="XMLID_1_" d="M674.4,948.3s-41.6,113.3-202.2,89.7S247.4,989.2,207.7,825.5,60.4,625.4,60.9,550c.5-75.5-24.7-198.3,140.6-270.7S390.4,34.4,495.9,38.8s180,41.7,175,181.2C665.9,359.6,674.4,948.3,674.4,948.3Z" transform="translate(-59.797 -38.717)" fill="none" stroke="#b2b2b2" stroke-miterlimit="10" stroke-width="2"/>
    </g>
  </g>
</svg>
