<svg xmlns="http://www.w3.org/2000/svg" width="953.646" height="517.525" viewBox="0 0 953.646 517.525">
  <g id="bg_0" transform="translate(-8.804 -45.656)">
    <path id="XMLID_85_" d="M1358.1,193.839c-133.967-162.8-334.08-108.055-391.8-64.852-34.534,25.864-59.967,55.848-102.4,78.838V512.64c72.611,9.723,140.146,14.9,186.8,12.6,115.766-5.748,180.906-42.389,180.906-42.389S1492.114,356.688,1358.1,193.839Z" transform="translate(-445.005 -19.468)" fill="#fdc000"/>
    <g id="XMLID_1_" transform="translate(9.818 46.75)">
      <path id="XMLID_5_" d="M470.6,226.13c-94.6,43.586-143.259,113.994-233.736,75.2-67.055-28.738-145.7-17.913-124.2,58.195,19.494,69.211,101.158,98.572,160.789,123.143,91.243,37.6,188.043,66.1,287.764,59.248,151.976-10.394,360.136-97.614,291.6-289.44-26.535-74.24-65.714-128.842-146.66-125.346C624.731,130.672,540.145,194.087,470.6,226.13Z" transform="translate(-61.521 -88.546)" fill="none" stroke="#b2b2b2" stroke-miterlimit="10" stroke-width="2"/>
      <path id="XMLID_101_" d="M469.386,224.948c-89.711,41.335-139.236,104.367-221.475,78.694-4.5-1.389-9.053-3.065-13.746-4.981-67.247-27.78-145.415-16-123.765,60.35,19.733,69.594,102.02,99,161.7,124.34,91.77,39.18,191.012,66.193,291.787,58.482a549.353,549.353,0,0,0,97.326-16.908C725.921,507.347,788.761,475.5,826.5,429.467c38.03-46.22,51.345-106.043,22.7-181.433-27.493-72.42-66.385-125.777-146.468-121.945a201.871,201.871,0,0,0-41.431,6.706C593.917,150.612,526.766,198.509,469.386,224.948Z" transform="translate(-60.308 -87.987)" fill="none" stroke="#b2b2b2" stroke-miterlimit="10" stroke-width="2"/>
      <path id="XMLID_100_" d="M468.22,223.767C378.461,265.1,327.834,325.739,245.308,300.833c-4.5-1.341-9.148-2.97-13.842-4.838-67.439-26.822-145.127-14.082-123.334,62.457,19.973,70.073,102.882,99.529,162.609,125.585,92.345,40.76,194.03,66.672,295.762,57.668a559.605,559.605,0,0,0,98.524-17.913c65.379-18.057,128.651-51.92,164.525-99.194,36.162-47.37,45.885-106.953,16.093-181C817.2,173,778.591,120.932,699.417,125.051a201.267,201.267,0,0,0-41.048,6.8C591.554,149.814,525.265,197.519,468.22,223.767Z" transform="translate(-59.094 -87.428)" fill="none" stroke="#b2b2b2" stroke-miterlimit="10" stroke-width="2"/>
      <path id="XMLID_99_" d="M467,222.628c-89.806,41.287-141.535,99.529-224.348,75.437-4.55-1.293-9.2-2.874-13.89-4.646-67.678-25.864-144.84-12.214-122.9,64.565,20.212,70.5,103.792,99.769,163.52,126.783,93.015,42.053,197.047,66.96,299.786,56.853a582,582,0,0,0,99.721-18.871c66.05-18.632,129.656-54.506,163.759-102.978,34.246-48.615,40.473-107.816,9.436-180.523-29.361-68.732-67.726-119.6-146.037-115.144a201.336,201.336,0,0,0-40.664,6.945C589.14,149.059,523.713,196.525,467,222.628Z" transform="translate(-57.877 -86.913)" fill="none" stroke="#b2b2b2" stroke-miterlimit="10" stroke-width="2"/>
      <path id="XMLID_82_" d="M465.787,221.485c-89.806,41.287-142.637,96.943-225.737,73.809-4.6-1.293-9.244-2.73-13.986-4.5-67.87-24.954-144.552-10.3-122.472,66.672,20.4,70.983,104.654,100.2,164.43,128.028,93.638,43.586,200.065,67.2,303.809,56.087A603.911,603.911,0,0,0,672.749,521.7c66.672-19.254,130.758-57.045,162.993-106.714,32.33-49.813,35.06-108.726,2.826-180.092-30.223-66.864-68.4-116.533-145.8-111.743a200.737,200.737,0,0,0-40.281,7.041C586.774,148.3,522.21,195.573,465.787,221.485Z" transform="translate(-56.662 -86.392)" fill="none" stroke="#b2b2b2" stroke-miterlimit="10" stroke-width="2"/>
      <path id="XMLID_81_" d="M464.654,220.239c-89.854,41.287-143.786,94.5-227.174,72.18-4.6-1.245-9.292-2.634-14.082-4.311-68.061-24-144.265-8.382-121.993,68.78,20.644,71.366,105.517,100.583,165.34,129.225,94.213,45.071,203.034,67.439,307.785,55.273A618.491,618.491,0,0,0,676.6,520.5c67.295-19.829,131.812-59.584,162.226-110.5,30.462-51.01,29.7-109.588-3.832-179.661-31.133-65-69.067-113.42-145.606-108.342a201.947,201.947,0,0,0-39.946,7.184C584.4,147.436,520.741,194.47,464.654,220.239Z" transform="translate(-55.481 -85.769)" fill="none" stroke="#b2b2b2" stroke-miterlimit="10" stroke-width="2"/>
      <path id="XMLID_80_" d="M463.434,219.107c-89.854,41.287-144.888,92.058-228.611,70.552-4.646-1.2-9.34-2.539-14.13-4.167-68.3-22.895-143.978-6.466-121.562,70.887,20.835,71.845,106.379,101.062,166.2,130.471,94.788,46.6,206.052,67.678,311.808,54.507a648.934,648.934,0,0,0,103.265-21.841c67.965-20.4,132.866-62.074,161.46-114.282,28.546-52.16,24.332-110.4-10.489-179.182C799.43,162.925,761.64,115.507,686.01,121.111a198.544,198.544,0,0,0-39.563,7.28C582.027,146.688,519.186,193.483,463.434,219.107Z" transform="translate(-54.261 -85.26)" fill="none" stroke="#b2b2b2" stroke-miterlimit="10" stroke-width="2"/>
      <path id="XMLID_79_" d="M462.2,217.994c-89.854,41.239-145.989,89.567-230,68.876-4.646-1.15-9.436-2.443-14.225-3.975-68.492-21.937-143.738-4.6-121.131,73.043C117.919,428.165,204.085,457.382,264,487.6c95.41,48.136,209.069,67.87,315.783,53.692A662.973,662.973,0,0,0,684.25,518.45c68.588-21.027,133.967-64.613,160.694-118.018,26.678-53.357,19.015-111.216-17.1-178.751-32.761-61.26-70.408-107.48-145.175-101.541a202.29,202.29,0,0,0-39.18,7.424C579.6,145.909,517.666,192.513,462.2,217.994Z" transform="translate(-53.028 -84.721)" fill="none" stroke="#b2b2b2" stroke-miterlimit="10" stroke-width="2"/>
      <path id="XMLID_78_" d="M460.975,216.722c-89.9,41.239-147.187,87.172-231.485,67.295-4.694-1.1-9.484-2.347-14.321-3.832-68.732-20.931-143.451-2.682-120.7,75.15,21.314,72.659,108.1,101.876,168.07,132.866,95.985,49.669,212.039,68.061,319.807,52.878a681.249,681.249,0,0,0,105.66-23.853c69.259-21.6,135.069-67.151,159.927-121.8,24.81-54.507,13.7-112.031-23.757-178.32C790.6,157.713,753.1,112.69,679.241,118.964a201.753,201.753,0,0,0-38.8,7.52C577.173,145.02,516.057,191.384,460.975,216.722Z" transform="translate(-51.754 -84.071)" fill="none" stroke="#b2b2b2" stroke-miterlimit="10" stroke-width="2"/>
      <path id="XMLID_77_" d="M459.807,215.547c-89.9,41.239-148.288,84.682-232.874,65.619-4.742-1.054-9.531-2.251-14.369-3.64C143.641,257.553,69.4,276.759,92.3,354.783c21.554,73.09,108.965,102.307,168.932,134.111,96.56,51.2,215.056,68.253,323.782,52.112a696.433,696.433,0,0,0,106.81-24.858C761.7,493.923,827.942,446.505,850.98,390.562c22.895-55.656,8.43-112.845-30.367-177.841-34.294-57.524-71.8-101.35-144.744-94.74a198.433,198.433,0,0,0-38.413,7.663C574.807,144.229,514.6,190.4,459.807,215.547Z" transform="translate(-50.586 -83.52)" fill="none" stroke="#b2b2b2" stroke-miterlimit="10" stroke-width="2"/>
      <path id="XMLID_76_" d="M458.669,214.315c-89.95,41.239-149.438,82.287-234.311,64.038-4.742-1.006-9.579-2.155-14.465-3.5-69.115-19.015-142.876,1.15-119.79,79.365,21.745,73.522,109.779,102.691,169.794,135.26,97.135,52.734,218.074,68.445,327.805,51.3A724.2,724.2,0,0,0,695.71,514.963c70.552-22.847,137.224-72.18,158.395-129.321,21.027-56.853,3.161-113.611-37.024-177.41-35.013-55.608-72.468-98.284-144.5-91.339a201.57,201.57,0,0,0-38.03,7.759C572.471,143.38,513.127,189.313,458.669,214.315Z" transform="translate(-49.399 -82.91)" fill="none" stroke="#b2b2b2" stroke-miterlimit="10" stroke-width="2"/>
      <path id="XMLID_75_" d="M457.394,213.022c-90,41.191-150.587,79.844-235.748,62.362-4.79-.958-9.627-2.06-14.561-3.3C137.779,254.022,64.5,275.1,87.727,353.551c21.985,73.953,110.689,103.17,170.752,136.506,97.757,54.267,221.044,68.588,331.829,50.483a733.226,733.226,0,0,0,109.2-26.822C770.687,490.3,837.79,439.047,857.141,380.613c19.159-58-2.06-114.377-43.634-176.979-35.731-53.74-73.138-95.219-144.313-87.938a198.2,198.2,0,0,0-37.647,7.9C570,142.47,511.518,188.212,457.394,213.022Z" transform="translate(-48.125 -82.24)" fill="none" stroke="#b2b2b2" stroke-miterlimit="10" stroke-width="2"/>
      <path id="XMLID_74_" d="M456.171,211.93c-90,41.191-151.737,77.4-237.185,60.733-4.838-.958-9.675-1.964-14.609-3.161-69.5-17.051-142.3,4.933-118.928,83.628C107.674,427.561,197,456.73,257.112,490.881c98.332,55.8,224.061,68.78,335.8,49.717a752.951,752.951,0,0,0,110.4-27.828c71.8-24.044,139.38-77.162,156.814-136.841,17.291-59.152-7.232-115.144-50.292-176.5-36.4-51.872-73.809-92.153-144.073-84.538a198.456,198.456,0,0,0-37.264,8C567.579,141.761,510.007,187.263,456.171,211.93Z" transform="translate(-46.902 -81.771)" fill="none" stroke="#b2b2b2" stroke-miterlimit="10" stroke-width="2"/>
      <path id="XMLID_73_" d="M455.029,210.674c-90.046,41.191-152.886,74.958-238.574,59.1-4.838-.91-9.771-1.868-14.7-2.97-69.738-16.141-142.062,6.849-118.5,85.687,22.416,74.863,112.366,104.08,172.572,139,98.907,57.38,227.031,68.923,339.827,48.9a778.22,778.22,0,0,0,111.6-28.786c72.468-24.667,140.481-79.7,156.048-140.625,15.423-60.3-12.405-115.91-56.9-176.068-36.976-50-74.479-89.088-143.882-81.137a198.915,198.915,0,0,0-36.88,8.142C565.24,140.888,508.53,186.15,455.029,210.674Z" transform="translate(-45.712 -81.137)" fill="none" stroke="#b2b2b2" stroke-miterlimit="10" stroke-width="2"/>
      <path id="XMLID_72_" d="M453.8,209.356c-90.046,41.191-154.036,72.516-240.011,57.476-4.885-.862-9.819-1.724-14.8-2.826-69.881-15.135-141.727,8.765-118.018,87.843C103.631,427.143,194.2,456.36,254.458,492.043c99.482,58.913,230.048,69.067,343.8,48.088A793.489,793.489,0,0,0,711.01,510.34c73.09-25.289,141.583-82.191,155.281-144.409,13.555-61.5-17.53-116.676-63.559-175.637-37.6-48.136-75.15-86.023-143.642-77.736a199.767,199.767,0,0,0-36.545,8.238C562.817,139.954,506.97,185.025,453.8,209.356Z" transform="translate(-44.487 -80.442)" fill="none" stroke="#b2b2b2" stroke-miterlimit="10" stroke-width="2"/>
      <path id="XMLID_71_" d="M452.578,208.186c-90.046,41.143-155.138,70.121-241.4,55.848-4.885-.814-9.867-1.628-14.848-2.634C126.21,247.174,54.844,272.032,78.7,351.3c22.895,75.725,114.09,104.99,174.392,141.439,100.056,60.494,233.066,69.211,347.826,47.322a811.818,811.818,0,0,0,113.946-30.8c73.713-25.96,142.684-84.681,154.515-148.145,11.687-62.649-22.607-117.443-70.169-175.158C761.081,139.694,723.386,103,655.756,111.626a204.327,204.327,0,0,0-36.162,8.334C560.442,139.167,505.456,184,452.578,208.186Z" transform="translate(-43.261 -79.894)" fill="none" stroke="#b2b2b2" stroke-miterlimit="10" stroke-width="2"/>
      <path id="XMLID_70_" d="M451.4,206.848c-90.094,41.143-156.287,67.678-242.884,54.219-4.933-.766-9.915-1.533-14.944-2.491-70.265-13.219-141.152,12.549-117.155,92.058C99.55,426.79,191.368,456.055,251.718,493.27c100.631,62.074,236.035,69.307,351.8,46.508a827.281,827.281,0,0,0,115.144-31.8C793,481.392,862.449,420.8,872.412,356.046c9.819-63.8-27.684-118.209-76.826-174.727-38.653-44.448-76.491-79.892-143.211-70.935a204.084,204.084,0,0,0-35.779,8.478C558.017,138.212,503.942,182.852,451.4,206.848Z" transform="translate(-42.034 -79.179)" fill="none" stroke="#b2b2b2" stroke-miterlimit="10" stroke-width="2"/>
      <path id="XMLID_69_" d="M450.169,205.6c-90.142,41.143-157.437,65.235-244.273,52.591-4.981-.718-9.963-1.437-14.992-2.347C120.352,243.585,49.992,270.359,74.132,350.06c23.326,76.587,115.814,105.852,176.212,143.834,101.206,63.655,239.053,69.45,355.825,45.741A848.844,848.844,0,0,0,722.51,506.873c75.006-27.205,144.888-89.711,152.982-155.712,7.951-64.948-32.666-118.976-83.436-174.3-39.132-42.628-77.21-76.826-143.02-67.534a204.711,204.711,0,0,0-35.4,8.574C555.638,137.35,502.376,181.75,450.169,205.6Z" transform="translate(-40.804 -78.557)" fill="none" stroke="#b2b2b2" stroke-miterlimit="10" stroke-width="2"/>
      <path id="XMLID_68_" d="M448.972,204.309c-90.142,41.143-158.586,62.841-245.71,50.962-4.981-.671-10.058-1.341-15.087-2.155C117.431,241.812,47.5,269.5,71.833,349.388,95.4,426.406,188.462,455.719,248.907,494.467,350.688,559.7,490.93,564.013,608.756,539.394a859.147,859.147,0,0,0,117.491-33.767c75.629-27.876,145.989-92.2,152.216-159.448,6.131-66.1-37.647-119.742-90.094-173.817C748.854,131.506,710.536,98.6,645.636,108.18a201.189,201.189,0,0,0-35.012,8.717C553.2,136.439,500.844,180.648,448.972,204.309Z" transform="translate(-39.559 -77.885)" fill="none" stroke="#b2b2b2" stroke-miterlimit="10" stroke-width="2"/>
      <path id="XMLID_67_" d="M447.742,202.933c-90.19,41.1-159.736,60.4-247.147,49.334-5.029-.623-10.106-1.245-15.183-2.012C114.524,239.862,45.074,268.5,69.549,348.635,93.354,426.084,187.04,455.4,247.534,494.912c102.307,66.816,244.992,69.642,363.824,44.113a871.084,871.084,0,0,0,118.688-34.773c76.252-28.5,147.091-94.692,151.449-163.232,4.263-67.247-42.58-120.556-96.7-173.386C744.8,128.6,706.241,96.986,642.2,106.9a206.386,206.386,0,0,0-34.629,8.813C550.816,135.447,499.279,179.416,447.742,202.933Z" transform="translate(-38.329 -77.132)" fill="none" stroke="#b2b2b2" stroke-miterlimit="10" stroke-width="2"/>
      <path id="XMLID_66_" d="M446.544,201.748c-90.19,41.1-160.885,58-248.584,47.705-5.077-.575-10.154-1.15-15.231-1.82C111.65,238.15,42.679,267.75,67.346,348.073c24,77.928,118.3,107.241,178.894,147.522,102.882,68.4,248.009,69.786,367.847,43.347a889.449,889.449,0,0,0,119.886-35.731c76.874-29.169,148.193-97.183,150.683-167.016,2.395-68.4-47.514-121.418-103.361-172.955-40.377-37.264-79.221-67.582-142.349-57.332a201.642,201.642,0,0,0-34.246,8.957C548.421,134.6,497.794,178.327,446.544,201.748Z" transform="translate(-37.131 -76.522)" fill="none" stroke="#b2b2b2" stroke-miterlimit="10" stroke-width="2"/>
      <path id="XMLID_65_" d="M445.412,200.448c-90.237,41.1-162.035,55.56-249.973,46.029-5.077-.575-10.2-1.054-15.327-1.676-71.27-8.478-139.763,22.08-114.952,102.643C89.4,425.8,184.327,455.163,244.964,496.162c103.457,69.977,250.979,69.881,371.823,42.532A899.11,899.11,0,0,0,737.87,501.958c77.5-29.792,149.342-99.721,149.917-170.752.575-69.546-52.351-122.28-109.971-172.476C737.1,123.238,697.924,94.213,635.658,104.8A202.434,202.434,0,0,0,601.8,113.85C546.091,133.68,496.327,177.218,445.412,200.448Z" transform="translate(-35.952 -75.844)" fill="none" stroke="#b2b2b2" stroke-miterlimit="10" stroke-width="2"/>
      <path id="XMLID_64_" d="M444.127,199.04c-90.237,41.048-163.184,53.165-251.41,44.4-5.125-.527-10.25-.958-15.423-1.485-71.462-7.52-139.475,24-114.521,104.75C87.249,425.5,182.8,454.857,243.488,496.623c103.984,71.558,253.949,69.977,375.846,41.718A913.719,913.719,0,0,0,741.566,500.6c78.12-30.462,150.444-102.212,149.151-174.536-1.293-70.743-57.189-123.143-116.629-172.045-41.047-33.767-80.562-61.4-141.918-50.531a208.907,208.907,0,0,0-33.528,9.2C543.609,132.656,494.706,175.954,444.127,199.04Z" transform="translate(-34.667 -75.059)" fill="none" stroke="#b2b2b2" stroke-miterlimit="10" stroke-width="2"/>
      <path id="XMLID_63_" d="M442.894,197.7c-90.285,41.048-164.334,50.771-252.847,42.772-5.173-.479-10.3-.862-15.471-1.341-71.654-6.562-139.188,25.864-114.09,106.858C85.2,425.208,181.329,454.617,242.11,497.149c104.559,73.186,256.966,70.025,379.821,40.952a923.414,923.414,0,0,0,123.43-38.749c78.742-31.133,151.545-104.7,148.384-178.272-3.113-71.893-62.026-124.1-123.238-171.614-41.383-32.091-81.233-58.338-141.727-47.13a210.034,210.034,0,0,0-33.144,9.292C541.178,131.7,493.185,174.8,442.894,197.7Z" transform="translate(-33.433 -74.34)" fill="none" stroke="#b2b2b2" stroke-miterlimit="10" stroke-width="2"/>
      <path id="XMLID_62_" d="M441.707,196.335c-90.285,41.048-165.483,48.328-254.284,41.143-5.173-.431-10.394-.766-15.566-1.15-71.845-5.652-138.9,27.78-113.659,108.965C83.1,424.946,179.9,454.4,240.732,497.653c105.085,74.767,259.936,70.121,383.845,40.138A937.7,937.7,0,0,0,749.2,498.085c79.365-31.8,152.695-107.241,147.618-182.056-4.981-73.043-66.768-125.058-129.9-171.135-41.67-30.414-81.951-55.273-141.487-43.73a207.8,207.8,0,0,0-32.761,9.436C538.793,130.717,491.663,173.584,441.707,196.335Z" transform="translate(-32.198 -73.599)" fill="none" stroke="#b2b2b2" stroke-miterlimit="10" stroke-width="2"/>
      <path id="XMLID_35_" d="M440.486,194.858c-90.333,41.047-166.633,45.933-255.673,39.515-5.221-.383-10.441-.671-15.662-1.006-72.037-4.694-138.661,29.7-113.18,111.073,25.146,80.083,122.52,109.588,183.445,153.6,105.66,76.348,262.905,70.217,387.868,39.323a950.173,950.173,0,0,0,125.825-40.712c79.988-32.474,153.8-109.732,146.8-185.839-6.8-74.192-71.51-126.064-136.506-170.7-41.91-28.786-82.622-52.16-141.3-40.329a212.869,212.869,0,0,0-32.378,9.531C536.375,129.623,490.107,172.251,440.486,194.858Z" transform="translate(-30.977 -72.746)" fill="none" stroke="#b2b2b2" stroke-miterlimit="10" stroke-width="2"/>
      <path id="XMLID_34_" d="M439.294,193.436c-90.381,41-167.782,43.538-257.158,37.886-5.221-.335-10.489-.575-15.71-.814C94.15,226.772,28.052,262.072,53.677,343.688,79.062,424.2,177.059,453.754,237.984,498.49c106.187,77.976,265.875,70.265,391.843,38.557a961.625,961.625,0,0,0,127.022-41.718c80.61-33.145,154.946-112.222,146.037-189.575-8.621-75.342-76.252-127.118-143.163-170.273-42.149-27.205-83.292-49.094-141.056-36.928a209.111,209.111,0,0,0-32,9.675C533.986,128.583,488.58,171.02,439.294,193.436Z" transform="translate(-29.737 -71.945)" fill="none" stroke="#b2b2b2" stroke-miterlimit="10" stroke-width="2"/>
      <path id="XMLID_33_" d="M438.056,192c-90.381,41-168.932,41.143-258.547,36.258-5.269-.287-10.537-.479-15.806-.671C91.235,224.811,25.617,261.116,51.385,342.924,76.962,423.87,175.581,453.47,236.6,498.972c106.762,79.556,268.892,70.36,395.867,37.743A979.173,979.173,0,0,0,760.64,494.038c81.233-33.863,156.048-114.809,145.319-193.407-10.489-76.539-80.945-128.268-149.773-169.794C713.8,105.213,672.223,84.856,615.322,97.31a214.475,214.475,0,0,0-31.612,9.771C531.55,127.532,487.054,169.729,438.056,192Z" transform="translate(-28.499 -71.134)" fill="none" stroke="#b2b2b2" stroke-miterlimit="10" stroke-width="2"/>
      <path id="XMLID_32_" d="M436.816,190.46c-90.381,41-170.081,38.748-259.984,34.629-5.317-.239-10.585-.383-15.854-.479-72.659-1.868-137.8,35.4-111.887,117.395C74.908,423.43,174.151,453.03,235.219,499.25c107.289,81.185,271.862,70.408,399.842,36.976A983.991,983.991,0,0,0,764.43,492.545c81.856-34.534,157.2-117.251,144.5-197.143C896.625,217.713,823.3,165.985,752.5,126.039c-42.628-24.044-84.634-42.915-140.625-30.127a210.627,210.627,0,0,0-31.229,9.915C529.161,126.374,485.479,168.379,436.816,190.46Z" transform="translate(-27.26 -70.215)" fill="none" stroke="#b2b2b2" stroke-miterlimit="10" stroke-width="2"/>
      <path id="XMLID_31_" d="M435.624,188.886c-90.429,41-171.183,36.354-261.373,33-5.317-.192-10.681-.287-15.95-.335-72.9-.91-137.559,37.312-111.5,119.55C72.854,422.91,172.671,452.558,233.835,499.545,341.651,582.358,508.667,570,637.7,535.707a992.656,992.656,0,0,0,130.567-44.688c82.478-35.2,158.3-119.742,143.738-200.879C897.828,211.3,821.72,159.478,748.965,121.208c-42.868-22.559-85.3-39.8-140.433-26.726a222.536,222.536,0,0,0-30.846,10.01C526.724,125.184,483.952,166.95,435.624,188.886Z" transform="translate(-26.02 -69.264)" fill="none" stroke="#b2b2b2" stroke-miterlimit="10" stroke-width="2"/>
      <path id="XMLID_30_" d="M434.383,187.317c-90.429,40.952-172.332,33.959-262.809,31.372-5.364-.144-10.729-.144-16.045-.144C82.485,218.546,18.3,257.773,44.5,340.2,70.751,422.49,171.19,452.186,232.45,499.891c108.342,84.442,277.8,70.552,407.841,35.348a1010.048,1010.048,0,0,0,131.764-45.694c83.1-35.923,159.448-122.28,142.972-204.663-16-80.035-94.931-131.956-169.7-168.453C702.221,95.355,659.354,79.741,605.135,93.1a218.472,218.472,0,0,0-30.462,10.154C524.333,124,482.375,165.572,434.383,187.317Z" transform="translate(-24.778 -68.317)" fill="none" stroke="#b2b2b2" stroke-miterlimit="10" stroke-width="2"/>
      <path id="XMLID_29_" d="M433.171,185.67c-90.477,40.952-173.482,31.564-264.246,29.7-5.412-.1-10.777-.048-16.093,0C79.6,216.371,15.9,256.509,42.286,339.179,68.773,421.9,169.787,451.64,231.143,500.064c108.869,86.023,280.771,70.6,411.864,34.581a1014.288,1014.288,0,0,0,132.914-46.651C859.6,451.4,936.471,363.223,918.126,279.6c-17.818-81.185-99.577-133.3-176.308-168.022-43.347-19.59-86.645-33.624-140-19.925a223.428,223.428,0,0,0-30.127,10.25C521.924,122.733,480.877,164.068,433.171,185.67Z" transform="translate(-23.567 -67.293)" fill="none" stroke="#b2b2b2" stroke-miterlimit="10" stroke-width="2"/>
      <path id="XMLID_28_" d="M431.976,183.919C341.5,224.87,257.344,213.088,166.293,211.986c-5.412-.048-10.825.048-16.189.144C76.678,214.046,13.454,255.141,39.989,338,66.715,421.2,168.3,450.991,229.708,500.229,339.1,587.88,513.448,570.877,645.6,534a1030.011,1030.011,0,0,0,134.111-47.657c84.3-37.312,161.7-127.31,141.439-212.183C901.508,191.822,816.922,139.423,738.18,106.565c-43.586-18.153-87.316-30.51-139.763-16.524a226.156,226.156,0,0,0-29.744,10.394C519.531,121.366,479.346,162.461,431.976,183.919Z" transform="translate(-22.323 -66.164)" fill="none" stroke="#b2b2b2" stroke-miterlimit="10" stroke-width="2"/>
      <path id="XMLID_27_" d="M430.661,182.075c-90.525,40.952-175.781,26.774-267.12,26.439-5.46,0-10.873.144-16.285.335-73.617,2.826-136.41,44.927-109.684,127.98C64.491,420.409,166.75,450.249,228.25,500.157c109.923,89.28,286.71,70.7,419.863,32.953,57.38-16.285,106.091-35.587,135.308-48.663,84.921-37.982,162.849-129.8,140.673-215.966-21.506-83.532-108.869-136.266-189.575-167.112-43.826-16.764-87.986-27.4-139.571-13.124a226.278,226.278,0,0,0-29.361,10.489C517.019,119.857,477.7,160.761,430.661,182.075Z" transform="translate(-21.009 -64.896)" fill="none" stroke="#b2b2b2" stroke-miterlimit="10" stroke-width="2"/>
      <path id="XMLID_26_" d="M429.564,180.3c-90.573,40.9-176.931,24.379-268.509,24.811-5.508.048-10.968.239-16.333.479C70.866,209.372,8.6,252.431,35.47,335.723c27.11,84.011,129.944,113.9,191.539,164.573C337.459,591.2,516.688,571.04,650.9,532.483,709.09,515.767,758.28,496.034,787.4,482.862c85.5-38.7,163.951-132.339,139.906-219.7-23.326-84.681-113.515-137.8-196.233-166.681C687.009,81.1,642.418,72.2,591.743,86.756a229.314,229.314,0,0,0-28.978,10.633C514.677,118.464,476.264,159.128,429.564,180.3Z" transform="translate(-19.864 -63.741)" fill="none" stroke="#b2b2b2" stroke-miterlimit="10" stroke-width="2"/>
      <path id="XMLID_25_" d="M428.265,178.165c-90.573,40.9-178.08,21.985-269.946,23.182-5.508.048-11.016.335-16.429.671-74.048,4.694-135.835,48.711-108.821,132.2,27.4,84.49,130.806,114.377,192.5,165.819,110.977,92.536,292.649,70.791,427.862,31.372,59.009-17.195,108.678-37.359,137.655-50.627C877.2,441.358,956.327,345.852,930.223,257.29c-25-85.927-118.161-139.427-202.843-166.25-44.352-14.034-89.328-21.218-139.14-6.322a229.438,229.438,0,0,0-28.594,10.729C512.228,116.714,474.677,157.186,428.265,178.165Z" transform="translate(-18.565 -62.231)" fill="none" stroke="#b2b2b2" stroke-miterlimit="10" stroke-width="2"/>
      <path id="XMLID_24_" d="M426.965,175.972c-90.621,40.9-179.23,19.638-271.383,21.554-5.556.1-11.064.431-16.524.814C64.818,203.848,3.51,248.967,30.667,332.69,58.3,417.563,162.288,447.547,224.027,499.706c111.5,94.165,295.619,70.839,431.885,30.558,59.775-17.674,109.923-38.222,138.853-51.633,86.693-40.138,166.345-137.416,138.374-227.27-26.822-87.076-122.807-141.1-209.5-165.771-44.64-12.693-90-18.1-138.9-2.922a241.029,241.029,0,0,0-28.211,10.873C509.731,114.9,473.042,155.137,426.965,175.972Z" transform="translate(-17.265 -60.661)" fill="none" stroke="#b2b2b2" stroke-miterlimit="10" stroke-width="2"/>
      <path id="XMLID_10_" d="M425.846,173.653c-90.621,40.9-180.379,17.243-272.82,19.925-5.6.144-11.112.527-16.572,1.006C62.022,201,1.193,247.127,28.542,331.042c27.828,85.3,132.435,115.335,194.269,168.213,112.031,95.793,298.588,70.887,435.86,29.792,60.589-18.153,111.216-39.132,140.05-52.638C885.99,435.552,966.217,336.454,936.33,245.4c-28.69-88.226-127.5-142.876-216.158-165.34-44.927-11.4-90.669-14.992-138.709.479A244.8,244.8,0,0,0,553.635,91.51C507.414,112.968,471.587,153.01,425.846,173.653Z" transform="translate(-16.098 -58.964)" fill="none" stroke="#b2b2b2" stroke-miterlimit="10" stroke-width="2"/>
      <path id="XMLID_9_" d="M424.592,171.089c-90.669,40.856-181.481,14.992-274.209,18.3q-8.406.359-16.668,1.15C59.044,197.911-1.258,244.994,26.235,329.1,54.3,414.835,159.483,444.915,221.414,498.559c112.509,97.422,301.51,70.935,439.884,28.978,61.4-18.632,112.509-39.994,141.247-53.6,87.891-41.574,168.6-142.445,136.841-234.79-30.558-89.423-132.243-144.7-222.768-164.909-45.262-10.106-91.339-11.878-138.47,3.88A258.693,258.693,0,0,0,550.7,89.185C504.963,110.787,470.046,150.589,424.592,171.089Z" transform="translate(-14.844 -57.023)" fill="none" stroke="#b2b2b2" stroke-miterlimit="10" stroke-width="2"/>
      <path id="XMLID_8_" d="M423.322,168.346c-90.669,40.856-182.63,12.6-275.646,16.668-5.652.239-11.208.718-16.764,1.341-74.815,8.334-134.686,56.327-107,140.673C52.218,413.194,157.926,443.465,220,497.684c112.893,99.242,304.432,70.743,443.907,28.163,62.122-19.207,113.755-40.9,142.4-54.6C894.769,428.9,976,326.262,942.331,232.719,909.9,142.147,805.346,86.2,712.905,68.29c-45.646-8.861-92.01-8.717-138.278,7.28a249.741,249.741,0,0,0-27.062,11.208C502.543,108.427,468.44,147.99,423.322,168.346Z" transform="translate(-13.573 -54.903)" fill="none" stroke="#b2b2b2" stroke-miterlimit="10" stroke-width="2"/>
      <path id="XMLID_7_" d="M422.117,165.309c-90.716,40.856-183.78,10.2-277.083,15.04-5.652.287-11.3.814-16.812,1.485C53.168,191.126-6.224,240.076,21.6,324.662c28.5,86.645,134.829,116.868,197,171.854,113.467,100.823,307.4,70.839,447.883,27.4,62.936-19.638,115-41.862,143.594-55.608,88.992-43.2,170.8-147.474,135.308-242.31C911.143,134.272,803.615,77.563,709.354,62c-45.981-7.568-92.632-5.556-138.038,10.681a270.538,270.538,0,0,0-26.726,11.3C500.093,105.774,466.9,145.145,422.117,165.309Z" transform="translate(-12.321 -52.488)" fill="none" stroke="#b2b2b2" stroke-miterlimit="10" stroke-width="2"/>
      <path id="XMLID_6_" d="M420.863,161.874c-90.716,40.856-184.929,7.759-278.472,13.411-5.7.335-11.352.91-16.908,1.676C50.238,187.163-8.675,237.071,19.3,321.849c28.738,87.076,135.691,117.347,197.909,173.1,113.994,102.4,310.371,70.935,451.906,26.583,63.751-20.069,116.293-42.724,144.792-56.614C903.518,421.043,985.805,314.9,948.4,218.823,912.284,125.9,801.834,68.427,705.7,55.255c-46.412-6.37-93.3-2.443-137.847,14.082a277.109,277.109,0,0,0-26.343,11.447C497.689,102.721,465.359,141.853,420.863,161.874Z" transform="translate(-11.067 -49.675)" fill="none" stroke="#b2b2b2" stroke-miterlimit="10" stroke-width="2"/>
      <path id="XMLID_4_" d="M951.411,211.634c-37.982-94.069-151.4-152.407-249.3-163.088-56.279-6.131-113.036,3.4-163.567,29.073-43.3,21.985-74.767,60.877-118.928,80.754-90.716,40.808-186.031,5.317-279.909,11.735C56.413,175.76-13.181,227.728,16.994,318.971c28.978,87.507,136.554,117.778,198.819,174.3,166.441,151.066,510.771,13.172,601.871-31.8C907.921,416.968,990.687,308.961,951.411,211.634Z" transform="translate(-9.818 -46.75)" fill="none" stroke="#b2b2b2" stroke-miterlimit="10" stroke-width="2"/>
    </g>
    <path id="XMLID_88_" d="M315.481,376.028c-128.651,14.417-158.921-20.165-215.1,4.311C23.023,414.106-6.242,541.75,126.337,583.516c79.125,24.954,197.909,49.382,305.486,63.8V342.5C403.323,357.923,367.209,370.232,315.481,376.028Z" transform="translate(-12.927 -154.096)" fill="#fdc000"/>
  </g>
</svg>
