<?xml version="1.0" encoding="utf-8"?>
<!-- Generator: Adobe Illustrator 19.0.0, SVG Export Plug-In . SVG Version: 6.00 Build 0)  -->
<svg version="1.1" id="Layer_1" xmlns="http://www.w3.org/2000/svg" xmlns:xlink="http://www.w3.org/1999/xlink" x="0px" y="0px"
	 viewBox="-537 127 844.5 828" style="enable-background:new -537 127 844.5 828;" xml:space="preserve">
<style type="text/css">
	.st0{fill:none;}
	.st1{fill:none;stroke:#000000;stroke-linecap:round;stroke-linejoin:round;}
	.st2{fill:none;stroke:#FFFFFF;stroke-linecap:round;stroke-linejoin:round;}
	.st3{fill:none;stroke:#000000;stroke-width:4;stroke-miterlimit:10;}
	.st4{fill:url(#New_Pattern);}
	.st5{fill:url(#SVGID_1_);}
	.st6{fill:#FFFFFF;stroke:#000000;stroke-width:2;stroke-miterlimit:10;}
	.st7{fill:none;stroke:#000000;stroke-width:2;stroke-miterlimit:10;}
	.st8{fill:none;stroke:#000000;stroke-miterlimit:10;}
	.st9{fill:#FFFFFF;}
</style>
<pattern  x="-537" y="955" width="152.1" height="96" patternUnits="userSpaceOnUse" id="New_Pattern" viewBox="87.3 -192.4 152.1 96" style="overflow:visible;">
	<g>
		<polygon class="st0" points="87.3,-192.4 239.4,-192.4 239.4,-96.5 87.3,-96.5 		"/>
		<g>
			<line class="st1" x1="239.4" y1="-1.6" x2="338.8" y2="-96.5"/>
			<line class="st1" x1="239.4" y1="-10.5" x2="327" y2="-96.3"/>
			<line class="st1" x1="239.4" y1="-21.2" x2="315.4" y2="-96.5"/>
			<line class="st1" x1="239.4" y1="-31.6" x2="304.6" y2="-96.5"/>
			<line class="st1" x1="239.4" y1="-42" x2="293.5" y2="-96.3"/>
			<line class="st1" x1="239.4" y1="-86.5" x2="251.3" y2="-96.3"/>
		</g>
		<g>
			<line class="st1" x1="230" y1="-96.5" x2="132.3" y2="-0.5"/>
			<line class="st1" x1="219.5" y1="-96.5" x2="120.8" y2="-0.5"/>
			<line class="st1" x1="208.8" y1="-96.5" x2="109.8" y2="-1.1"/>
			<line class="st1" x1="198.2" y1="-96.3" x2="99.2" y2="-1.1"/>
			<line class="st1" x1="87.3" y1="-1.6" x2="186.7" y2="-96.5"/>
			<line class="st1" x1="87.3" y1="-10.5" x2="175" y2="-96.3"/>
			<line class="st1" x1="87.3" y1="-21.2" x2="163.3" y2="-96.5"/>
			<line class="st1" x1="87.3" y1="-31.6" x2="152.6" y2="-96.5"/>
			<line class="st1" x1="87.3" y1="-42" x2="141.4" y2="-96.3"/>
			<line class="st1" x1="87.3" y1="-86.5" x2="99.2" y2="-96.3"/>
		</g>
		<g>
			<line class="st1" x1="239.4" y1="-97.6" x2="338.8" y2="-192.4"/>
			<line class="st1" x1="239.4" y1="-106.5" x2="327" y2="-192.3"/>
			<line class="st1" x1="239.4" y1="-117.2" x2="315.4" y2="-192.4"/>
			<line class="st1" x1="239.4" y1="-127.5" x2="304.6" y2="-192.4"/>
			<line class="st1" x1="239.4" y1="-138" x2="293.5" y2="-192.3"/>
			<line class="st1" x1="239.4" y1="-149" x2="284.3" y2="-191.8"/>
			<line class="st1" x1="239.4" y1="-160.5" x2="273.6" y2="-191.8"/>
			<line class="st1" x1="239.4" y1="-171.7" x2="261.6" y2="-191.5"/>
			<line class="st1" x1="239.4" y1="-182.4" x2="251.3" y2="-192.3"/>
		</g>
		<g>
			<line class="st1" x1="208.8" y1="-96.5" x2="239.4" y2="-127.6"/>
			<line class="st1" x1="198.2" y1="-96.5" x2="239.4" y2="-138"/>
			<line class="st1" x1="239.4" y1="-149.1" x2="186.7" y2="-96.5"/>
			<line class="st1" x1="239.4" y1="-160.5" x2="175" y2="-97.1"/>
			<line class="st1" x1="239.4" y1="-171.9" x2="163.3" y2="-96.5"/>
			<line class="st1" x1="239.4" y1="-182.4" x2="152.6" y2="-96.5"/>
			<line class="st1" x1="236.8" y1="-190.8" x2="141.4" y2="-96.5"/>
			<line class="st1" x1="230" y1="-192.4" x2="132.3" y2="-96.5"/>
			<line class="st1" x1="219.5" y1="-192.4" x2="120.8" y2="-96.5"/>
			<line class="st1" x1="208.8" y1="-192.4" x2="109.8" y2="-97.1"/>
			<line class="st1" x1="198.2" y1="-192.3" x2="99.2" y2="-97.1"/>
			<line class="st1" x1="87.3" y1="-97.6" x2="186.7" y2="-192.4"/>
			<line class="st1" x1="87.3" y1="-106.5" x2="175" y2="-192.3"/>
			<line class="st1" x1="87.3" y1="-117.2" x2="163.3" y2="-192.4"/>
			<line class="st1" x1="87.3" y1="-127.5" x2="152.6" y2="-192.4"/>
			<line class="st1" x1="87.3" y1="-138" x2="141.4" y2="-192.3"/>
			<line class="st1" x1="87.3" y1="-149" x2="132.3" y2="-191.8"/>
			<line class="st1" x1="87.3" y1="-160.5" x2="121.6" y2="-191.8"/>
			<line class="st1" x1="87.3" y1="-171.7" x2="109.5" y2="-191.5"/>
			<line class="st1" x1="87.3" y1="-182.4" x2="99.2" y2="-192.3"/>
			<line class="st1" x1="239.4" y1="-106.5" x2="230" y2="-96.5"/>
			<line class="st1" x1="239.4" y1="-117.1" x2="219.5" y2="-96.5"/>
		</g>
		<g>
			<line class="st1" x1="56.8" y1="-96.5" x2="87.3" y2="-127.6"/>
			<line class="st1" x1="46.1" y1="-96.5" x2="87.3" y2="-138"/>
			<line class="st1" x1="87.3" y1="-149.1" x2="34.6" y2="-96.5"/>
			<line class="st1" x1="87.3" y1="-160.5" x2="22.9" y2="-97.1"/>
			<line class="st1" x1="87.3" y1="-171.9" x2="11.2" y2="-96.5"/>
			<line class="st1" x1="87.3" y1="-182.4" x2="0.5" y2="-96.5"/>
			<line class="st1" x1="87.3" y1="-106.5" x2="77.9" y2="-96.5"/>
			<line class="st1" x1="87.3" y1="-117.1" x2="67.4" y2="-96.5"/>
		</g>
		<g>
			<line class="st1" x1="208.8" y1="-192.4" x2="239.4" y2="-223.6"/>
			<line class="st1" x1="198.2" y1="-192.4" x2="239.4" y2="-233.9"/>
			<line class="st1" x1="239.4" y1="-245" x2="186.7" y2="-192.4"/>
			<line class="st1" x1="239.4" y1="-267.9" x2="163.3" y2="-192.4"/>
			<line class="st1" x1="239.4" y1="-278.4" x2="152.6" y2="-192.4"/>
			<line class="st1" x1="236.8" y1="-286.8" x2="141.4" y2="-192.4"/>
			<line class="st1" x1="230" y1="-288.4" x2="132.3" y2="-192.4"/>
			<line class="st1" x1="219.5" y1="-288.4" x2="120.8" y2="-192.4"/>
			<line class="st1" x1="239.4" y1="-202.5" x2="230" y2="-192.4"/>
			<line class="st1" x1="239.4" y1="-213.1" x2="219.5" y2="-192.4"/>
		</g>
		<g>
			<line class="st1" x1="56.8" y1="-192.4" x2="87.3" y2="-223.6"/>
			<line class="st1" x1="46.1" y1="-192.4" x2="87.3" y2="-233.9"/>
			<line class="st1" x1="87.3" y1="-245" x2="34.6" y2="-192.4"/>
			<line class="st1" x1="87.3" y1="-267.9" x2="11.2" y2="-192.4"/>
			<line class="st1" x1="87.3" y1="-278.4" x2="0.5" y2="-192.4"/>
			<line class="st1" x1="87.3" y1="-202.5" x2="77.9" y2="-192.4"/>
			<line class="st1" x1="87.3" y1="-213.1" x2="67.4" y2="-192.4"/>
		</g>
	</g>
</pattern>
<pattern  x="-537" y="955" width="153.1" height="97" patternUnits="userSpaceOnUse" id="New_Pattern_2" viewBox="0 -192 153.1 97" style="overflow:visible;">
	<g>
		<polygon class="st0" points="0,-192 153.1,-192 153.1,-95 0,-95 		"/>
		<g>
			<line class="st2" x1="150" y1="-94.9" x2="54.6" y2="-0.5"/>
			<line class="st2" x1="143.2" y1="-96.5" x2="45.5" y2="-0.5"/>
			<line class="st2" x1="132.7" y1="-96.5" x2="34" y2="-0.5"/>
			<line class="st2" x1="122" y1="-96.5" x2="23" y2="-1.1"/>
			<line class="st2" x1="111.4" y1="-96.3" x2="12.4" y2="-1.1"/>
			<line class="st2" x1="0.5" y1="-1.6" x2="99.9" y2="-96.5"/>
			<line class="st2" x1="0.5" y1="-10.5" x2="88.2" y2="-96.3"/>
			<line class="st2" x1="0.5" y1="-21.2" x2="76.5" y2="-96.5"/>
			<line class="st2" x1="0.5" y1="-31.6" x2="65.8" y2="-96.5"/>
			<line class="st2" x1="0.5" y1="-42" x2="54.6" y2="-96.3"/>
			<line class="st2" x1="0.5" y1="-53" x2="45.5" y2="-95.9"/>
			<line class="st2" x1="0.5" y1="-64.6" x2="34.7" y2="-95.9"/>
			<line class="st2" x1="0.5" y1="-75.8" x2="22.7" y2="-95.6"/>
			<line class="st2" x1="0.5" y1="-86.5" x2="12.4" y2="-96.3"/>
		</g>
		<g>
			<polygon points="153.1,-192 0,-192 0,-95 153.1,-95 			"/>
			<line class="st2" x1="122" y1="-97.5" x2="152.6" y2="-128.6"/>
			<line class="st2" x1="111.4" y1="-97.5" x2="152.6" y2="-139"/>
			<line class="st2" x1="152.6" y1="-150.1" x2="99.9" y2="-97.5"/>
			<line class="st2" x1="152.6" y1="-161.5" x2="88.2" y2="-98.1"/>
			<line class="st2" x1="152.6" y1="-172.9" x2="76.5" y2="-97.5"/>
			<line class="st2" x1="152.6" y1="-183.4" x2="65.8" y2="-97.5"/>
			<line class="st2" x1="150" y1="-191.8" x2="54.6" y2="-97.5"/>
			<line class="st2" x1="143.2" y1="-193.4" x2="45.5" y2="-97.5"/>
			<line class="st2" x1="132.7" y1="-193.4" x2="34" y2="-97.5"/>
			<line class="st2" x1="122" y1="-193.4" x2="23" y2="-98.1"/>
			<line class="st2" x1="111.4" y1="-193.3" x2="12.4" y2="-98.1"/>
			<line class="st2" x1="0.5" y1="-98.6" x2="99.9" y2="-193.4"/>
			<line class="st2" x1="0.5" y1="-107.5" x2="88.2" y2="-193.3"/>
			<line class="st2" x1="0.5" y1="-118.2" x2="76.5" y2="-193.4"/>
			<line class="st2" x1="0.5" y1="-128.5" x2="65.8" y2="-193.4"/>
			<line class="st2" x1="0.5" y1="-139" x2="54.6" y2="-193.3"/>
			<line class="st2" x1="0.5" y1="-150" x2="45.5" y2="-192.8"/>
			<line class="st2" x1="0.5" y1="-161.5" x2="34.7" y2="-192.8"/>
			<line class="st2" x1="0.5" y1="-172.7" x2="22.7" y2="-192.5"/>
			<line class="st2" x1="0.5" y1="-183.4" x2="12.4" y2="-193.3"/>
			<line class="st2" x1="152.6" y1="-107.5" x2="143.2" y2="-97.5"/>
			<line class="st2" x1="152.6" y1="-118.1" x2="132.7" y2="-97.5"/>
		</g>
	</g>
</pattern>
<path id="XMLID_263_" class="st3" d="M190.1,680.8c0-0.1,0.1-0.1,0.1-0.2c36.4-54.5,49.2-127,37.1-217.3
	C201.1,267.1-17.9,136.6-214.2,162.9c-196.3,26.3-295.4,199.3-269.1,395.5C-457,754.6-229.8,824.1-33.6,797.9
	c27.5-3.7,53-9.1,76.3-16.1l0,0c0,0,106.9,96,233.8,49.5C276.5,831.3,166,728.2,190.1,680.8z"/>
<path class="st4" d="M46.3,785.4c-23.3,7-48.8,12.4-76.3,16.1c-196.2,26.2-423.4-43.3-449.7-239.5c-3.8-28.7-5-56.9-3.6-84.2
	l-6.1-2.9c0,0-70,263.7,188,325.7s343.6,8,343.6,8s148.4,113.6,237.9,26.3C153.2,881.4,46.3,785.4,46.3,785.4z"/>
<g>
	<pattern  id="SVGID_1_" xlink:href="#New_Pattern_2" patternTransform="matrix(1 0 0 0.5 -2.3689 -4393.4395)">
	</pattern>
	<path class="st5" d="M-378.8,655.7l520.6-1c7.9,0,6.7-4.6,0.2-5.8l-14.7-2l-523.6,0.6l0.9,5.4C-394.6,656.1-386,655.7-378.8,655.7z
		"/>
	<g id="XMLID_264_">
		<g id="XMLID_269_">
			<g id="XMLID_374_">
				<path id="XMLID_515_" class="st6" d="M93.7,610.8h-455.3c-7.5,0-13.6-6.1-13.6-13.6V319c0-7.5,6.1-13.6,13.6-13.6H93.7
					c7.5,0,13.6,6.1,13.6,13.6v278.1C107.3,604.7,101.2,610.8,93.7,610.8z"/>
				<path id="XMLID_514_" class="st6" d="M91.8,595.1h-449.7c-2.9,0-5.4-2.5-5.4-5.4V334.3c0-2.9,2.5-5.4,5.4-5.4H91.8
					c2.9,0,5.4,2.5,5.4,5.4v255.3C97.2,592.6,94.7,595.1,91.8,595.1z"/>
				<path id="XMLID_513_" class="st7" d="M-129.5,318.3c0,3.4-2.7,6.1-6.1,6.1s-7.1-1.9-7.1-5.3s2.3-7,5.7-7
					S-129.5,314.9-129.5,318.3z"/>
				<path id="XMLID_512_" class="st7" d="M-121.6,319.4c0,0.9-0.7,1.6-1.6,1.6s-1.8-0.5-1.8-1.4s0.6-1.8,1.5-1.8
					S-121.6,318.5-121.6,319.4z"/>
				<g id="XMLID_388_">
					<path id="XMLID_396_" class="st7" d="M93.8,336.1h-451.6v14.4c0,3,2.4,5.4,5.4,5.4H88.4c3,0,5.4-2.4,5.4-5.4L93.8,336.1
						L93.8,336.1z M50.5,346.1c0,3-2.4,5.4-5.4,5.4c-3,0-5.4-2.4-5.4-5.4l0,0c0-3,2.4-5.4,5.4-5.4C48.1,340.7,50.5,343.1,50.5,346.1
						L50.5,346.1z M70.7,346.1c0,3-2.4,5.4-5.4,5.4c-3,0-5.4-2.4-5.4-5.4l0,0c0-3,2.4-5.4,5.4-5.4C68.2,340.7,70.7,343.1,70.7,346.1
						L70.7,346.1z M88.2,346.1c0,3-2.4,5.4-5.4,5.4c-3,0-5.4-2.4-5.4-5.4l0,0c0-3,2.4-5.4,5.4-5.4C85.8,340.7,88.2,343.1,88.2,346.1
						L88.2,346.1z"/>
					<rect id="XMLID_395_" x="-357.8" y="336.1" class="st7" width="449.6" height="248.1"/>
					<g id="XMLID_392_">
						
							<rect id="XMLID_394_" x="82.3" y="343.6" transform="matrix(-0.7071 0.7071 -0.7071 -0.7071 386.0881 532.2377)" width="1.1" height="5"/>
						
							<rect id="XMLID_393_" x="82.2" y="343.6" transform="matrix(0.7071 0.7071 -0.7071 0.7071 268.993 42.8679)" width="1.1" height="5"/>
					</g>
					<polygon points="89.7,355.9 89.7,584.1 -357.8,584.1 -357.8,589.6 93.8,589.6 93.8,584.1 93.8,584.1 93.8,355.9 					"/>
				</g>
				<path id="XMLID_387_" class="st8" d="M-377.2,615.5l-23.9,10.9c-9.3,4.2-6.2,6.8,4,6.8h525c9.6,0,13.2-1.2,5-6.2L115,616
					c-1.5-0.9-3.2-1.4-5-1.4h-483.2C-374.5,614.6-375.9,614.9-377.2,615.5z"/>
				<path id="XMLID_386_" class="st7" d="M-406.7,633.2c1.6,2.9,7.2,2.6,7.2,2.6h529.7c0,0,5.4-0.3,7.2-2.6c0,2.1,0,4.6,0,6.9
					c0,3.4-2.1,6.1-4.7,6.1h-535.1c-2.3,0-4.2-2.4-4.2-5.4C-406.6,637.8-406.7,634.5-406.7,633.2z"/>
				<path id="XMLID_383_" class="st7" d="M-104.7,644.5h-57.9c-2.3,0-4.2-1.9-4.2-4.2v-1.9h66.2v1.9
					C-100.5,642.7-102.4,644.5-104.7,644.5z"/>
				<path id="XMLID_380_" class="st8" d="M-189.3,625.8l-16.8,5.1c-1.4,0.2-1,1.4,0.5,1.4l141.6-0.1c1.5,0,1.8-1.2,0.5-1.4
					l-15.7-5.1c-0.1,0-0.2-0.1-0.5-0.1h-109.1C-189.1,625.8-189.2,625.8-189.3,625.8z"/>
				<path d="M107.2,616.9H70.5c0.4-0.6,0.7-1.4,0.7-2.3V611c0-2.2-1.8-4-4-4H1.2c-2.2,0-4,1.8-4,4v3.6c0,0.8,0.3,1.6,0.7,2.3h-254.1
					c0.4-0.6,0.7-1.4,0.7-2.3V611c0-2.2-1.8-4-4-4h-66.1c-2.2,0-4,1.8-4,4v3.6c0,0.8,0.3,1.6,0.7,2.3h-44.1c0,0-21.3,9.9-15.7,8.6
					c5.7-1.2,507.8,0,507.8,0L107.2,616.9z"/>
				<path id="XMLID_376_" class="st9" d="M-360.2,308.6c0,0-12.3,3.6-10.9,14.3c0.5,3.4,0.2,7.4,1.8,7.8c2.9,0.8,1-8.3,1.8-11.3
					C-366.3,315.2-364.2,316.1-360.2,308.6z"/>
			</g>
		</g>
	</g>
	<g>
		<g>
			<path d="M-116,417.8l9.8,9.8c2.5,2.5,6.5,2.4,8.8-0.3c6.4-7.3,20.4-18.7,39.1-8.9c25,13.1,23.3,60-12.4,64.6
				c-3,0.4-5.2,2.9-5.2,5.9l-0.4,32.6c0,2.8,1.9,5.3,4.6,6l13.9,3.3c3.8,0.9,7.5-2,7.5-5.9v-14.6c0-2.4,1.4-4.5,3.5-5.5
				c8.4-3.9,29-16.9,30.9-50.9c3.3-59.3-63.3-86.1-100.3-44.6C-118.4,411.9-118.3,415.6-116,417.8z"/>
			<path d="M-58.2,563.8l-13.3-3.3c-2.7-0.7-4.6-3.1-4.6-5.9v-13.4c0-3.9,3.7-6.8,7.5-5.9l13.3,3.3c2.7,0.7,4.6,3.1,4.6,5.9v13.4
				C-50.7,561.8-54.4,564.7-58.2,563.8z"/>
		</g>
		<g>
			<path d="M-156.3,512.2l-9.8-9.8c-2.5-2.5-6.5-2.4-8.8,0.3c-6.4,7.3-20.4,18.7-39.1,8.9c-25-13.1-23.3-60,12.4-64.6
				c3-0.4,5.2-2.9,5.2-5.9l0.4-32.6c0-2.8-1.9-5.3-4.6-6l-13.9-3.3c-3.8-0.9-7.5,2-7.5,5.9v14.6c0,2.4-1.4,4.5-3.5,5.5
				c-8.4,3.9-29,16.9-30.9,50.9c-3.3,59.3,63.3,86.1,100.3,44.6C-153.9,518.1-154.1,514.4-156.3,512.2z"/>
			<path d="M-214.1,366.3l13.3,3.3c2.7,0.7,4.6,3.1,4.6,5.9v13.4c0,3.9-3.7,6.8-7.5,5.9l-13.3-3.3c-2.7-0.7-4.6-3.1-4.6-5.9v-13.4
				C-221.6,368.2-217.9,365.3-214.1,366.3z"/>
		</g>
	</g>
	<g>
		<path id="XMLID_1_" class="st3" d="M-374.3,316.2c0-7.5,6.1-13.6,13.6-13.6H94.6c7.5,0,13.6,6.1,13.6,13.6"/>
		<path id="XMLID_3_" class="st3" d="M96.8,304.6c7.5,0,13.6,6.1,13.6,13.6v278.1c0,7.6-6.1,13.7-13.6,13.7"/>
	</g>
</g>
</svg>
