<svg xmlns="http://www.w3.org/2000/svg" width="455.134" height="416.338" viewBox="0 0 455.134 416.338">
  <g id="il_06" transform="translate(498.061 -157.5)">
    <path id="XMLID_263_" d="M-91.171,464.414c0-.059.058-.059.058-.117,21.29-31.876,28.776-74.28,21.7-127.1C-84.737,222.448-212.826,146.121-327.639,161.5S-500.413,278.071-485.031,392.825s148.268,155.4,263.022,140.08a289.571,289.571,0,0,0,44.627-9.417h0s62.524,56.149,136.746,28.952C-40.637,552.439-105.266,492.138-91.171,464.414Z" transform="translate(-4.397 0)" fill="none" stroke="#000" stroke-miterlimit="10" stroke-width="4"/>
    <g id="Group_1815" data-name="Group 1815" transform="translate(-498.061 343.987)">
      <path id="Path_1187" data-name="Path 1187" d="M-179.674,656.506a289.57,289.57,0,0,1-44.627,9.417c-114.754,15.324-247.64-25.325-263.022-140.08a270.143,270.143,0,0,1-2.106-49.247L-493,474.9s-40.942,154.234,109.958,190.5,200.966,4.679,200.966,4.679,86.8,66.443,139.144,15.382C-117.15,712.655-179.674,656.506-179.674,656.506Z" transform="translate(498.061 -474.9)"/>
    </g>
    <g id="Group_1820" data-name="Group 1820" transform="translate(-444.626 243.212)">
      <path id="Path_1188" data-name="Path 1188" d="M-386.065,652.047l304.49-.585c4.621,0,3.919-2.691.117-3.392l-8.6-1.17-306.245.351.526,3.158C-395.306,652.281-390.276,652.047-386.065,652.047Z" transform="translate(402.383 -445.525)"/>
      <g id="XMLID_264_" transform="translate(0 1.638)">
        <g id="XMLID_269_">
          <g id="XMLID_374_">
            <path id="XMLID_515_" d="M-100.948,484.023h-266.3a7.963,7.963,0,0,1-7.954-7.954V313.354a7.963,7.963,0,0,1,7.954-7.954h266.3a7.963,7.963,0,0,1,7.954,7.954V476.01A7.975,7.975,0,0,1-100.948,484.023Z" transform="translate(393.624 -305.4)" fill="#fff" stroke="#000" stroke-miterlimit="10" stroke-width="2"/>
            <path id="XMLID_514_" d="M-97.12,484.6H-360.142a3.222,3.222,0,0,1-3.158-3.158V332.058a3.222,3.222,0,0,1,3.158-3.158H-97.12a3.222,3.222,0,0,1,3.158,3.158V481.379A3.234,3.234,0,0,1-97.12,484.6Z" transform="translate(388.684 -315.155)" fill="#fff" stroke="#000" stroke-miterlimit="10" stroke-width="2"/>
            <path id="XMLID_513_" d="M-134.98,315.726a3.545,3.545,0,0,1-3.568,3.568c-1.989,0-4.153-1.111-4.153-3.1s1.345-4.094,3.334-4.094S-134.98,313.738-134.98,315.726Z" transform="translate(297.109 -308.181)" fill="none" stroke="#000" stroke-miterlimit="10" stroke-width="2"/>
            <path id="XMLID_512_" d="M-123.011,318.736a.924.924,0,0,1-.936.936c-.526,0-1.053-.292-1.053-.819a.983.983,0,0,1,.877-1.053A1.087,1.087,0,0,1-123.011,318.736Z" transform="translate(289.762 -310.547)" fill="none" stroke="#000" stroke-miterlimit="10" stroke-width="2"/>
            <g id="XMLID_388_" transform="translate(28.601 17.956)">
              <path id="XMLID_396_" d="M-93.667,336.1H-357.8v8.422a3.145,3.145,0,0,0,3.158,3.158H-96.825a3.145,3.145,0,0,0,3.158-3.158V336.1Zm-25.325,5.849a3.145,3.145,0,0,1-3.158,3.158,3.145,3.145,0,0,1-3.158-3.158h0a3.145,3.145,0,0,1,3.158-3.158,3.145,3.145,0,0,1,3.158,3.158Zm11.815,0a3.145,3.145,0,0,1-3.158,3.158,3.145,3.145,0,0,1-3.158-3.158h0a3.145,3.145,0,0,1,3.158-3.158,3.183,3.183,0,0,1,3.158,3.158Zm10.235,0a3.145,3.145,0,0,1-3.158,3.158,3.145,3.145,0,0,1-3.158-3.158h0a3.145,3.145,0,0,1,3.158-3.158,3.145,3.145,0,0,1,3.158,3.158Z" transform="translate(357.8 -336.1)" fill="none" stroke="#000" stroke-miterlimit="10" stroke-width="2"/>
              <rect id="XMLID_395_" width="262.964" height="145.11" fill="none" stroke="#000" stroke-miterlimit="10" stroke-width="2"/>
              <g id="XMLID_392_" transform="translate(256.425 4.584)">
                <rect id="XMLID_394_" width="0.643" height="2.924" transform="translate(2.523 2.068) rotate(135)"/>
                <rect id="XMLID_393_" width="0.643" height="2.924" transform="translate(2.068 0.008) rotate(45)"/>
              </g>
              <path id="Path_1189" data-name="Path 1189" d="M-96.065,355.9V489.37H-357.8v3.217H-93.667V489.37h0V355.9Z" transform="translate(357.8 -344.319)"/>
            </g>
            <path id="XMLID_387_" d="M-389.426,615.126-403.4,621.5c-5.439,2.457-3.626,3.977,2.34,3.977H-94c5.615,0,7.72-.7,2.924-3.626l-10.469-6.434a5.651,5.651,0,0,0-2.924-.819H-387.086A5.661,5.661,0,0,0-389.426,615.126Z" transform="translate(406.68 -433.754)" fill="none" stroke="#000" stroke-miterlimit="10" stroke-width="1"/>
            <path id="XMLID_386_" d="M-406.7,633.2c.936,1.7,4.211,1.521,4.211,1.521H-92.676s3.158-.175,4.211-1.521v4.036c0,1.989-1.228,3.568-2.749,3.568H-404.185c-1.345,0-2.457-1.4-2.457-3.158S-406.7,633.96-406.7,633.2Z" transform="translate(406.7 -441.475)" fill="none" stroke="#000" stroke-miterlimit="10" stroke-width="2"/>
            <path id="XMLID_383_" d="M-130.479,641.968h-33.865a2.471,2.471,0,0,1-2.457-2.457V638.4h38.719v1.111A2.351,2.351,0,0,1-130.479,641.968Z" transform="translate(307.113 -443.634)" fill="none" stroke="#000" stroke-miterlimit="10" stroke-width="2"/>
            <path id="XMLID_380_" d="M-196.632,625.717l-9.826,2.983c-.819.117-.585.819.292.819l82.819-.059c.877,0,1.053-.7.292-.819l-9.183-2.983a1.191,1.191,0,0,0-.292-.058H-196.34C-196.515,625.717-196.574,625.717-196.632,625.717Z" transform="translate(323.786 -438.32)" fill="none" stroke="#000" stroke-miterlimit="10" stroke-width="1"/>
            <path id="Path_1190" data-name="Path 1190" d="M-99.046,612.79h-21.465a2.442,2.442,0,0,0,.409-1.345v-2.106a2.346,2.346,0,0,0-2.34-2.339h-38.6a2.346,2.346,0,0,0-2.34,2.339v2.106a2.782,2.782,0,0,0,.409,1.345H-311.592a2.443,2.443,0,0,0,.409-1.345v-2.106a2.346,2.346,0,0,0-2.34-2.339h-38.661a2.346,2.346,0,0,0-2.34,2.339v2.106a2.782,2.782,0,0,0,.409,1.345h-25.793s-12.458,5.79-9.183,5.03c3.334-.7,297,0,297,0Z" transform="translate(399.617 -430.599)"/>
            <path id="XMLID_376_" d="M-364.771,308.6s-7.194,2.106-6.375,8.364c.292,1.989.117,4.328,1.053,4.562,1.7.468.585-4.855,1.053-6.609C-368.339,312.46-367.11,312.987-364.771,308.6Z" transform="translate(391.968 -306.728)" fill="#fff"/>
          </g>
        </g>
      </g>
      <g id="Group_1818" data-name="Group 1818" transform="translate(87.839 37.141)">
        <g id="Group_1816" data-name="Group 1816" transform="translate(81.14 13.534)">
          <path id="Path_1191" data-name="Path 1191" d="M-116.743,405.945l5.732,5.732a3.475,3.475,0,0,0,5.147-.175c3.743-4.27,11.932-10.937,22.869-5.205,14.622,7.662,13.628,35.093-7.253,37.784a3.473,3.473,0,0,0-3.041,3.451l-.234,19.067a3.633,3.633,0,0,0,2.69,3.509l8.13,1.93a3.571,3.571,0,0,0,4.387-3.451v-8.539a3.56,3.56,0,0,1,2.047-3.217c4.913-2.281,16.962-9.885,18.073-29.771,1.93-34.684-37.023-50.358-58.664-26.086A3.619,3.619,0,0,0-116.743,405.945Z" transform="translate(117.789 -389.241)"/>
          <path id="Path_1192" data-name="Path 1192" d="M-65.631,551.9l-7.779-1.93a3.565,3.565,0,0,1-2.69-3.451v-7.837a3.571,3.571,0,0,1,4.387-3.451l7.779,1.93a3.565,3.565,0,0,1,2.69,3.451v7.837A3.571,3.571,0,0,1-65.631,551.9Z" transform="translate(100.483 -449.804)"/>
        </g>
        <g id="Group_1817" data-name="Group 1817">
          <path id="Path_1193" data-name="Path 1193" d="M-197.9,465.223l-5.732-5.732a3.475,3.475,0,0,0-5.147.175c-3.743,4.27-11.932,10.937-22.869,5.205-14.622-7.662-13.628-35.093,7.253-37.783a3.473,3.473,0,0,0,3.041-3.451l.234-19.067a3.633,3.633,0,0,0-2.69-3.509l-8.13-1.93a3.571,3.571,0,0,0-4.387,3.451v8.539a3.56,3.56,0,0,1-2.047,3.217c-4.913,2.281-16.962,9.884-18.073,29.771-1.93,34.684,37.023,50.358,58.664,26.086A3.679,3.679,0,0,0-197.9,465.223Z" transform="translate(256.518 -379.773)"/>
          <path id="Path_1194" data-name="Path 1194" d="M-217.213,366.217l7.779,1.93a3.565,3.565,0,0,1,2.69,3.451v7.837a3.571,3.571,0,0,1-4.387,3.451l-7.779-1.93a3.565,3.565,0,0,1-2.69-3.451v-7.837A3.516,3.516,0,0,1-217.213,366.217Z" transform="translate(242.023 -366.101)"/>
        </g>
      </g>
      <g id="Group_1819" data-name="Group 1819" transform="translate(18.95 0)">
        <path id="XMLID_1_" d="M-374.3,310.554a7.963,7.963,0,0,1,7.954-7.954h266.3a7.963,7.963,0,0,1,7.954,7.954" transform="translate(374.3 -302.6)" fill="none" stroke="#000" stroke-miterlimit="10" stroke-width="4"/>
        <path id="XMLID_3_" d="M96.8,304.6a7.963,7.963,0,0,1,7.954,7.954V475.21a7.975,7.975,0,0,1-7.954,8.013" transform="translate(178.739 -303.43)" fill="none" stroke="#000" stroke-miterlimit="10" stroke-width="4"/>
      </g>
    </g>
  </g>
</svg>
