<svg xmlns="http://www.w3.org/2000/svg" width="100.5" height="41.602" viewBox="0 0 100.5 41.602">
  <g id="Logo-V" transform="translate(0 0.2)">
    <g id="XMLID_790_">
      <g id="XMLID_791_">
        <path id="XMLID_843_" d="M.5.5H2.7a.472.472,0,0,1,.5.5V18.8a.215.215,0,0,0,.2.2H5.8c.2,0,.4-.1.4-.3L12.7.8c.1-.2.2-.3.4-.3h2.1a.441.441,0,0,1,.4.6l-7,19.3v.3L15.7,40a.441.441,0,0,1-.4.6H13.2c-.2,0-.4-.1-.4-.3l-6.5-18c-.1-.2-.2-.3-.4-.3H3.3a.215.215,0,0,0-.2.2V40.1a.472.472,0,0,1-.5.5H.5a.472.472,0,0,1-.5-.5V1A.472.472,0,0,1,.5.5Z" fill="#1d1d1b"/>
        <path id="XMLID_837_" d="M20.4,40.2V1a.472.472,0,0,1,.5-.5H23a.472.472,0,0,1,.5.5V40.2a.472.472,0,0,1-.5.5H20.8A.458.458,0,0,1,20.4,40.2Z" fill="#1d1d1b"/>
        <path id="XMLID_828_" d="M43.4,40.7H41.2a.472.472,0,0,1-.5-.5V27.4a5.164,5.164,0,0,0-5.2-5.2H32a.215.215,0,0,0-.2.2V40.3a.472.472,0,0,1-.5.5H29.1a.472.472,0,0,1-.5-.5V1a.472.472,0,0,1,.5-.5h6.4a8.28,8.28,0,0,1,8.3,8.3v4.9a8.238,8.238,0,0,1-3.3,6.6.3.3,0,0,0,0,.4,8.692,8.692,0,0,1,3.3,6.6V40.2A.458.458,0,0,1,43.4,40.7ZM35.5,19a5.164,5.164,0,0,0,5.2-5.2V8.9a5.164,5.164,0,0,0-5.2-5.2H32a.215.215,0,0,0-.2.2V18.8a.215.215,0,0,0,.2.2Z" fill="#1d1d1b"/>
        <path id="XMLID_817_" d="M60.2,13.6V7.8a4.655,4.655,0,0,0-4.5-4.7A4.549,4.549,0,0,0,51,7.7V33.5a4.65,4.65,0,1,0,9.3.1v-5a.472.472,0,0,1,.5-.5H63a.472.472,0,0,1,.5.5v4.9a7.858,7.858,0,0,1-7.6,7.9,7.662,7.662,0,0,1-7.8-7.7V7.9A7.858,7.858,0,0,1,55.7,0a7.662,7.662,0,0,1,7.8,7.7v5.8a.472.472,0,0,1-.5.5H60.8C60.5,14,60.2,13.8,60.2,13.6Z" fill="#1d1d1b"/>
        <path id="XMLID_805_" d="M90.8,3.9V18.8a.215.215,0,0,0,.2.2h6.5a.472.472,0,0,1,.5.5v2.2a.472.472,0,0,1-.5.5H91a.215.215,0,0,0-.2.2V40.2a.472.472,0,0,1-.5.5H88.1a.472.472,0,0,1-.5-.5V1a.472.472,0,0,1,.5-.5H100a.472.472,0,0,1,.5.5V3.2a.472.472,0,0,1-.5.5H91C90.9,3.6,90.8,3.7,90.8,3.9Z" fill="#1d1d1b"/>
        <g id="XMLID_792_">
          <path id="XMLID_794_" d="M75.4-.2a7.7,7.7,0,0,0-7.7,7.7V33.7a7.7,7.7,0,1,0,15.4,0V7.5A7.7,7.7,0,0,0,75.4-.2ZM80,33.7a4.6,4.6,0,0,1-9.2,0V7.5a4.6,4.6,0,1,1,9.2,0Z" fill="#ffcb00"/>
          <path id="XMLID_793_" d="M75.9,35.3h-1a1,1,0,0,1-1-1V7a1,1,0,0,1,1-1h1a1,1,0,0,1,1,1V34.3A1,1,0,0,1,75.9,35.3Z" fill="#ffcb00"/>
        </g>
      </g>
    </g>
  </g>
</svg>
